M48
; DRILL file {KiCad 8.0.2} date 2024-05-10T09:06:50+0100
; FORMAT={-:-/ absolute / metric / decimal}
; #@! TF.CreationDate,2024-05-10T09:06:50+01:00
; #@! TF.GenerationSoftware,Kicad,Pcbnew,8.0.2
; #@! TF.FileFunction,Plated,1,2,PTH
FMAT,2
METRIC
; #@! TA.AperFunction,Plated,PTH,ComponentDrill
T1C0.800
; #@! TA.AperFunction,Plated,PTH,ComponentDrill
T2C1.000
; #@! TA.AperFunction,Plated,PTH,ComponentDrill
T3C1.020
; #@! TA.AperFunction,Plated,PTH,ComponentDrill
T4C1.200
%
G90
G05
T1
X85.5Y-66.04
X85.5Y-68.58
X85.5Y-71.12
X85.5Y-73.66
X85.5Y-76.2
X85.5Y-78.74
X85.5Y-81.28
X85.5Y-83.82
X98.2Y-66.04
X98.2Y-68.58
X98.2Y-71.12
X98.2Y-73.66
X98.2Y-76.2
X98.2Y-78.74
X98.2Y-81.28
X98.2Y-83.82
X104.045Y-61.0
X107.545Y-61.0
X114.14Y-59.11
X114.14Y-61.65
X114.14Y-64.19
X114.14Y-66.73
X114.14Y-69.27
X114.14Y-71.81
X114.14Y-74.35
X114.14Y-76.89
X126.84Y-59.11
X126.84Y-61.65
X126.84Y-64.19
X126.84Y-66.73
X126.84Y-69.27
X126.84Y-71.81
X126.84Y-74.35
X126.84Y-76.89
X133.5Y-56.5
X133.5Y-60.0
X142.24Y-71.12
X142.24Y-78.74
X147.32Y-76.2
X147.32Y-83.82
T2
X105.22Y-100.0
X107.76Y-100.0
X109.28Y-51.74
X110.3Y-100.0
X111.82Y-51.74
X112.84Y-100.0
X114.36Y-51.74
X115.38Y-100.0
X116.9Y-51.74
X117.92Y-100.0
X119.44Y-51.74
X120.46Y-100.0
X121.98Y-51.74
X123.0Y-100.0
X124.52Y-51.74
X127.06Y-51.74
X127.06Y-100.0
X129.6Y-100.0
X132.14Y-51.74
X132.14Y-100.0
X134.68Y-51.74
X134.68Y-100.0
X137.22Y-51.74
X137.22Y-100.0
X139.76Y-51.74
X139.76Y-100.0
X142.3Y-51.74
X142.3Y-100.0
X144.84Y-51.74
X144.84Y-100.0
T3
X106.68Y-73.66
X106.68Y-76.2
X106.68Y-78.74
X106.68Y-81.28
X125.0Y-87.0
X127.54Y-87.0
X130.08Y-87.0
X132.62Y-87.0
X134.5Y-64.195
X134.5Y-66.735
X134.5Y-69.275
X134.5Y-71.815
X139.735Y-86.5
X142.275Y-86.5
T4
X96.52Y-89.0
X96.52Y-93.5
X103.02Y-89.0
X103.02Y-93.5
X112.75Y-85.75
X112.75Y-92.25
X117.25Y-85.75
X117.25Y-92.25
T2
G00X90.0Y-55.5
M15
G01X90.0Y-57.5
M16
G05
G00X92.0Y-61.2
M15
G01X94.0Y-61.2
M16
G05
G00X96.0Y-55.5
M15
G01X96.0Y-57.5
M16
G05
M30
