%TF.GenerationSoftware,KiCad,Pcbnew,8.0.2*%
%TF.CreationDate,2024-05-10T09:06:47+01:00*%
%TF.ProjectId,FARESHARE KICAD,46415245-5348-4415-9245-204b49434144,V 1.0*%
%TF.SameCoordinates,Original*%
%TF.FileFunction,Soldermask,Top*%
%TF.FilePolarity,Negative*%
%FSLAX46Y46*%
G04 Gerber Fmt 4.6, Leading zero omitted, Abs format (unit mm)*
G04 Created by KiCad (PCBNEW 8.0.2) date 2024-05-10 09:06:47*
%MOMM*%
%LPD*%
G01*
G04 APERTURE LIST*
G04 Aperture macros list*
%AMRoundRect*
0 Rectangle with rounded corners*
0 $1 Rounding radius*
0 $2 $3 $4 $5 $6 $7 $8 $9 X,Y pos of 4 corners*
0 Add a 4 corners polygon primitive as box body*
4,1,4,$2,$3,$4,$5,$6,$7,$8,$9,$2,$3,0*
0 Add four circle primitives for the rounded corners*
1,1,$1+$1,$2,$3*
1,1,$1+$1,$4,$5*
1,1,$1+$1,$6,$7*
1,1,$1+$1,$8,$9*
0 Add four rect primitives between the rounded corners*
20,1,$1+$1,$2,$3,$4,$5,0*
20,1,$1+$1,$4,$5,$6,$7,0*
20,1,$1+$1,$6,$7,$8,$9,0*
20,1,$1+$1,$8,$9,$2,$3,0*%
G04 Aperture macros list end*
%ADD10R,3.500000X3.500000*%
%ADD11RoundRect,0.750000X-0.750000X-1.000000X0.750000X-1.000000X0.750000X1.000000X-0.750000X1.000000X0*%
%ADD12RoundRect,0.875000X-0.875000X-0.875000X0.875000X-0.875000X0.875000X0.875000X-0.875000X0.875000X0*%
%ADD13C,2.020000*%
%ADD14C,1.600000*%
%ADD15O,1.600000X1.600000*%
%ADD16R,1.600000X1.600000*%
%ADD17R,2.200000X2.200000*%
%ADD18C,2.200000*%
G04 APERTURE END LIST*
D10*
%TO.C,J5*%
X96000000Y-56500000D03*
D11*
X90000000Y-56500000D03*
D12*
X93000000Y-61200000D03*
%TD*%
D13*
%TO.C,J1*%
X134500000Y-64195000D03*
X134500000Y-66735000D03*
X134500000Y-69275000D03*
X134500000Y-71815000D03*
%TD*%
D14*
%TO.C,R1*%
X142240000Y-71120000D03*
D15*
X142240000Y-78740000D03*
%TD*%
D13*
%TO.C,J2*%
X106680000Y-73660000D03*
X106680000Y-76200000D03*
X106680000Y-78740000D03*
X106680000Y-81280000D03*
%TD*%
D16*
%TO.C,A1*%
X98200000Y-83820000D03*
D15*
X98200000Y-81280000D03*
X98200000Y-78740000D03*
X98200000Y-76200000D03*
X98200000Y-73660000D03*
X98200000Y-71120000D03*
X98200000Y-68580000D03*
X98200000Y-66040000D03*
X85500000Y-66040000D03*
X85500000Y-68580000D03*
X85500000Y-71120000D03*
X85500000Y-73660000D03*
X85500000Y-76200000D03*
X85500000Y-78740000D03*
X85500000Y-81280000D03*
X85500000Y-83820000D03*
%TD*%
D14*
%TO.C,R2*%
X147320000Y-76200000D03*
D15*
X147320000Y-83820000D03*
%TD*%
D16*
%TO.C,A2*%
X126840000Y-76890000D03*
D15*
X126840000Y-74350000D03*
X126840000Y-71810000D03*
X126840000Y-69270000D03*
X126840000Y-66730000D03*
X126840000Y-64190000D03*
X126840000Y-61650000D03*
X126840000Y-59110000D03*
X114140000Y-59110000D03*
X114140000Y-61650000D03*
X114140000Y-64190000D03*
X114140000Y-66730000D03*
X114140000Y-69270000D03*
X114140000Y-71810000D03*
X114140000Y-74350000D03*
X114140000Y-76890000D03*
%TD*%
D17*
%TO.C,S2*%
X103020000Y-93500000D03*
D18*
X96520000Y-93500000D03*
X103020000Y-89000000D03*
X96520000Y-89000000D03*
%TD*%
D13*
%TO.C,J3*%
X125000000Y-87000000D03*
X127540000Y-87000000D03*
X130080000Y-87000000D03*
X132620000Y-87000000D03*
%TD*%
D17*
%TO.C,S1*%
X112750000Y-92250000D03*
D18*
X112750000Y-85750000D03*
X117250000Y-92250000D03*
X117250000Y-85750000D03*
%TD*%
D13*
%TO.C,J4*%
X139735000Y-86500000D03*
X142275000Y-86500000D03*
%TD*%
D16*
%TO.C,C2*%
X104044888Y-61000000D03*
D14*
X107544888Y-61000000D03*
%TD*%
D16*
%TO.C,A3*%
X109280000Y-51740000D03*
D15*
X111820000Y-51740000D03*
X114360000Y-51740000D03*
X116900000Y-51740000D03*
X119440000Y-51740000D03*
X121980000Y-51740000D03*
X124520000Y-51740000D03*
X127060000Y-51740000D03*
X132140000Y-51740000D03*
X134680000Y-51740000D03*
X137220000Y-51740000D03*
X139760000Y-51740000D03*
X142300000Y-51740000D03*
X144840000Y-51740000D03*
X144840000Y-100000000D03*
X142300000Y-100000000D03*
X139760000Y-100000000D03*
X137220000Y-100000000D03*
X134680000Y-100000000D03*
X132140000Y-100000000D03*
X129600000Y-100000000D03*
X127060000Y-100000000D03*
X123000000Y-100000000D03*
X120460000Y-100000000D03*
X117920000Y-100000000D03*
X115380000Y-100000000D03*
X112840000Y-100000000D03*
X110300000Y-100000000D03*
X107760000Y-100000000D03*
X105220000Y-100000000D03*
%TD*%
D16*
%TO.C,C1*%
X133500000Y-56500000D03*
D14*
X133500000Y-60000000D03*
%TD*%
M02*
