M48
; DRILL file {KiCad 8.0.2} date 2024-05-08T09:52:50+0100
; FORMAT={-:-/ absolute / inch / decimal}
; #@! TF.CreationDate,2024-05-08T09:52:50+01:00
; #@! TF.GenerationSoftware,Kicad,Pcbnew,8.0.2
; #@! TF.FileFunction,Plated,1,2,PTH
FMAT,2
INCH
; #@! TA.AperFunction,Plated,PTH,ComponentDrill
T1C0.0315
; #@! TA.AperFunction,Plated,PTH,ComponentDrill
T2C0.0394
; #@! TA.AperFunction,Plated,PTH,ComponentDrill
T3C0.0402
; #@! TA.AperFunction,Plated,PTH,ComponentDrill
T4C0.0472
%
G90
G05
T1
X3.3661Y-2.6
X3.3661Y-2.7
X3.3661Y-2.8
X3.3661Y-2.9
X3.3661Y-3.0
X3.3661Y-3.1
X3.3661Y-3.2
X3.3661Y-3.3
X3.8661Y-2.6
X3.8661Y-2.7
X3.8661Y-2.8
X3.8661Y-2.9
X3.8661Y-3.0
X3.8661Y-3.1
X3.8661Y-3.2
X3.8661Y-3.3
X4.0963Y-2.4016
X4.175Y-2.4016
X4.4937Y-2.3272
X4.4937Y-2.4272
X4.4937Y-2.5272
X4.4937Y-2.6272
X4.4937Y-2.7272
X4.4937Y-2.8272
X4.4937Y-2.9272
X4.4937Y-3.0272
X4.9937Y-2.3272
X4.9937Y-2.4272
X4.9937Y-2.5272
X4.9937Y-2.6272
X4.9937Y-2.7272
X4.9937Y-2.8272
X4.9937Y-2.9272
X4.9937Y-3.0272
X5.2559Y-2.2244
X5.2559Y-2.3031
X5.6Y-2.8
X5.6Y-3.1
X5.8Y-3.0
X5.8Y-3.3
T2
X4.1425Y-3.937
X4.2425Y-3.937
X4.3024Y-2.037
X4.3425Y-3.937
X4.4024Y-2.037
X4.4425Y-3.937
X4.5024Y-2.037
X4.5425Y-3.937
X4.6024Y-2.037
X4.6425Y-3.937
X4.7024Y-2.037
X4.7425Y-3.937
X4.8024Y-2.037
X4.8425Y-3.937
X4.9024Y-2.037
X5.0024Y-2.037
X5.0024Y-3.937
X5.1024Y-3.937
X5.2024Y-2.037
X5.2024Y-3.937
X5.3024Y-2.037
X5.3024Y-3.937
X5.4024Y-2.037
X5.4024Y-3.937
X5.5024Y-2.037
X5.5024Y-3.937
X5.6024Y-2.037
X5.6024Y-3.937
X5.7024Y-2.037
X5.7024Y-3.937
T3
X4.2Y-2.9
X4.2Y-3.0
X4.2Y-3.1
X4.2Y-3.2
X4.9213Y-3.4252
X5.0213Y-3.4252
X5.1213Y-3.4252
X5.2213Y-3.4252
X5.2953Y-2.5274
X5.2953Y-2.6274
X5.2953Y-2.7274
X5.2953Y-2.8274
X5.5014Y-3.4055
X5.6014Y-3.4055
T4
X3.8Y-3.5039
X3.8Y-3.6811
X4.0559Y-3.5039
X4.0559Y-3.6811
X4.439Y-3.376
X4.439Y-3.6319
X4.6161Y-3.376
X4.6161Y-3.6319
T2
G00X3.5236Y-2.2362
M15
G01X3.5236Y-2.2126
M16
G05
G00X3.6299Y-2.4094
M15
G01X3.6535Y-2.4094
M16
G05
G00X3.7598Y-2.2362
M15
G01X3.7598Y-2.2126
M16
G05
M30
