%TF.GenerationSoftware,KiCad,Pcbnew,8.0.2*%
%TF.CreationDate,2024-05-10T09:06:47+01:00*%
%TF.ProjectId,FARESHARE KICAD,46415245-5348-4415-9245-204b49434144,V 1.0*%
%TF.SameCoordinates,Original*%
%TF.FileFunction,Copper,L2,Bot*%
%TF.FilePolarity,Positive*%
%FSLAX46Y46*%
G04 Gerber Fmt 4.6, Leading zero omitted, Abs format (unit mm)*
G04 Created by KiCad (PCBNEW 8.0.2) date 2024-05-10 09:06:47*
%MOMM*%
%LPD*%
G01*
G04 APERTURE LIST*
G04 Aperture macros list*
%AMRoundRect*
0 Rectangle with rounded corners*
0 $1 Rounding radius*
0 $2 $3 $4 $5 $6 $7 $8 $9 X,Y pos of 4 corners*
0 Add a 4 corners polygon primitive as box body*
4,1,4,$2,$3,$4,$5,$6,$7,$8,$9,$2,$3,0*
0 Add four circle primitives for the rounded corners*
1,1,$1+$1,$2,$3*
1,1,$1+$1,$4,$5*
1,1,$1+$1,$6,$7*
1,1,$1+$1,$8,$9*
0 Add four rect primitives between the rounded corners*
20,1,$1+$1,$2,$3,$4,$5,0*
20,1,$1+$1,$4,$5,$6,$7,0*
20,1,$1+$1,$6,$7,$8,$9,0*
20,1,$1+$1,$8,$9,$2,$3,0*%
G04 Aperture macros list end*
%TA.AperFunction,ComponentPad*%
%ADD10R,3.500000X3.500000*%
%TD*%
%TA.AperFunction,ComponentPad*%
%ADD11RoundRect,0.750000X-0.750000X-1.000000X0.750000X-1.000000X0.750000X1.000000X-0.750000X1.000000X0*%
%TD*%
%TA.AperFunction,ComponentPad*%
%ADD12RoundRect,0.875000X-0.875000X-0.875000X0.875000X-0.875000X0.875000X0.875000X-0.875000X0.875000X0*%
%TD*%
%TA.AperFunction,ComponentPad*%
%ADD13C,2.020000*%
%TD*%
%TA.AperFunction,ComponentPad*%
%ADD14C,1.600000*%
%TD*%
%TA.AperFunction,ComponentPad*%
%ADD15O,1.600000X1.600000*%
%TD*%
%TA.AperFunction,ComponentPad*%
%ADD16R,1.600000X1.600000*%
%TD*%
%TA.AperFunction,ComponentPad*%
%ADD17R,2.200000X2.200000*%
%TD*%
%TA.AperFunction,ComponentPad*%
%ADD18C,2.200000*%
%TD*%
%TA.AperFunction,Conductor*%
%ADD19C,1.000000*%
%TD*%
G04 APERTURE END LIST*
D10*
%TO.P,J5,1*%
%TO.N,+12V*%
X96000000Y-56500000D03*
D11*
%TO.P,J5,2*%
%TO.N,GND*%
X90000000Y-56500000D03*
D12*
%TO.P,J5,3*%
X93000000Y-61200000D03*
%TD*%
D13*
%TO.P,J1,1*%
%TO.N,Net-(A2-2B)*%
X134500000Y-64195000D03*
%TO.P,J1,2*%
%TO.N,Net-(A2-2A)*%
X134500000Y-66735000D03*
%TO.P,J1,3*%
%TO.N,Net-(A2-1A)*%
X134500000Y-69275000D03*
%TO.P,J1,4*%
%TO.N,Net-(A2-1B)*%
X134500000Y-71815000D03*
%TD*%
D14*
%TO.P,R1,1*%
%TO.N,D5*%
X142240000Y-71120000D03*
D15*
%TO.P,R1,2*%
%TO.N,D4*%
X142240000Y-78740000D03*
%TD*%
D13*
%TO.P,J2,1*%
%TO.N,Net-(A1-2B)*%
X106680000Y-73660000D03*
%TO.P,J2,2*%
%TO.N,Net-(A1-2A)*%
X106680000Y-76200000D03*
%TO.P,J2,3*%
%TO.N,Net-(A1-1A)*%
X106680000Y-78740000D03*
%TO.P,J2,4*%
%TO.N,Net-(A1-1B)*%
X106680000Y-81280000D03*
%TD*%
D16*
%TO.P,A1,1,GND*%
%TO.N,GND*%
X98200000Y-83820000D03*
D15*
%TO.P,A1,2,VDD*%
%TO.N,+5V*%
X98200000Y-81280000D03*
%TO.P,A1,3,1B*%
%TO.N,Net-(A1-1B)*%
X98200000Y-78740000D03*
%TO.P,A1,4,1A*%
%TO.N,Net-(A1-1A)*%
X98200000Y-76200000D03*
%TO.P,A1,5,2A*%
%TO.N,Net-(A1-2A)*%
X98200000Y-73660000D03*
%TO.P,A1,6,2B*%
%TO.N,Net-(A1-2B)*%
X98200000Y-71120000D03*
%TO.P,A1,7,GND*%
%TO.N,GND*%
X98200000Y-68580000D03*
%TO.P,A1,8,VMOT*%
%TO.N,Net-(A1-VMOT)*%
X98200000Y-66040000D03*
%TO.P,A1,9,~{ENABLE}*%
%TO.N,unconnected-(A1-~{ENABLE}-Pad9)*%
X85500000Y-66040000D03*
%TO.P,A1,10,MS1*%
%TO.N,unconnected-(A1-MS1-Pad10)*%
X85500000Y-68580000D03*
%TO.P,A1,11,MS2*%
%TO.N,unconnected-(A1-MS2-Pad11)*%
X85500000Y-71120000D03*
%TO.P,A1,12,MS3*%
%TO.N,unconnected-(A1-MS3-Pad12)*%
X85500000Y-73660000D03*
%TO.P,A1,13,~{RESET}*%
%TO.N,Net-(A1-~{RESET})*%
X85500000Y-76200000D03*
%TO.P,A1,14,~{SLEEP}*%
X85500000Y-78740000D03*
%TO.P,A1,15,STEP*%
%TO.N,D12*%
X85500000Y-81280000D03*
%TO.P,A1,16,DIR*%
%TO.N,D13*%
X85500000Y-83820000D03*
%TD*%
D14*
%TO.P,R2,1*%
%TO.N,D3*%
X147320000Y-76200000D03*
D15*
%TO.P,R2,2*%
%TO.N,D2*%
X147320000Y-83820000D03*
%TD*%
D16*
%TO.P,A2,1,GND*%
%TO.N,GND*%
X126840000Y-76890000D03*
D15*
%TO.P,A2,2,VDD*%
%TO.N,+5V*%
X126840000Y-74350000D03*
%TO.P,A2,3,1B*%
%TO.N,Net-(A2-1B)*%
X126840000Y-71810000D03*
%TO.P,A2,4,1A*%
%TO.N,Net-(A2-1A)*%
X126840000Y-69270000D03*
%TO.P,A2,5,2A*%
%TO.N,Net-(A2-2A)*%
X126840000Y-66730000D03*
%TO.P,A2,6,2B*%
%TO.N,Net-(A2-2B)*%
X126840000Y-64190000D03*
%TO.P,A2,7,GND*%
%TO.N,GND*%
X126840000Y-61650000D03*
%TO.P,A2,8,VMOT*%
%TO.N,Net-(A2-VMOT)*%
X126840000Y-59110000D03*
%TO.P,A2,9,~{ENABLE}*%
%TO.N,unconnected-(A2-~{ENABLE}-Pad9)*%
X114140000Y-59110000D03*
%TO.P,A2,10,MS1*%
%TO.N,unconnected-(A2-MS1-Pad10)*%
X114140000Y-61650000D03*
%TO.P,A2,11,MS2*%
%TO.N,unconnected-(A2-MS2-Pad11)*%
X114140000Y-64190000D03*
%TO.P,A2,12,MS3*%
%TO.N,unconnected-(A2-MS3-Pad12)*%
X114140000Y-66730000D03*
%TO.P,A2,13,~{RESET}*%
%TO.N,Net-(A2-~{RESET})*%
X114140000Y-69270000D03*
%TO.P,A2,14,~{SLEEP}*%
X114140000Y-71810000D03*
%TO.P,A2,15,STEP*%
%TO.N,D8*%
X114140000Y-74350000D03*
%TO.P,A2,16,DIR*%
%TO.N,D9*%
X114140000Y-76890000D03*
%TD*%
D17*
%TO.P,S2,1*%
%TO.N,unconnected-(S2-Pad1)*%
X103020000Y-93500000D03*
D18*
%TO.P,S2,2*%
%TO.N,unconnected-(S2-Pad2)*%
X96520000Y-93500000D03*
%TO.P,S2,3*%
%TO.N,D11*%
X103020000Y-89000000D03*
%TO.P,S2,4*%
%TO.N,GND*%
X96520000Y-89000000D03*
%TD*%
D13*
%TO.P,J3,1*%
%TO.N,D7*%
X125000000Y-87000000D03*
%TO.P,J3,2*%
%TO.N,D6*%
X127540000Y-87000000D03*
%TO.P,J3,3*%
%TO.N,+5V*%
X130080000Y-87000000D03*
%TO.P,J3,4*%
%TO.N,GND*%
X132620000Y-87000000D03*
%TD*%
D17*
%TO.P,S1,1*%
%TO.N,unconnected-(S1-Pad1)*%
X112750000Y-92250000D03*
D18*
%TO.P,S1,2*%
%TO.N,unconnected-(S1-Pad2)*%
X112750000Y-85750000D03*
%TO.P,S1,3*%
%TO.N,D10*%
X117250000Y-92250000D03*
%TO.P,S1,4*%
%TO.N,GND*%
X117250000Y-85750000D03*
%TD*%
D13*
%TO.P,J4,1*%
%TO.N,D4*%
X139735000Y-86500000D03*
%TO.P,J4,2*%
%TO.N,D3*%
X142275000Y-86500000D03*
%TD*%
D16*
%TO.P,C2,1*%
%TO.N,+12V*%
X104044888Y-61000000D03*
D14*
%TO.P,C2,2*%
%TO.N,Net-(A1-VMOT)*%
X107544888Y-61000000D03*
%TD*%
D16*
%TO.P,A3,1,NC*%
%TO.N,unconnected-(A3-NC-Pad1)*%
X109280000Y-51740000D03*
D15*
%TO.P,A3,2,IOREF*%
%TO.N,unconnected-(A3-IOREF-Pad2)*%
X111820000Y-51740000D03*
%TO.P,A3,3,~{RESET}*%
%TO.N,unconnected-(A3-~{RESET}-Pad3)*%
X114360000Y-51740000D03*
%TO.P,A3,4,3V3*%
%TO.N,unconnected-(A3-3V3-Pad4)*%
X116900000Y-51740000D03*
%TO.P,A3,5,+5V*%
%TO.N,+5V*%
X119440000Y-51740000D03*
%TO.P,A3,6,GND*%
%TO.N,GND*%
X121980000Y-51740000D03*
%TO.P,A3,7,GND*%
X124520000Y-51740000D03*
%TO.P,A3,8,VIN*%
%TO.N,+12V*%
X127060000Y-51740000D03*
%TO.P,A3,9,A0*%
%TO.N,unconnected-(A3-A0-Pad9)*%
X132140000Y-51740000D03*
%TO.P,A3,10,A1*%
%TO.N,unconnected-(A3-A1-Pad10)*%
X134680000Y-51740000D03*
%TO.P,A3,11,A2*%
%TO.N,unconnected-(A3-A2-Pad11)*%
X137220000Y-51740000D03*
%TO.P,A3,12,A3*%
%TO.N,unconnected-(A3-A3-Pad12)*%
X139760000Y-51740000D03*
%TO.P,A3,13,SDA/A4*%
%TO.N,unconnected-(A3-SDA{slash}A4-Pad13)*%
X142300000Y-51740000D03*
%TO.P,A3,14,SCL/A5*%
%TO.N,unconnected-(A3-SCL{slash}A5-Pad14)*%
X144840000Y-51740000D03*
%TO.P,A3,15,D0/RX*%
%TO.N,unconnected-(A3-D0{slash}RX-Pad15)*%
X144840000Y-100000000D03*
%TO.P,A3,16,D1/TX*%
%TO.N,unconnected-(A3-D1{slash}TX-Pad16)*%
X142300000Y-100000000D03*
%TO.P,A3,17,D2*%
%TO.N,D2*%
X139760000Y-100000000D03*
%TO.P,A3,18,D3*%
%TO.N,D3*%
X137220000Y-100000000D03*
%TO.P,A3,19,D4*%
%TO.N,D4*%
X134680000Y-100000000D03*
%TO.P,A3,20,D5*%
%TO.N,D5*%
X132140000Y-100000000D03*
%TO.P,A3,21,D6*%
%TO.N,D6*%
X129600000Y-100000000D03*
%TO.P,A3,22,D7*%
%TO.N,D7*%
X127060000Y-100000000D03*
%TO.P,A3,23,D8*%
%TO.N,D8*%
X123000000Y-100000000D03*
%TO.P,A3,24,D9*%
%TO.N,D9*%
X120460000Y-100000000D03*
%TO.P,A3,25,D10*%
%TO.N,D10*%
X117920000Y-100000000D03*
%TO.P,A3,26,D11*%
%TO.N,D11*%
X115380000Y-100000000D03*
%TO.P,A3,27,D12*%
%TO.N,D12*%
X112840000Y-100000000D03*
%TO.P,A3,28,D13*%
%TO.N,D13*%
X110300000Y-100000000D03*
%TO.P,A3,29,GND*%
%TO.N,GND*%
X107760000Y-100000000D03*
%TO.P,A3,30,AREF*%
%TO.N,unconnected-(A3-AREF-Pad30)*%
X105220000Y-100000000D03*
%TD*%
D16*
%TO.P,C1,1*%
%TO.N,+12V*%
X133500000Y-56500000D03*
D14*
%TO.P,C1,2*%
%TO.N,Net-(A2-VMOT)*%
X133500000Y-60000000D03*
%TD*%
D19*
%TO.N,+5V*%
X127300000Y-74350000D02*
X126840000Y-74350000D01*
%TD*%
%TA.AperFunction,Conductor*%
%TO.N,GND*%
G36*
X124054075Y-51547007D02*
G01*
X124020000Y-51674174D01*
X124020000Y-51805826D01*
X124054075Y-51932993D01*
X124086988Y-51990000D01*
X122413012Y-51990000D01*
X122445925Y-51932993D01*
X122480000Y-51805826D01*
X122480000Y-51674174D01*
X122445925Y-51547007D01*
X122413012Y-51490000D01*
X124086988Y-51490000D01*
X124054075Y-51547007D01*
G37*
%TD.AperFunction*%
%TA.AperFunction,Conductor*%
G36*
X147442539Y-48520185D02*
G01*
X147488294Y-48572989D01*
X147499500Y-48624500D01*
X147499500Y-50934108D01*
X147499500Y-51065892D01*
X147505295Y-51087518D01*
X147533608Y-51193187D01*
X147547621Y-51217457D01*
X147599500Y-51307314D01*
X147599502Y-51307316D01*
X150463181Y-54170995D01*
X150496666Y-54232318D01*
X150499500Y-54258676D01*
X150499500Y-86791832D01*
X150479815Y-86858871D01*
X150474700Y-86866232D01*
X147626228Y-90664194D01*
X147614713Y-90677471D01*
X147599500Y-90692684D01*
X147585288Y-90717299D01*
X147577107Y-90729689D01*
X147560065Y-90752413D01*
X147560063Y-90752415D01*
X147552050Y-90772378D01*
X147544367Y-90788176D01*
X147533610Y-90806809D01*
X147533606Y-90806818D01*
X147526254Y-90834256D01*
X147521557Y-90848346D01*
X147510975Y-90874710D01*
X147510973Y-90874718D01*
X147508400Y-90896075D01*
X147505067Y-90913328D01*
X147499500Y-90934104D01*
X147499500Y-90962514D01*
X147498610Y-90977345D01*
X147495212Y-91005549D01*
X147498254Y-91026844D01*
X147499500Y-91044380D01*
X147499500Y-100741324D01*
X147479815Y-100808363D01*
X147463181Y-100829005D01*
X145829005Y-102463181D01*
X145767682Y-102496666D01*
X145741324Y-102499500D01*
X81624500Y-102499500D01*
X81557461Y-102479815D01*
X81511706Y-102427011D01*
X81500500Y-102375500D01*
X81500500Y-99999998D01*
X103914532Y-99999998D01*
X103914532Y-100000001D01*
X103934364Y-100226686D01*
X103934366Y-100226697D01*
X103993258Y-100446488D01*
X103993261Y-100446497D01*
X104089431Y-100652732D01*
X104089432Y-100652734D01*
X104219954Y-100839141D01*
X104380858Y-101000045D01*
X104380861Y-101000047D01*
X104567266Y-101130568D01*
X104773504Y-101226739D01*
X104993308Y-101285635D01*
X105155230Y-101299801D01*
X105219998Y-101305468D01*
X105220000Y-101305468D01*
X105220002Y-101305468D01*
X105276673Y-101300509D01*
X105446692Y-101285635D01*
X105666496Y-101226739D01*
X105872734Y-101130568D01*
X106059139Y-101000047D01*
X106220047Y-100839139D01*
X106350568Y-100652734D01*
X106377895Y-100594129D01*
X106424064Y-100541695D01*
X106491257Y-100522542D01*
X106558139Y-100542757D01*
X106602657Y-100594133D01*
X106629865Y-100652482D01*
X106760342Y-100838820D01*
X106921179Y-100999657D01*
X107107517Y-101130134D01*
X107313673Y-101226265D01*
X107313682Y-101226269D01*
X107509999Y-101278872D01*
X107510000Y-101278871D01*
X107510000Y-100433012D01*
X107567007Y-100465925D01*
X107694174Y-100500000D01*
X107825826Y-100500000D01*
X107952993Y-100465925D01*
X108010000Y-100433012D01*
X108010000Y-101278872D01*
X108206317Y-101226269D01*
X108206326Y-101226265D01*
X108412482Y-101130134D01*
X108598820Y-100999657D01*
X108759657Y-100838820D01*
X108890132Y-100652484D01*
X108917341Y-100594134D01*
X108963513Y-100541695D01*
X109030707Y-100522542D01*
X109097588Y-100542757D01*
X109142106Y-100594133D01*
X109169431Y-100652732D01*
X109169432Y-100652734D01*
X109299954Y-100839141D01*
X109460858Y-101000045D01*
X109460861Y-101000047D01*
X109647266Y-101130568D01*
X109853504Y-101226739D01*
X110073308Y-101285635D01*
X110235230Y-101299801D01*
X110299998Y-101305468D01*
X110300000Y-101305468D01*
X110300002Y-101305468D01*
X110356673Y-101300509D01*
X110526692Y-101285635D01*
X110746496Y-101226739D01*
X110952734Y-101130568D01*
X111139139Y-101000047D01*
X111300047Y-100839139D01*
X111430568Y-100652734D01*
X111457618Y-100594724D01*
X111503790Y-100542285D01*
X111570983Y-100523133D01*
X111637865Y-100543348D01*
X111682382Y-100594725D01*
X111709429Y-100652728D01*
X111709432Y-100652734D01*
X111839954Y-100839141D01*
X112000858Y-101000045D01*
X112000861Y-101000047D01*
X112187266Y-101130568D01*
X112393504Y-101226739D01*
X112613308Y-101285635D01*
X112775230Y-101299801D01*
X112839998Y-101305468D01*
X112840000Y-101305468D01*
X112840002Y-101305468D01*
X112896673Y-101300509D01*
X113066692Y-101285635D01*
X113286496Y-101226739D01*
X113492734Y-101130568D01*
X113679139Y-101000047D01*
X113840047Y-100839139D01*
X113970568Y-100652734D01*
X113997618Y-100594724D01*
X114043790Y-100542285D01*
X114110983Y-100523133D01*
X114177865Y-100543348D01*
X114222382Y-100594725D01*
X114249429Y-100652728D01*
X114249432Y-100652734D01*
X114379954Y-100839141D01*
X114540858Y-101000045D01*
X114540861Y-101000047D01*
X114727266Y-101130568D01*
X114933504Y-101226739D01*
X115153308Y-101285635D01*
X115315230Y-101299801D01*
X115379998Y-101305468D01*
X115380000Y-101305468D01*
X115380002Y-101305468D01*
X115436673Y-101300509D01*
X115606692Y-101285635D01*
X115826496Y-101226739D01*
X116032734Y-101130568D01*
X116219139Y-101000047D01*
X116380047Y-100839139D01*
X116510568Y-100652734D01*
X116537618Y-100594724D01*
X116583790Y-100542285D01*
X116650983Y-100523133D01*
X116717865Y-100543348D01*
X116762382Y-100594725D01*
X116789429Y-100652728D01*
X116789432Y-100652734D01*
X116919954Y-100839141D01*
X117080858Y-101000045D01*
X117080861Y-101000047D01*
X117267266Y-101130568D01*
X117473504Y-101226739D01*
X117693308Y-101285635D01*
X117855230Y-101299801D01*
X117919998Y-101305468D01*
X117920000Y-101305468D01*
X117920002Y-101305468D01*
X117976673Y-101300509D01*
X118146692Y-101285635D01*
X118366496Y-101226739D01*
X118572734Y-101130568D01*
X118759139Y-101000047D01*
X118920047Y-100839139D01*
X119050568Y-100652734D01*
X119077618Y-100594724D01*
X119123790Y-100542285D01*
X119190983Y-100523133D01*
X119257865Y-100543348D01*
X119302382Y-100594725D01*
X119329429Y-100652728D01*
X119329432Y-100652734D01*
X119459954Y-100839141D01*
X119620858Y-101000045D01*
X119620861Y-101000047D01*
X119807266Y-101130568D01*
X120013504Y-101226739D01*
X120233308Y-101285635D01*
X120395230Y-101299801D01*
X120459998Y-101305468D01*
X120460000Y-101305468D01*
X120460002Y-101305468D01*
X120516673Y-101300509D01*
X120686692Y-101285635D01*
X120906496Y-101226739D01*
X121112734Y-101130568D01*
X121299139Y-101000047D01*
X121460047Y-100839139D01*
X121590568Y-100652734D01*
X121617618Y-100594724D01*
X121663790Y-100542285D01*
X121730983Y-100523133D01*
X121797865Y-100543348D01*
X121842382Y-100594725D01*
X121869429Y-100652728D01*
X121869432Y-100652734D01*
X121999954Y-100839141D01*
X122160858Y-101000045D01*
X122160861Y-101000047D01*
X122347266Y-101130568D01*
X122553504Y-101226739D01*
X122773308Y-101285635D01*
X122935230Y-101299801D01*
X122999998Y-101305468D01*
X123000000Y-101305468D01*
X123000002Y-101305468D01*
X123056673Y-101300509D01*
X123226692Y-101285635D01*
X123446496Y-101226739D01*
X123652734Y-101130568D01*
X123839139Y-101000047D01*
X124000047Y-100839139D01*
X124130568Y-100652734D01*
X124226739Y-100446496D01*
X124285635Y-100226692D01*
X124305468Y-100000000D01*
X124305468Y-99999998D01*
X125754532Y-99999998D01*
X125754532Y-100000001D01*
X125774364Y-100226686D01*
X125774366Y-100226697D01*
X125833258Y-100446488D01*
X125833261Y-100446497D01*
X125929431Y-100652732D01*
X125929432Y-100652734D01*
X126059954Y-100839141D01*
X126220858Y-101000045D01*
X126220861Y-101000047D01*
X126407266Y-101130568D01*
X126613504Y-101226739D01*
X126833308Y-101285635D01*
X126995230Y-101299801D01*
X127059998Y-101305468D01*
X127060000Y-101305468D01*
X127060002Y-101305468D01*
X127116673Y-101300509D01*
X127286692Y-101285635D01*
X127506496Y-101226739D01*
X127712734Y-101130568D01*
X127899139Y-101000047D01*
X128060047Y-100839139D01*
X128190568Y-100652734D01*
X128217618Y-100594724D01*
X128263790Y-100542285D01*
X128330983Y-100523133D01*
X128397865Y-100543348D01*
X128442382Y-100594725D01*
X128469429Y-100652728D01*
X128469432Y-100652734D01*
X128599954Y-100839141D01*
X128760858Y-101000045D01*
X128760861Y-101000047D01*
X128947266Y-101130568D01*
X129153504Y-101226739D01*
X129373308Y-101285635D01*
X129535230Y-101299801D01*
X129599998Y-101305468D01*
X129600000Y-101305468D01*
X129600002Y-101305468D01*
X129656673Y-101300509D01*
X129826692Y-101285635D01*
X130046496Y-101226739D01*
X130252734Y-101130568D01*
X130439139Y-101000047D01*
X130600047Y-100839139D01*
X130730568Y-100652734D01*
X130757618Y-100594724D01*
X130803790Y-100542285D01*
X130870983Y-100523133D01*
X130937865Y-100543348D01*
X130982382Y-100594725D01*
X131009429Y-100652728D01*
X131009432Y-100652734D01*
X131139954Y-100839141D01*
X131300858Y-101000045D01*
X131300861Y-101000047D01*
X131487266Y-101130568D01*
X131693504Y-101226739D01*
X131913308Y-101285635D01*
X132075230Y-101299801D01*
X132139998Y-101305468D01*
X132140000Y-101305468D01*
X132140002Y-101305468D01*
X132196673Y-101300509D01*
X132366692Y-101285635D01*
X132586496Y-101226739D01*
X132792734Y-101130568D01*
X132979139Y-101000047D01*
X133140047Y-100839139D01*
X133270568Y-100652734D01*
X133297618Y-100594724D01*
X133343790Y-100542285D01*
X133410983Y-100523133D01*
X133477865Y-100543348D01*
X133522382Y-100594725D01*
X133549429Y-100652728D01*
X133549432Y-100652734D01*
X133679954Y-100839141D01*
X133840858Y-101000045D01*
X133840861Y-101000047D01*
X134027266Y-101130568D01*
X134233504Y-101226739D01*
X134453308Y-101285635D01*
X134615230Y-101299801D01*
X134679998Y-101305468D01*
X134680000Y-101305468D01*
X134680002Y-101305468D01*
X134736673Y-101300509D01*
X134906692Y-101285635D01*
X135126496Y-101226739D01*
X135332734Y-101130568D01*
X135519139Y-101000047D01*
X135680047Y-100839139D01*
X135810568Y-100652734D01*
X135837618Y-100594724D01*
X135883790Y-100542285D01*
X135950983Y-100523133D01*
X136017865Y-100543348D01*
X136062382Y-100594725D01*
X136089429Y-100652728D01*
X136089432Y-100652734D01*
X136219954Y-100839141D01*
X136380858Y-101000045D01*
X136380861Y-101000047D01*
X136567266Y-101130568D01*
X136773504Y-101226739D01*
X136993308Y-101285635D01*
X137155230Y-101299801D01*
X137219998Y-101305468D01*
X137220000Y-101305468D01*
X137220002Y-101305468D01*
X137276673Y-101300509D01*
X137446692Y-101285635D01*
X137666496Y-101226739D01*
X137872734Y-101130568D01*
X138059139Y-101000047D01*
X138220047Y-100839139D01*
X138350568Y-100652734D01*
X138377618Y-100594724D01*
X138423790Y-100542285D01*
X138490983Y-100523133D01*
X138557865Y-100543348D01*
X138602382Y-100594725D01*
X138629429Y-100652728D01*
X138629432Y-100652734D01*
X138759954Y-100839141D01*
X138920858Y-101000045D01*
X138920861Y-101000047D01*
X139107266Y-101130568D01*
X139313504Y-101226739D01*
X139533308Y-101285635D01*
X139695230Y-101299801D01*
X139759998Y-101305468D01*
X139760000Y-101305468D01*
X139760002Y-101305468D01*
X139816673Y-101300509D01*
X139986692Y-101285635D01*
X140206496Y-101226739D01*
X140412734Y-101130568D01*
X140599139Y-101000047D01*
X140760047Y-100839139D01*
X140890568Y-100652734D01*
X140917618Y-100594724D01*
X140963790Y-100542285D01*
X141030983Y-100523133D01*
X141097865Y-100543348D01*
X141142382Y-100594725D01*
X141169429Y-100652728D01*
X141169432Y-100652734D01*
X141299954Y-100839141D01*
X141460858Y-101000045D01*
X141460861Y-101000047D01*
X141647266Y-101130568D01*
X141853504Y-101226739D01*
X142073308Y-101285635D01*
X142235230Y-101299801D01*
X142299998Y-101305468D01*
X142300000Y-101305468D01*
X142300002Y-101305468D01*
X142356673Y-101300509D01*
X142526692Y-101285635D01*
X142746496Y-101226739D01*
X142952734Y-101130568D01*
X143139139Y-101000047D01*
X143300047Y-100839139D01*
X143430568Y-100652734D01*
X143457618Y-100594724D01*
X143503790Y-100542285D01*
X143570983Y-100523133D01*
X143637865Y-100543348D01*
X143682382Y-100594725D01*
X143709429Y-100652728D01*
X143709432Y-100652734D01*
X143839954Y-100839141D01*
X144000858Y-101000045D01*
X144000861Y-101000047D01*
X144187266Y-101130568D01*
X144393504Y-101226739D01*
X144613308Y-101285635D01*
X144775230Y-101299801D01*
X144839998Y-101305468D01*
X144840000Y-101305468D01*
X144840002Y-101305468D01*
X144896673Y-101300509D01*
X145066692Y-101285635D01*
X145286496Y-101226739D01*
X145492734Y-101130568D01*
X145679139Y-101000047D01*
X145840047Y-100839139D01*
X145970568Y-100652734D01*
X146066739Y-100446496D01*
X146125635Y-100226692D01*
X146145468Y-100000000D01*
X146125635Y-99773308D01*
X146066739Y-99553504D01*
X145970568Y-99347266D01*
X145840047Y-99160861D01*
X145840045Y-99160858D01*
X145679141Y-98999954D01*
X145492734Y-98869432D01*
X145492732Y-98869431D01*
X145286497Y-98773261D01*
X145286488Y-98773258D01*
X145066697Y-98714366D01*
X145066693Y-98714365D01*
X145066692Y-98714365D01*
X145066691Y-98714364D01*
X145066686Y-98714364D01*
X144840002Y-98694532D01*
X144839998Y-98694532D01*
X144613313Y-98714364D01*
X144613302Y-98714366D01*
X144393511Y-98773258D01*
X144393502Y-98773261D01*
X144187267Y-98869431D01*
X144187265Y-98869432D01*
X144000858Y-98999954D01*
X143839954Y-99160858D01*
X143709432Y-99347265D01*
X143709431Y-99347267D01*
X143682382Y-99405275D01*
X143636209Y-99457714D01*
X143569016Y-99476866D01*
X143502135Y-99456650D01*
X143457618Y-99405275D01*
X143430686Y-99347520D01*
X143430568Y-99347266D01*
X143300047Y-99160861D01*
X143300045Y-99160858D01*
X143139141Y-98999954D01*
X142952734Y-98869432D01*
X142952732Y-98869431D01*
X142746497Y-98773261D01*
X142746488Y-98773258D01*
X142526697Y-98714366D01*
X142526693Y-98714365D01*
X142526692Y-98714365D01*
X142526691Y-98714364D01*
X142526686Y-98714364D01*
X142300002Y-98694532D01*
X142299998Y-98694532D01*
X142073313Y-98714364D01*
X142073302Y-98714366D01*
X141853511Y-98773258D01*
X141853502Y-98773261D01*
X141647267Y-98869431D01*
X141647265Y-98869432D01*
X141460858Y-98999954D01*
X141299954Y-99160858D01*
X141169432Y-99347265D01*
X141169431Y-99347267D01*
X141142382Y-99405275D01*
X141096209Y-99457714D01*
X141029016Y-99476866D01*
X140962135Y-99456650D01*
X140917618Y-99405275D01*
X140890686Y-99347520D01*
X140890568Y-99347266D01*
X140760047Y-99160861D01*
X140760045Y-99160858D01*
X140599141Y-98999954D01*
X140412734Y-98869432D01*
X140412732Y-98869431D01*
X140206497Y-98773261D01*
X140206488Y-98773258D01*
X139986697Y-98714366D01*
X139986693Y-98714365D01*
X139986692Y-98714365D01*
X139986691Y-98714364D01*
X139986686Y-98714364D01*
X139760002Y-98694532D01*
X139759998Y-98694532D01*
X139533313Y-98714364D01*
X139533302Y-98714366D01*
X139313511Y-98773258D01*
X139313502Y-98773261D01*
X139107267Y-98869431D01*
X139107265Y-98869432D01*
X138920858Y-98999954D01*
X138759954Y-99160858D01*
X138629432Y-99347265D01*
X138629431Y-99347267D01*
X138602382Y-99405275D01*
X138556209Y-99457714D01*
X138489016Y-99476866D01*
X138422135Y-99456650D01*
X138377618Y-99405275D01*
X138350686Y-99347520D01*
X138350568Y-99347266D01*
X138220047Y-99160861D01*
X138220045Y-99160858D01*
X138059141Y-98999954D01*
X137872734Y-98869432D01*
X137872732Y-98869431D01*
X137666497Y-98773261D01*
X137666488Y-98773258D01*
X137446697Y-98714366D01*
X137446693Y-98714365D01*
X137446692Y-98714365D01*
X137446691Y-98714364D01*
X137446686Y-98714364D01*
X137220002Y-98694532D01*
X137219998Y-98694532D01*
X136993313Y-98714364D01*
X136993302Y-98714366D01*
X136773511Y-98773258D01*
X136773502Y-98773261D01*
X136567267Y-98869431D01*
X136567265Y-98869432D01*
X136380858Y-98999954D01*
X136219954Y-99160858D01*
X136089432Y-99347265D01*
X136089431Y-99347267D01*
X136062382Y-99405275D01*
X136016209Y-99457714D01*
X135949016Y-99476866D01*
X135882135Y-99456650D01*
X135837618Y-99405275D01*
X135810686Y-99347520D01*
X135810568Y-99347266D01*
X135680047Y-99160861D01*
X135680045Y-99160858D01*
X135519141Y-98999954D01*
X135332734Y-98869432D01*
X135332732Y-98869431D01*
X135126497Y-98773261D01*
X135126488Y-98773258D01*
X134906697Y-98714366D01*
X134906693Y-98714365D01*
X134906692Y-98714365D01*
X134906691Y-98714364D01*
X134906686Y-98714364D01*
X134680002Y-98694532D01*
X134679998Y-98694532D01*
X134453313Y-98714364D01*
X134453302Y-98714366D01*
X134233511Y-98773258D01*
X134233502Y-98773261D01*
X134027267Y-98869431D01*
X134027265Y-98869432D01*
X133840858Y-98999954D01*
X133679954Y-99160858D01*
X133549432Y-99347265D01*
X133549431Y-99347267D01*
X133522382Y-99405275D01*
X133476209Y-99457714D01*
X133409016Y-99476866D01*
X133342135Y-99456650D01*
X133297618Y-99405275D01*
X133270686Y-99347520D01*
X133270568Y-99347266D01*
X133140047Y-99160861D01*
X133140045Y-99160858D01*
X132979141Y-98999954D01*
X132792734Y-98869432D01*
X132792732Y-98869431D01*
X132586497Y-98773261D01*
X132586488Y-98773258D01*
X132366697Y-98714366D01*
X132366693Y-98714365D01*
X132366692Y-98714365D01*
X132366691Y-98714364D01*
X132366686Y-98714364D01*
X132140002Y-98694532D01*
X132139998Y-98694532D01*
X131913313Y-98714364D01*
X131913302Y-98714366D01*
X131693511Y-98773258D01*
X131693502Y-98773261D01*
X131487267Y-98869431D01*
X131487265Y-98869432D01*
X131300858Y-98999954D01*
X131139954Y-99160858D01*
X131009432Y-99347265D01*
X131009431Y-99347267D01*
X130982382Y-99405275D01*
X130936209Y-99457714D01*
X130869016Y-99476866D01*
X130802135Y-99456650D01*
X130757618Y-99405275D01*
X130730686Y-99347520D01*
X130730568Y-99347266D01*
X130600047Y-99160861D01*
X130600045Y-99160858D01*
X130439141Y-98999954D01*
X130252734Y-98869432D01*
X130252732Y-98869431D01*
X130046497Y-98773261D01*
X130046488Y-98773258D01*
X129826697Y-98714366D01*
X129826693Y-98714365D01*
X129826692Y-98714365D01*
X129826691Y-98714364D01*
X129826686Y-98714364D01*
X129600002Y-98694532D01*
X129599998Y-98694532D01*
X129373313Y-98714364D01*
X129373302Y-98714366D01*
X129153511Y-98773258D01*
X129153502Y-98773261D01*
X128947267Y-98869431D01*
X128947265Y-98869432D01*
X128760858Y-98999954D01*
X128599954Y-99160858D01*
X128469432Y-99347265D01*
X128469431Y-99347267D01*
X128442382Y-99405275D01*
X128396209Y-99457714D01*
X128329016Y-99476866D01*
X128262135Y-99456650D01*
X128217618Y-99405275D01*
X128190686Y-99347520D01*
X128190568Y-99347266D01*
X128060047Y-99160861D01*
X128060045Y-99160858D01*
X127899141Y-98999954D01*
X127712734Y-98869432D01*
X127712732Y-98869431D01*
X127506497Y-98773261D01*
X127506488Y-98773258D01*
X127286697Y-98714366D01*
X127286693Y-98714365D01*
X127286692Y-98714365D01*
X127286691Y-98714364D01*
X127286686Y-98714364D01*
X127060002Y-98694532D01*
X127059998Y-98694532D01*
X126833313Y-98714364D01*
X126833302Y-98714366D01*
X126613511Y-98773258D01*
X126613502Y-98773261D01*
X126407267Y-98869431D01*
X126407265Y-98869432D01*
X126220858Y-98999954D01*
X126059954Y-99160858D01*
X125929432Y-99347265D01*
X125929431Y-99347267D01*
X125833261Y-99553502D01*
X125833258Y-99553511D01*
X125774366Y-99773302D01*
X125774364Y-99773313D01*
X125754532Y-99999998D01*
X124305468Y-99999998D01*
X124285635Y-99773308D01*
X124226739Y-99553504D01*
X124130568Y-99347266D01*
X124000047Y-99160861D01*
X124000045Y-99160858D01*
X123839141Y-98999954D01*
X123652734Y-98869432D01*
X123652732Y-98869431D01*
X123446497Y-98773261D01*
X123446488Y-98773258D01*
X123226697Y-98714366D01*
X123226693Y-98714365D01*
X123226692Y-98714365D01*
X123226691Y-98714364D01*
X123226686Y-98714364D01*
X123000002Y-98694532D01*
X122999998Y-98694532D01*
X122773313Y-98714364D01*
X122773302Y-98714366D01*
X122553511Y-98773258D01*
X122553502Y-98773261D01*
X122347267Y-98869431D01*
X122347265Y-98869432D01*
X122160858Y-98999954D01*
X121999954Y-99160858D01*
X121869432Y-99347265D01*
X121869431Y-99347267D01*
X121842382Y-99405275D01*
X121796209Y-99457714D01*
X121729016Y-99476866D01*
X121662135Y-99456650D01*
X121617618Y-99405275D01*
X121590686Y-99347520D01*
X121590568Y-99347266D01*
X121460047Y-99160861D01*
X121460045Y-99160858D01*
X121299141Y-98999954D01*
X121112734Y-98869432D01*
X121112732Y-98869431D01*
X120906497Y-98773261D01*
X120906488Y-98773258D01*
X120686697Y-98714366D01*
X120686693Y-98714365D01*
X120686692Y-98714365D01*
X120686691Y-98714364D01*
X120686686Y-98714364D01*
X120460002Y-98694532D01*
X120459998Y-98694532D01*
X120233313Y-98714364D01*
X120233302Y-98714366D01*
X120013511Y-98773258D01*
X120013502Y-98773261D01*
X119807267Y-98869431D01*
X119807265Y-98869432D01*
X119620858Y-98999954D01*
X119459954Y-99160858D01*
X119329432Y-99347265D01*
X119329431Y-99347267D01*
X119302382Y-99405275D01*
X119256209Y-99457714D01*
X119189016Y-99476866D01*
X119122135Y-99456650D01*
X119077618Y-99405275D01*
X119050686Y-99347520D01*
X119050568Y-99347266D01*
X118920047Y-99160861D01*
X118920045Y-99160858D01*
X118759141Y-98999954D01*
X118572734Y-98869432D01*
X118572732Y-98869431D01*
X118366497Y-98773261D01*
X118366488Y-98773258D01*
X118146697Y-98714366D01*
X118146693Y-98714365D01*
X118146692Y-98714365D01*
X118146691Y-98714364D01*
X118146686Y-98714364D01*
X117920002Y-98694532D01*
X117919998Y-98694532D01*
X117693313Y-98714364D01*
X117693302Y-98714366D01*
X117473511Y-98773258D01*
X117473502Y-98773261D01*
X117267267Y-98869431D01*
X117267265Y-98869432D01*
X117080858Y-98999954D01*
X116919954Y-99160858D01*
X116789432Y-99347265D01*
X116789431Y-99347267D01*
X116762382Y-99405275D01*
X116716209Y-99457714D01*
X116649016Y-99476866D01*
X116582135Y-99456650D01*
X116537618Y-99405275D01*
X116510686Y-99347520D01*
X116510568Y-99347266D01*
X116380047Y-99160861D01*
X116380045Y-99160858D01*
X116219141Y-98999954D01*
X116032734Y-98869432D01*
X116032732Y-98869431D01*
X115826497Y-98773261D01*
X115826488Y-98773258D01*
X115606697Y-98714366D01*
X115606693Y-98714365D01*
X115606692Y-98714365D01*
X115606691Y-98714364D01*
X115606686Y-98714364D01*
X115380002Y-98694532D01*
X115379998Y-98694532D01*
X115153313Y-98714364D01*
X115153302Y-98714366D01*
X114933511Y-98773258D01*
X114933502Y-98773261D01*
X114727267Y-98869431D01*
X114727265Y-98869432D01*
X114540858Y-98999954D01*
X114379954Y-99160858D01*
X114249432Y-99347265D01*
X114249431Y-99347267D01*
X114222382Y-99405275D01*
X114176209Y-99457714D01*
X114109016Y-99476866D01*
X114042135Y-99456650D01*
X113997618Y-99405275D01*
X113970686Y-99347520D01*
X113970568Y-99347266D01*
X113840047Y-99160861D01*
X113840045Y-99160858D01*
X113679141Y-98999954D01*
X113492734Y-98869432D01*
X113492732Y-98869431D01*
X113286497Y-98773261D01*
X113286488Y-98773258D01*
X113066697Y-98714366D01*
X113066693Y-98714365D01*
X113066692Y-98714365D01*
X113066691Y-98714364D01*
X113066686Y-98714364D01*
X112840002Y-98694532D01*
X112839998Y-98694532D01*
X112613313Y-98714364D01*
X112613302Y-98714366D01*
X112393511Y-98773258D01*
X112393502Y-98773261D01*
X112187267Y-98869431D01*
X112187265Y-98869432D01*
X112000858Y-98999954D01*
X111839954Y-99160858D01*
X111709432Y-99347265D01*
X111709431Y-99347267D01*
X111682382Y-99405275D01*
X111636209Y-99457714D01*
X111569016Y-99476866D01*
X111502135Y-99456650D01*
X111457618Y-99405275D01*
X111430686Y-99347520D01*
X111430568Y-99347266D01*
X111300047Y-99160861D01*
X111300045Y-99160858D01*
X111139141Y-98999954D01*
X110952734Y-98869432D01*
X110952732Y-98869431D01*
X110746497Y-98773261D01*
X110746488Y-98773258D01*
X110526697Y-98714366D01*
X110526693Y-98714365D01*
X110526692Y-98714365D01*
X110526691Y-98714364D01*
X110526686Y-98714364D01*
X110300002Y-98694532D01*
X110299998Y-98694532D01*
X110073313Y-98714364D01*
X110073302Y-98714366D01*
X109853511Y-98773258D01*
X109853502Y-98773261D01*
X109647267Y-98869431D01*
X109647265Y-98869432D01*
X109460858Y-98999954D01*
X109299954Y-99160858D01*
X109169433Y-99347264D01*
X109169432Y-99347266D01*
X109169315Y-99347518D01*
X109142106Y-99405867D01*
X109095933Y-99458306D01*
X109028739Y-99477457D01*
X108961858Y-99457241D01*
X108917342Y-99405865D01*
X108890135Y-99347520D01*
X108890134Y-99347518D01*
X108759657Y-99161179D01*
X108598820Y-99000342D01*
X108412482Y-98869865D01*
X108206328Y-98773734D01*
X108010000Y-98721127D01*
X108010000Y-99566988D01*
X107952993Y-99534075D01*
X107825826Y-99500000D01*
X107694174Y-99500000D01*
X107567007Y-99534075D01*
X107510000Y-99566988D01*
X107510000Y-98721127D01*
X107313671Y-98773734D01*
X107107517Y-98869865D01*
X106921179Y-99000342D01*
X106760342Y-99161179D01*
X106629867Y-99347515D01*
X106602657Y-99405867D01*
X106556484Y-99458306D01*
X106489290Y-99477457D01*
X106422409Y-99457241D01*
X106377893Y-99405865D01*
X106350685Y-99347518D01*
X106350568Y-99347266D01*
X106220047Y-99160861D01*
X106220045Y-99160858D01*
X106059141Y-98999954D01*
X105872734Y-98869432D01*
X105872732Y-98869431D01*
X105666497Y-98773261D01*
X105666488Y-98773258D01*
X105446697Y-98714366D01*
X105446693Y-98714365D01*
X105446692Y-98714365D01*
X105446691Y-98714364D01*
X105446686Y-98714364D01*
X105220002Y-98694532D01*
X105219998Y-98694532D01*
X104993313Y-98714364D01*
X104993302Y-98714366D01*
X104773511Y-98773258D01*
X104773502Y-98773261D01*
X104567267Y-98869431D01*
X104567265Y-98869432D01*
X104380858Y-98999954D01*
X104219954Y-99160858D01*
X104089432Y-99347265D01*
X104089431Y-99347267D01*
X103993261Y-99553502D01*
X103993258Y-99553511D01*
X103934366Y-99773302D01*
X103934364Y-99773313D01*
X103914532Y-99999998D01*
X81500500Y-99999998D01*
X81500500Y-93500000D01*
X94914551Y-93500000D01*
X94934317Y-93751151D01*
X94993126Y-93996110D01*
X95089533Y-94228859D01*
X95221160Y-94443653D01*
X95221161Y-94443656D01*
X95221164Y-94443659D01*
X95384776Y-94635224D01*
X95533066Y-94761875D01*
X95576343Y-94798838D01*
X95576346Y-94798839D01*
X95791140Y-94930466D01*
X96023889Y-95026873D01*
X96268852Y-95085683D01*
X96520000Y-95105449D01*
X96771148Y-95085683D01*
X97016111Y-95026873D01*
X97248859Y-94930466D01*
X97463659Y-94798836D01*
X97655224Y-94635224D01*
X97818836Y-94443659D01*
X97950466Y-94228859D01*
X98046873Y-93996111D01*
X98105683Y-93751148D01*
X98125449Y-93500000D01*
X98105683Y-93248852D01*
X98046873Y-93003889D01*
X97950466Y-92771141D01*
X97950466Y-92771140D01*
X97818839Y-92556346D01*
X97818838Y-92556343D01*
X97771697Y-92501148D01*
X97655224Y-92364776D01*
X97640423Y-92352135D01*
X101419500Y-92352135D01*
X101419500Y-94647870D01*
X101419501Y-94647876D01*
X101425908Y-94707483D01*
X101476202Y-94842328D01*
X101476206Y-94842335D01*
X101562452Y-94957544D01*
X101562455Y-94957547D01*
X101677664Y-95043793D01*
X101677671Y-95043797D01*
X101812517Y-95094091D01*
X101812516Y-95094091D01*
X101819444Y-95094835D01*
X101872127Y-95100500D01*
X104167872Y-95100499D01*
X104227483Y-95094091D01*
X104362331Y-95043796D01*
X104477546Y-94957546D01*
X104563796Y-94842331D01*
X104614091Y-94707483D01*
X104620500Y-94647873D01*
X104620499Y-92352128D01*
X104614091Y-92292517D01*
X104598233Y-92250000D01*
X104563797Y-92157671D01*
X104563793Y-92157664D01*
X104477547Y-92042455D01*
X104477544Y-92042452D01*
X104362335Y-91956206D01*
X104362328Y-91956202D01*
X104227482Y-91905908D01*
X104227483Y-91905908D01*
X104167883Y-91899501D01*
X104167881Y-91899500D01*
X104167873Y-91899500D01*
X104167864Y-91899500D01*
X101872129Y-91899500D01*
X101872123Y-91899501D01*
X101812516Y-91905908D01*
X101677671Y-91956202D01*
X101677664Y-91956206D01*
X101562455Y-92042452D01*
X101562452Y-92042455D01*
X101476206Y-92157664D01*
X101476202Y-92157671D01*
X101425908Y-92292517D01*
X101419501Y-92352116D01*
X101419501Y-92352123D01*
X101419500Y-92352135D01*
X97640423Y-92352135D01*
X97520839Y-92250000D01*
X97463656Y-92201161D01*
X97463653Y-92201160D01*
X97248859Y-92069533D01*
X97016110Y-91973126D01*
X96771151Y-91914317D01*
X96520000Y-91894551D01*
X96268848Y-91914317D01*
X96023889Y-91973126D01*
X95791140Y-92069533D01*
X95576346Y-92201160D01*
X95576343Y-92201161D01*
X95384776Y-92364776D01*
X95221161Y-92556343D01*
X95221160Y-92556346D01*
X95089533Y-92771140D01*
X94993126Y-93003889D01*
X94934317Y-93248848D01*
X94914551Y-93500000D01*
X81500500Y-93500000D01*
X81500500Y-91102135D01*
X111149500Y-91102135D01*
X111149500Y-93397870D01*
X111149501Y-93397876D01*
X111155908Y-93457483D01*
X111206202Y-93592328D01*
X111206206Y-93592335D01*
X111292452Y-93707544D01*
X111292455Y-93707547D01*
X111407664Y-93793793D01*
X111407671Y-93793797D01*
X111542517Y-93844091D01*
X111542516Y-93844091D01*
X111549444Y-93844835D01*
X111602127Y-93850500D01*
X113897872Y-93850499D01*
X113957483Y-93844091D01*
X114092331Y-93793796D01*
X114207546Y-93707546D01*
X114293796Y-93592331D01*
X114344091Y-93457483D01*
X114350500Y-93397873D01*
X114350499Y-92250000D01*
X115644551Y-92250000D01*
X115664317Y-92501151D01*
X115723126Y-92746110D01*
X115819533Y-92978859D01*
X115951160Y-93193653D01*
X115951161Y-93193656D01*
X115951164Y-93193659D01*
X116114776Y-93385224D01*
X116263066Y-93511875D01*
X116306343Y-93548838D01*
X116306346Y-93548839D01*
X116521140Y-93680466D01*
X116691783Y-93751148D01*
X116753889Y-93776873D01*
X116998852Y-93835683D01*
X117250000Y-93855449D01*
X117501148Y-93835683D01*
X117746111Y-93776873D01*
X117978859Y-93680466D01*
X118193659Y-93548836D01*
X118385224Y-93385224D01*
X118548836Y-93193659D01*
X118680466Y-92978859D01*
X118776873Y-92746111D01*
X118835683Y-92501148D01*
X118855449Y-92250000D01*
X118835683Y-91998852D01*
X118776873Y-91753889D01*
X118680466Y-91521141D01*
X118680466Y-91521140D01*
X118548839Y-91306346D01*
X118548838Y-91306343D01*
X118511875Y-91263066D01*
X118385224Y-91114776D01*
X118215665Y-90969959D01*
X118193656Y-90951161D01*
X118193653Y-90951160D01*
X117978859Y-90819533D01*
X117746110Y-90723126D01*
X117501151Y-90664317D01*
X117250000Y-90644551D01*
X116998848Y-90664317D01*
X116753889Y-90723126D01*
X116521140Y-90819533D01*
X116306346Y-90951160D01*
X116306343Y-90951161D01*
X116114776Y-91114776D01*
X115951161Y-91306343D01*
X115951160Y-91306346D01*
X115819533Y-91521140D01*
X115723126Y-91753889D01*
X115664317Y-91998848D01*
X115644551Y-92250000D01*
X114350499Y-92250000D01*
X114350499Y-91102128D01*
X114344091Y-91042517D01*
X114338245Y-91026844D01*
X114293797Y-90907671D01*
X114293793Y-90907664D01*
X114207547Y-90792455D01*
X114207544Y-90792452D01*
X114092335Y-90706206D01*
X114092328Y-90706202D01*
X113957482Y-90655908D01*
X113957483Y-90655908D01*
X113897883Y-90649501D01*
X113897881Y-90649500D01*
X113897873Y-90649500D01*
X113897864Y-90649500D01*
X111602129Y-90649500D01*
X111602123Y-90649501D01*
X111542516Y-90655908D01*
X111407671Y-90706202D01*
X111407664Y-90706206D01*
X111292455Y-90792452D01*
X111292452Y-90792455D01*
X111206206Y-90907664D01*
X111206202Y-90907671D01*
X111155908Y-91042517D01*
X111149501Y-91102116D01*
X111149501Y-91102123D01*
X111149500Y-91102135D01*
X81500500Y-91102135D01*
X81500500Y-89000000D01*
X94915052Y-89000000D01*
X94934812Y-89251072D01*
X94993603Y-89495956D01*
X95089980Y-89728631D01*
X95221568Y-89943362D01*
X95222266Y-89944179D01*
X95955387Y-89211059D01*
X95960889Y-89231591D01*
X96039881Y-89368408D01*
X96151592Y-89480119D01*
X96288409Y-89559111D01*
X96308940Y-89564612D01*
X95575819Y-90297732D01*
X95575819Y-90297733D01*
X95576634Y-90298429D01*
X95791368Y-90430019D01*
X96024043Y-90526396D01*
X96268927Y-90585187D01*
X96520000Y-90604947D01*
X96771072Y-90585187D01*
X97015956Y-90526396D01*
X97248631Y-90430019D01*
X97463361Y-90298432D01*
X97463363Y-90298430D01*
X97464180Y-90297732D01*
X96731059Y-89564612D01*
X96751591Y-89559111D01*
X96888408Y-89480119D01*
X97000119Y-89368408D01*
X97079111Y-89231591D01*
X97084612Y-89211060D01*
X97817732Y-89944180D01*
X97818430Y-89943363D01*
X97818432Y-89943361D01*
X97950019Y-89728631D01*
X98046396Y-89495956D01*
X98105187Y-89251072D01*
X98124947Y-89000000D01*
X101414551Y-89000000D01*
X101434317Y-89251151D01*
X101493126Y-89496110D01*
X101589533Y-89728859D01*
X101721160Y-89943653D01*
X101721161Y-89943656D01*
X101721164Y-89943659D01*
X101884776Y-90135224D01*
X102033066Y-90261875D01*
X102076343Y-90298838D01*
X102076346Y-90298839D01*
X102291140Y-90430466D01*
X102522737Y-90526396D01*
X102523889Y-90526873D01*
X102768852Y-90585683D01*
X103020000Y-90605449D01*
X103271148Y-90585683D01*
X103516111Y-90526873D01*
X103748859Y-90430466D01*
X103963659Y-90298836D01*
X104155224Y-90135224D01*
X104318836Y-89943659D01*
X104450466Y-89728859D01*
X104546873Y-89496111D01*
X104605683Y-89251148D01*
X104625449Y-89000000D01*
X104605683Y-88748852D01*
X104546873Y-88503889D01*
X104482957Y-88349582D01*
X104450466Y-88271140D01*
X104319017Y-88056637D01*
X104318838Y-88056345D01*
X104318838Y-88056343D01*
X104267741Y-87996517D01*
X104155224Y-87864776D01*
X103992501Y-87725797D01*
X103963656Y-87701161D01*
X103963653Y-87701160D01*
X103748859Y-87569533D01*
X103516110Y-87473126D01*
X103271151Y-87414317D01*
X103020000Y-87394551D01*
X102768848Y-87414317D01*
X102523889Y-87473126D01*
X102291140Y-87569533D01*
X102076346Y-87701160D01*
X102076343Y-87701161D01*
X101884776Y-87864776D01*
X101721161Y-88056343D01*
X101721160Y-88056346D01*
X101589533Y-88271140D01*
X101493126Y-88503889D01*
X101434317Y-88748848D01*
X101414551Y-89000000D01*
X98124947Y-89000000D01*
X98105187Y-88748927D01*
X98046396Y-88504043D01*
X97950019Y-88271368D01*
X97818429Y-88056634D01*
X97817733Y-88055819D01*
X97817732Y-88055819D01*
X97084612Y-88788939D01*
X97079111Y-88768409D01*
X97000119Y-88631592D01*
X96888408Y-88519881D01*
X96751591Y-88440889D01*
X96731059Y-88435387D01*
X97464179Y-87702266D01*
X97463362Y-87701568D01*
X97248631Y-87569980D01*
X97015956Y-87473603D01*
X96771072Y-87414812D01*
X96520000Y-87395052D01*
X96268927Y-87414812D01*
X96024043Y-87473603D01*
X95791368Y-87569980D01*
X95576637Y-87701567D01*
X95575819Y-87702266D01*
X96308940Y-88435387D01*
X96288409Y-88440889D01*
X96151592Y-88519881D01*
X96039881Y-88631592D01*
X95960889Y-88768409D01*
X95955387Y-88788940D01*
X95222266Y-88055819D01*
X95221567Y-88056637D01*
X95089980Y-88271368D01*
X94993603Y-88504043D01*
X94934812Y-88748927D01*
X94915052Y-89000000D01*
X81500500Y-89000000D01*
X81500500Y-85750000D01*
X111144551Y-85750000D01*
X111164317Y-86001151D01*
X111223126Y-86246110D01*
X111319533Y-86478859D01*
X111451160Y-86693653D01*
X111451161Y-86693656D01*
X111451164Y-86693659D01*
X111614776Y-86885224D01*
X111763066Y-87011875D01*
X111806343Y-87048838D01*
X111806346Y-87048839D01*
X112021140Y-87180466D01*
X112252414Y-87276262D01*
X112253889Y-87276873D01*
X112498852Y-87335683D01*
X112750000Y-87355449D01*
X113001148Y-87335683D01*
X113246111Y-87276873D01*
X113478859Y-87180466D01*
X113693659Y-87048836D01*
X113885224Y-86885224D01*
X114048836Y-86693659D01*
X114180466Y-86478859D01*
X114276873Y-86246111D01*
X114335683Y-86001148D01*
X114355449Y-85750000D01*
X115645052Y-85750000D01*
X115664812Y-86001072D01*
X115723603Y-86245956D01*
X115819980Y-86478631D01*
X115951568Y-86693362D01*
X115952266Y-86694179D01*
X116685387Y-85961059D01*
X116690889Y-85981591D01*
X116769881Y-86118408D01*
X116881592Y-86230119D01*
X117018409Y-86309111D01*
X117038940Y-86314612D01*
X116305819Y-87047732D01*
X116305819Y-87047733D01*
X116306634Y-87048429D01*
X116521368Y-87180019D01*
X116754043Y-87276396D01*
X116998927Y-87335187D01*
X117250000Y-87354947D01*
X117501072Y-87335187D01*
X117745956Y-87276396D01*
X117978631Y-87180019D01*
X118193361Y-87048432D01*
X118193363Y-87048430D01*
X118194180Y-87047732D01*
X118146448Y-87000000D01*
X123484829Y-87000000D01*
X123503482Y-87237020D01*
X123503482Y-87237023D01*
X123503483Y-87237025D01*
X123558987Y-87468214D01*
X123558988Y-87468216D01*
X123649972Y-87687873D01*
X123774199Y-87890592D01*
X123774202Y-87890597D01*
X123817260Y-87941011D01*
X123928612Y-88071388D01*
X124044337Y-88170226D01*
X124109402Y-88225797D01*
X124109407Y-88225800D01*
X124312126Y-88350027D01*
X124389786Y-88382194D01*
X124531786Y-88441013D01*
X124762975Y-88496517D01*
X125000000Y-88515171D01*
X125237025Y-88496517D01*
X125468214Y-88441013D01*
X125687873Y-88350027D01*
X125890595Y-88225799D01*
X126071388Y-88071388D01*
X126175710Y-87949242D01*
X126234217Y-87911049D01*
X126304084Y-87910550D01*
X126363131Y-87947904D01*
X126364290Y-87949242D01*
X126468612Y-88071388D01*
X126584337Y-88170226D01*
X126649402Y-88225797D01*
X126649407Y-88225800D01*
X126852126Y-88350027D01*
X126929786Y-88382194D01*
X127071786Y-88441013D01*
X127302975Y-88496517D01*
X127540000Y-88515171D01*
X127777025Y-88496517D01*
X128008214Y-88441013D01*
X128227873Y-88350027D01*
X128430595Y-88225799D01*
X128611388Y-88071388D01*
X128715710Y-87949242D01*
X128774217Y-87911049D01*
X128844084Y-87910550D01*
X128903131Y-87947904D01*
X128904290Y-87949242D01*
X129008612Y-88071388D01*
X129124337Y-88170226D01*
X129189402Y-88225797D01*
X129189407Y-88225800D01*
X129392126Y-88350027D01*
X129469786Y-88382194D01*
X129611786Y-88441013D01*
X129842975Y-88496517D01*
X130080000Y-88515171D01*
X130317025Y-88496517D01*
X130548214Y-88441013D01*
X130767873Y-88350027D01*
X130970595Y-88225799D01*
X131151388Y-88071388D01*
X131279372Y-87921536D01*
X131337877Y-87883345D01*
X131387447Y-87878998D01*
X132128871Y-87137574D01*
X132144755Y-87196853D01*
X132211898Y-87313147D01*
X132306853Y-87408102D01*
X132423147Y-87475245D01*
X132482424Y-87491128D01*
X131741145Y-88232406D01*
X131932355Y-88349580D01*
X131932358Y-88349582D01*
X132151944Y-88440537D01*
X132383057Y-88496021D01*
X132383056Y-88496021D01*
X132620000Y-88514668D01*
X132856943Y-88496021D01*
X133088055Y-88440537D01*
X133307641Y-88349582D01*
X133307644Y-88349580D01*
X133498853Y-88232406D01*
X132757575Y-87491127D01*
X132816853Y-87475245D01*
X132933147Y-87408102D01*
X133028102Y-87313147D01*
X133095245Y-87196853D01*
X133111128Y-87137575D01*
X133852406Y-87878853D01*
X133969580Y-87687644D01*
X133969582Y-87687641D01*
X134060537Y-87468055D01*
X134116021Y-87236943D01*
X134134668Y-87000000D01*
X134116021Y-86763056D01*
X134060537Y-86531944D01*
X134047305Y-86500000D01*
X138219829Y-86500000D01*
X138238482Y-86737020D01*
X138238482Y-86737023D01*
X138238483Y-86737025D01*
X138293987Y-86968214D01*
X138293988Y-86968216D01*
X138384972Y-87187873D01*
X138509199Y-87390592D01*
X138509202Y-87390597D01*
X138524153Y-87408102D01*
X138663612Y-87571388D01*
X138779337Y-87670226D01*
X138844402Y-87725797D01*
X138844407Y-87725800D01*
X139047126Y-87850027D01*
X139082734Y-87864776D01*
X139266786Y-87941013D01*
X139497975Y-87996517D01*
X139735000Y-88015171D01*
X139972025Y-87996517D01*
X140203214Y-87941013D01*
X140422873Y-87850027D01*
X140625595Y-87725799D01*
X140806388Y-87571388D01*
X140910710Y-87449242D01*
X140969217Y-87411049D01*
X141039084Y-87410550D01*
X141098131Y-87447904D01*
X141099290Y-87449242D01*
X141203612Y-87571388D01*
X141319337Y-87670226D01*
X141384402Y-87725797D01*
X141384407Y-87725800D01*
X141587126Y-87850027D01*
X141622734Y-87864776D01*
X141806786Y-87941013D01*
X142037975Y-87996517D01*
X142275000Y-88015171D01*
X142512025Y-87996517D01*
X142743214Y-87941013D01*
X142962873Y-87850027D01*
X143165595Y-87725799D01*
X143346388Y-87571388D01*
X143500799Y-87390595D01*
X143625027Y-87187873D01*
X143716013Y-86968214D01*
X143771517Y-86737025D01*
X143790171Y-86500000D01*
X143771517Y-86262975D01*
X143716013Y-86031786D01*
X143657194Y-85889786D01*
X143625027Y-85812126D01*
X143500800Y-85609407D01*
X143500797Y-85609402D01*
X143410756Y-85503978D01*
X143346388Y-85428612D01*
X143247548Y-85344195D01*
X143165597Y-85274202D01*
X143165592Y-85274199D01*
X142962873Y-85149972D01*
X142743216Y-85058988D01*
X142743214Y-85058987D01*
X142512025Y-85003483D01*
X142512023Y-85003482D01*
X142512020Y-85003482D01*
X142275000Y-84984829D01*
X142037979Y-85003482D01*
X142037975Y-85003483D01*
X141806786Y-85058987D01*
X141806784Y-85058987D01*
X141806783Y-85058988D01*
X141587126Y-85149972D01*
X141384407Y-85274199D01*
X141384402Y-85274202D01*
X141203612Y-85428612D01*
X141099290Y-85550757D01*
X141040783Y-85588950D01*
X140970915Y-85589448D01*
X140911869Y-85552094D01*
X140910710Y-85550757D01*
X140854830Y-85485331D01*
X140806388Y-85428612D01*
X140707548Y-85344195D01*
X140625597Y-85274202D01*
X140625592Y-85274199D01*
X140422873Y-85149972D01*
X140203216Y-85058988D01*
X140203214Y-85058987D01*
X139972025Y-85003483D01*
X139972023Y-85003482D01*
X139972020Y-85003482D01*
X139735000Y-84984829D01*
X139497979Y-85003482D01*
X139497975Y-85003483D01*
X139266786Y-85058987D01*
X139266784Y-85058987D01*
X139266783Y-85058988D01*
X139047126Y-85149972D01*
X138844407Y-85274199D01*
X138844402Y-85274202D01*
X138663612Y-85428612D01*
X138509202Y-85609402D01*
X138509199Y-85609407D01*
X138384972Y-85812126D01*
X138306676Y-86001151D01*
X138293987Y-86031786D01*
X138276757Y-86103553D01*
X138238482Y-86262979D01*
X138219829Y-86500000D01*
X134047305Y-86500000D01*
X133969582Y-86312358D01*
X133969580Y-86312355D01*
X133852406Y-86121145D01*
X133111127Y-86862423D01*
X133095245Y-86803147D01*
X133028102Y-86686853D01*
X132933147Y-86591898D01*
X132816853Y-86524755D01*
X132757574Y-86508871D01*
X133498853Y-85767592D01*
X133307644Y-85650419D01*
X133307641Y-85650417D01*
X133088055Y-85559462D01*
X132856942Y-85503978D01*
X132856943Y-85503978D01*
X132620000Y-85485331D01*
X132383056Y-85503978D01*
X132151944Y-85559462D01*
X131932366Y-85650414D01*
X131932357Y-85650419D01*
X131741145Y-85767592D01*
X132482425Y-86508871D01*
X132423147Y-86524755D01*
X132306853Y-86591898D01*
X132211898Y-86686853D01*
X132144755Y-86803147D01*
X132128871Y-86862424D01*
X131387370Y-86120923D01*
X131319347Y-86109401D01*
X131279371Y-86078461D01*
X131196636Y-85981591D01*
X131151388Y-85928612D01*
X131015000Y-85812126D01*
X130970597Y-85774202D01*
X130970592Y-85774199D01*
X130767873Y-85649972D01*
X130580383Y-85572312D01*
X130548214Y-85558987D01*
X130317025Y-85503483D01*
X130317023Y-85503482D01*
X130317020Y-85503482D01*
X130080000Y-85484829D01*
X129842979Y-85503482D01*
X129842975Y-85503483D01*
X129611786Y-85558987D01*
X129611784Y-85558987D01*
X129611783Y-85558988D01*
X129392126Y-85649972D01*
X129189407Y-85774199D01*
X129189402Y-85774202D01*
X129008612Y-85928612D01*
X128904290Y-86050757D01*
X128845783Y-86088950D01*
X128775915Y-86089448D01*
X128716869Y-86052094D01*
X128715710Y-86050757D01*
X128656636Y-85981591D01*
X128611388Y-85928612D01*
X128475000Y-85812126D01*
X128430597Y-85774202D01*
X128430592Y-85774199D01*
X128227873Y-85649972D01*
X128040383Y-85572312D01*
X128008214Y-85558987D01*
X127777025Y-85503483D01*
X127777023Y-85503482D01*
X127777020Y-85503482D01*
X127540000Y-85484829D01*
X127302979Y-85503482D01*
X127302975Y-85503483D01*
X127071786Y-85558987D01*
X127071784Y-85558987D01*
X127071783Y-85558988D01*
X126852126Y-85649972D01*
X126649407Y-85774199D01*
X126649402Y-85774202D01*
X126468612Y-85928612D01*
X126364290Y-86050757D01*
X126305783Y-86088950D01*
X126235915Y-86089448D01*
X126176869Y-86052094D01*
X126175710Y-86050757D01*
X126116636Y-85981591D01*
X126071388Y-85928612D01*
X125935000Y-85812126D01*
X125890597Y-85774202D01*
X125890592Y-85774199D01*
X125687873Y-85649972D01*
X125500383Y-85572312D01*
X125468214Y-85558987D01*
X125237025Y-85503483D01*
X125237023Y-85503482D01*
X125237020Y-85503482D01*
X125000000Y-85484829D01*
X124762979Y-85503482D01*
X124762975Y-85503483D01*
X124531786Y-85558987D01*
X124531784Y-85558987D01*
X124531783Y-85558988D01*
X124312126Y-85649972D01*
X124109407Y-85774199D01*
X124109402Y-85774202D01*
X123928612Y-85928612D01*
X123774204Y-86109401D01*
X123774199Y-86109407D01*
X123649972Y-86312126D01*
X123580910Y-86478859D01*
X123558987Y-86531786D01*
X123520126Y-86693653D01*
X123503482Y-86762979D01*
X123484829Y-87000000D01*
X118146448Y-87000000D01*
X117461059Y-86314612D01*
X117481591Y-86309111D01*
X117618408Y-86230119D01*
X117730119Y-86118408D01*
X117809111Y-85981591D01*
X117814612Y-85961059D01*
X118547732Y-86694180D01*
X118548430Y-86693363D01*
X118548432Y-86693361D01*
X118680019Y-86478631D01*
X118776396Y-86245956D01*
X118835187Y-86001072D01*
X118854947Y-85750000D01*
X118835187Y-85498927D01*
X118776396Y-85254043D01*
X118680019Y-85021368D01*
X118548429Y-84806634D01*
X118547733Y-84805819D01*
X118547732Y-84805819D01*
X117814612Y-85538939D01*
X117809111Y-85518409D01*
X117730119Y-85381592D01*
X117618408Y-85269881D01*
X117481591Y-85190889D01*
X117461059Y-85185387D01*
X118194179Y-84452266D01*
X118193362Y-84451568D01*
X117978631Y-84319980D01*
X117745956Y-84223603D01*
X117501072Y-84164812D01*
X117250000Y-84145052D01*
X116998927Y-84164812D01*
X116754043Y-84223603D01*
X116521368Y-84319980D01*
X116306637Y-84451567D01*
X116305819Y-84452266D01*
X117038940Y-85185387D01*
X117018409Y-85190889D01*
X116881592Y-85269881D01*
X116769881Y-85381592D01*
X116690889Y-85518409D01*
X116685387Y-85538940D01*
X115952266Y-84805819D01*
X115951567Y-84806637D01*
X115819980Y-85021368D01*
X115723603Y-85254043D01*
X115664812Y-85498927D01*
X115645052Y-85750000D01*
X114355449Y-85750000D01*
X114335683Y-85498852D01*
X114276873Y-85253889D01*
X114233830Y-85149973D01*
X114180466Y-85021140D01*
X114049017Y-84806637D01*
X114048838Y-84806345D01*
X114048838Y-84806343D01*
X113930548Y-84667844D01*
X113885224Y-84614776D01*
X113758571Y-84506604D01*
X113693656Y-84451161D01*
X113693653Y-84451160D01*
X113478859Y-84319533D01*
X113246110Y-84223126D01*
X113001151Y-84164317D01*
X112750000Y-84144551D01*
X112498848Y-84164317D01*
X112253889Y-84223126D01*
X112021140Y-84319533D01*
X111806346Y-84451160D01*
X111806343Y-84451161D01*
X111614776Y-84614776D01*
X111451161Y-84806343D01*
X111451160Y-84806346D01*
X111319533Y-85021140D01*
X111223126Y-85253889D01*
X111164317Y-85498848D01*
X111144551Y-85750000D01*
X81500500Y-85750000D01*
X81500500Y-66039998D01*
X84194532Y-66039998D01*
X84194532Y-66040001D01*
X84214364Y-66266686D01*
X84214366Y-66266697D01*
X84273258Y-66486488D01*
X84273261Y-66486497D01*
X84369431Y-66692732D01*
X84369432Y-66692734D01*
X84499954Y-66879141D01*
X84660858Y-67040045D01*
X84660861Y-67040047D01*
X84847266Y-67170568D01*
X84905275Y-67197618D01*
X84957714Y-67243791D01*
X84976866Y-67310984D01*
X84956650Y-67377865D01*
X84905275Y-67422382D01*
X84847267Y-67449431D01*
X84847265Y-67449432D01*
X84660858Y-67579954D01*
X84499954Y-67740858D01*
X84369432Y-67927265D01*
X84369431Y-67927267D01*
X84273261Y-68133502D01*
X84273258Y-68133511D01*
X84214366Y-68353302D01*
X84214364Y-68353313D01*
X84194532Y-68579998D01*
X84194532Y-68580001D01*
X84214364Y-68806686D01*
X84214366Y-68806697D01*
X84273258Y-69026488D01*
X84273261Y-69026497D01*
X84369431Y-69232732D01*
X84369432Y-69232734D01*
X84499954Y-69419141D01*
X84660858Y-69580045D01*
X84660861Y-69580047D01*
X84847266Y-69710568D01*
X84904681Y-69737341D01*
X84905275Y-69737618D01*
X84957714Y-69783791D01*
X84976866Y-69850984D01*
X84956650Y-69917865D01*
X84905275Y-69962382D01*
X84847267Y-69989431D01*
X84847265Y-69989432D01*
X84660858Y-70119954D01*
X84499954Y-70280858D01*
X84369432Y-70467265D01*
X84369431Y-70467267D01*
X84273261Y-70673502D01*
X84273258Y-70673511D01*
X84214366Y-70893302D01*
X84214364Y-70893313D01*
X84194532Y-71119998D01*
X84194532Y-71120001D01*
X84214364Y-71346686D01*
X84214366Y-71346697D01*
X84273258Y-71566488D01*
X84273261Y-71566497D01*
X84369431Y-71772732D01*
X84369432Y-71772734D01*
X84499954Y-71959141D01*
X84660858Y-72120045D01*
X84660861Y-72120047D01*
X84847266Y-72250568D01*
X84905275Y-72277618D01*
X84957714Y-72323791D01*
X84976866Y-72390984D01*
X84956650Y-72457865D01*
X84905275Y-72502382D01*
X84847267Y-72529431D01*
X84847265Y-72529432D01*
X84660858Y-72659954D01*
X84499954Y-72820858D01*
X84369432Y-73007265D01*
X84369431Y-73007267D01*
X84273261Y-73213502D01*
X84273258Y-73213511D01*
X84214366Y-73433302D01*
X84214364Y-73433313D01*
X84194532Y-73659998D01*
X84194532Y-73660001D01*
X84214364Y-73886686D01*
X84214366Y-73886697D01*
X84273258Y-74106488D01*
X84273261Y-74106497D01*
X84369431Y-74312732D01*
X84369432Y-74312734D01*
X84499954Y-74499141D01*
X84660858Y-74660045D01*
X84660861Y-74660047D01*
X84847266Y-74790568D01*
X84905275Y-74817618D01*
X84957714Y-74863791D01*
X84976866Y-74930984D01*
X84956650Y-74997865D01*
X84905275Y-75042382D01*
X84847267Y-75069431D01*
X84847265Y-75069432D01*
X84660858Y-75199954D01*
X84499954Y-75360858D01*
X84369432Y-75547265D01*
X84369431Y-75547267D01*
X84273261Y-75753502D01*
X84273258Y-75753511D01*
X84214366Y-75973302D01*
X84214364Y-75973313D01*
X84194532Y-76199998D01*
X84194532Y-76200001D01*
X84214364Y-76426686D01*
X84214366Y-76426697D01*
X84273258Y-76646488D01*
X84273261Y-76646497D01*
X84369431Y-76852732D01*
X84369432Y-76852734D01*
X84499954Y-77039141D01*
X84660858Y-77200045D01*
X84660861Y-77200047D01*
X84847266Y-77330568D01*
X84905275Y-77357618D01*
X84957714Y-77403791D01*
X84976866Y-77470984D01*
X84956650Y-77537865D01*
X84905275Y-77582382D01*
X84847267Y-77609431D01*
X84847265Y-77609432D01*
X84660858Y-77739954D01*
X84499954Y-77900858D01*
X84369432Y-78087265D01*
X84369431Y-78087267D01*
X84273261Y-78293502D01*
X84273258Y-78293511D01*
X84214366Y-78513302D01*
X84214364Y-78513313D01*
X84194532Y-78739998D01*
X84194532Y-78740001D01*
X84214364Y-78966686D01*
X84214366Y-78966697D01*
X84273258Y-79186488D01*
X84273261Y-79186497D01*
X84369431Y-79392732D01*
X84369432Y-79392734D01*
X84499954Y-79579141D01*
X84660858Y-79740045D01*
X84660861Y-79740047D01*
X84847266Y-79870568D01*
X84905275Y-79897618D01*
X84957714Y-79943791D01*
X84976866Y-80010984D01*
X84956650Y-80077865D01*
X84905275Y-80122382D01*
X84847267Y-80149431D01*
X84847265Y-80149432D01*
X84660858Y-80279954D01*
X84499954Y-80440858D01*
X84369432Y-80627265D01*
X84369431Y-80627267D01*
X84273261Y-80833502D01*
X84273258Y-80833511D01*
X84214366Y-81053302D01*
X84214364Y-81053313D01*
X84194532Y-81279998D01*
X84194532Y-81280001D01*
X84214364Y-81506686D01*
X84214366Y-81506697D01*
X84273258Y-81726488D01*
X84273261Y-81726497D01*
X84369431Y-81932732D01*
X84369432Y-81932734D01*
X84499954Y-82119141D01*
X84660858Y-82280045D01*
X84660861Y-82280047D01*
X84847266Y-82410568D01*
X84905275Y-82437618D01*
X84957714Y-82483791D01*
X84976866Y-82550984D01*
X84956650Y-82617865D01*
X84905275Y-82662381D01*
X84888272Y-82670310D01*
X84847267Y-82689431D01*
X84847265Y-82689432D01*
X84660858Y-82819954D01*
X84499954Y-82980858D01*
X84369432Y-83167265D01*
X84369431Y-83167267D01*
X84273261Y-83373502D01*
X84273258Y-83373511D01*
X84214366Y-83593302D01*
X84214364Y-83593313D01*
X84194532Y-83819998D01*
X84194532Y-83820001D01*
X84214364Y-84046686D01*
X84214366Y-84046697D01*
X84273258Y-84266488D01*
X84273261Y-84266497D01*
X84369431Y-84472732D01*
X84369432Y-84472734D01*
X84499954Y-84659141D01*
X84660858Y-84820045D01*
X84660861Y-84820047D01*
X84847266Y-84950568D01*
X85053504Y-85046739D01*
X85273308Y-85105635D01*
X85435230Y-85119801D01*
X85499998Y-85125468D01*
X85500000Y-85125468D01*
X85500002Y-85125468D01*
X85562511Y-85119999D01*
X85726692Y-85105635D01*
X85946496Y-85046739D01*
X86152734Y-84950568D01*
X86339139Y-84820047D01*
X86500047Y-84659139D01*
X86630568Y-84472734D01*
X86726739Y-84266496D01*
X86785635Y-84046692D01*
X86805468Y-83820000D01*
X86785635Y-83593308D01*
X86726739Y-83373504D01*
X86630568Y-83167266D01*
X86500047Y-82980861D01*
X86500045Y-82980858D01*
X86339141Y-82819954D01*
X86152734Y-82689432D01*
X86152728Y-82689429D01*
X86125038Y-82676517D01*
X86094724Y-82662381D01*
X86042285Y-82616210D01*
X86023133Y-82549017D01*
X86043348Y-82482135D01*
X86094725Y-82437618D01*
X86152734Y-82410568D01*
X86339139Y-82280047D01*
X86500047Y-82119139D01*
X86630568Y-81932734D01*
X86726739Y-81726496D01*
X86785635Y-81506692D01*
X86805468Y-81280000D01*
X86785635Y-81053308D01*
X86726739Y-80833504D01*
X86630568Y-80627266D01*
X86500047Y-80440861D01*
X86500045Y-80440858D01*
X86339141Y-80279954D01*
X86152734Y-80149432D01*
X86152728Y-80149429D01*
X86094725Y-80122382D01*
X86042285Y-80076210D01*
X86023133Y-80009017D01*
X86043348Y-79942135D01*
X86094725Y-79897618D01*
X86152734Y-79870568D01*
X86339139Y-79740047D01*
X86500047Y-79579139D01*
X86630568Y-79392734D01*
X86726739Y-79186496D01*
X86785635Y-78966692D01*
X86805468Y-78740000D01*
X86785635Y-78513308D01*
X86726739Y-78293504D01*
X86630568Y-78087266D01*
X86500047Y-77900861D01*
X86500045Y-77900858D01*
X86339141Y-77739954D01*
X86152734Y-77609432D01*
X86152728Y-77609429D01*
X86094725Y-77582382D01*
X86042285Y-77536210D01*
X86023133Y-77469017D01*
X86043348Y-77402135D01*
X86094725Y-77357618D01*
X86152734Y-77330568D01*
X86339139Y-77200047D01*
X86500047Y-77039139D01*
X86630568Y-76852734D01*
X86726739Y-76646496D01*
X86785635Y-76426692D01*
X86805468Y-76200000D01*
X86785635Y-75973308D01*
X86740916Y-75806415D01*
X86726741Y-75753511D01*
X86726738Y-75753502D01*
X86717089Y-75732809D01*
X86630568Y-75547266D01*
X86532839Y-75407693D01*
X86500045Y-75360858D01*
X86339141Y-75199954D01*
X86152734Y-75069432D01*
X86152728Y-75069429D01*
X86094725Y-75042382D01*
X86042285Y-74996210D01*
X86023133Y-74929017D01*
X86043348Y-74862135D01*
X86094725Y-74817618D01*
X86152734Y-74790568D01*
X86339139Y-74660047D01*
X86500047Y-74499139D01*
X86630568Y-74312734D01*
X86726739Y-74106496D01*
X86785635Y-73886692D01*
X86805468Y-73660000D01*
X86785635Y-73433308D01*
X86738129Y-73256011D01*
X86726741Y-73213511D01*
X86726738Y-73213502D01*
X86630568Y-73007266D01*
X86500047Y-72820861D01*
X86500045Y-72820858D01*
X86339141Y-72659954D01*
X86152734Y-72529432D01*
X86152728Y-72529429D01*
X86094725Y-72502382D01*
X86042285Y-72456210D01*
X86023133Y-72389017D01*
X86043348Y-72322135D01*
X86094725Y-72277618D01*
X86152734Y-72250568D01*
X86339139Y-72120047D01*
X86500047Y-71959139D01*
X86630568Y-71772734D01*
X86726739Y-71566496D01*
X86785635Y-71346692D01*
X86802634Y-71152384D01*
X86805468Y-71120001D01*
X86805468Y-71119998D01*
X86792420Y-70970858D01*
X86785635Y-70893308D01*
X86740916Y-70726415D01*
X86726741Y-70673511D01*
X86726738Y-70673502D01*
X86630568Y-70467266D01*
X86500047Y-70280861D01*
X86500045Y-70280858D01*
X86339141Y-70119954D01*
X86152734Y-69989432D01*
X86152728Y-69989429D01*
X86094725Y-69962382D01*
X86042285Y-69916210D01*
X86023133Y-69849017D01*
X86043348Y-69782135D01*
X86094725Y-69737618D01*
X86095319Y-69737341D01*
X86152734Y-69710568D01*
X86339139Y-69580047D01*
X86500047Y-69419139D01*
X86630568Y-69232734D01*
X86726739Y-69026496D01*
X86785635Y-68806692D01*
X86802634Y-68612384D01*
X86805468Y-68580001D01*
X86805468Y-68579998D01*
X86791960Y-68425606D01*
X86785635Y-68353308D01*
X86739198Y-68180000D01*
X86726741Y-68133511D01*
X86726738Y-68133502D01*
X86630568Y-67927266D01*
X86500047Y-67740861D01*
X86500045Y-67740858D01*
X86339141Y-67579954D01*
X86152734Y-67449432D01*
X86152728Y-67449429D01*
X86094725Y-67422382D01*
X86042285Y-67376210D01*
X86023133Y-67309017D01*
X86043348Y-67242135D01*
X86094725Y-67197618D01*
X86152734Y-67170568D01*
X86339139Y-67040047D01*
X86500047Y-66879139D01*
X86630568Y-66692734D01*
X86726739Y-66486496D01*
X86785635Y-66266692D01*
X86802634Y-66072384D01*
X86805468Y-66040001D01*
X86805468Y-66039998D01*
X96894532Y-66039998D01*
X96894532Y-66040001D01*
X96914364Y-66266686D01*
X96914366Y-66266697D01*
X96973258Y-66486488D01*
X96973261Y-66486497D01*
X97069431Y-66692732D01*
X97069432Y-66692734D01*
X97199954Y-66879141D01*
X97360858Y-67040045D01*
X97360861Y-67040047D01*
X97547266Y-67170568D01*
X97605865Y-67197893D01*
X97658305Y-67244065D01*
X97677457Y-67311258D01*
X97657242Y-67378139D01*
X97605867Y-67422657D01*
X97547515Y-67449867D01*
X97361179Y-67580342D01*
X97200342Y-67741179D01*
X97069865Y-67927517D01*
X96973734Y-68133673D01*
X96973730Y-68133682D01*
X96921127Y-68329999D01*
X96921128Y-68330000D01*
X97884314Y-68330000D01*
X97879920Y-68334394D01*
X97827259Y-68425606D01*
X97800000Y-68527339D01*
X97800000Y-68632661D01*
X97827259Y-68734394D01*
X97879920Y-68825606D01*
X97884314Y-68830000D01*
X96921128Y-68830000D01*
X96973730Y-69026317D01*
X96973734Y-69026326D01*
X97069865Y-69232482D01*
X97200342Y-69418820D01*
X97361179Y-69579657D01*
X97547518Y-69710134D01*
X97547520Y-69710135D01*
X97605865Y-69737342D01*
X97658305Y-69783514D01*
X97677457Y-69850707D01*
X97657242Y-69917589D01*
X97605867Y-69962105D01*
X97547268Y-69989431D01*
X97547264Y-69989433D01*
X97360858Y-70119954D01*
X97199954Y-70280858D01*
X97069432Y-70467265D01*
X97069431Y-70467267D01*
X96973261Y-70673502D01*
X96973258Y-70673511D01*
X96914366Y-70893302D01*
X96914364Y-70893313D01*
X96894532Y-71119998D01*
X96894532Y-71120001D01*
X96914364Y-71346686D01*
X96914366Y-71346697D01*
X96973258Y-71566488D01*
X96973261Y-71566497D01*
X97069431Y-71772732D01*
X97069432Y-71772734D01*
X97199954Y-71959141D01*
X97360858Y-72120045D01*
X97360861Y-72120047D01*
X97547266Y-72250568D01*
X97605275Y-72277618D01*
X97657714Y-72323791D01*
X97676866Y-72390984D01*
X97656650Y-72457865D01*
X97605275Y-72502382D01*
X97547267Y-72529431D01*
X97547265Y-72529432D01*
X97360858Y-72659954D01*
X97199954Y-72820858D01*
X97069432Y-73007265D01*
X97069431Y-73007267D01*
X96973261Y-73213502D01*
X96973258Y-73213511D01*
X96914366Y-73433302D01*
X96914364Y-73433313D01*
X96894532Y-73659998D01*
X96894532Y-73660001D01*
X96914364Y-73886686D01*
X96914366Y-73886697D01*
X96973258Y-74106488D01*
X96973261Y-74106497D01*
X97069431Y-74312732D01*
X97069432Y-74312734D01*
X97199954Y-74499141D01*
X97360858Y-74660045D01*
X97360861Y-74660047D01*
X97547266Y-74790568D01*
X97605275Y-74817618D01*
X97657714Y-74863791D01*
X97676866Y-74930984D01*
X97656650Y-74997865D01*
X97605275Y-75042382D01*
X97547267Y-75069431D01*
X97547265Y-75069432D01*
X97360858Y-75199954D01*
X97199954Y-75360858D01*
X97069432Y-75547265D01*
X97069431Y-75547267D01*
X96973261Y-75753502D01*
X96973258Y-75753511D01*
X96914366Y-75973302D01*
X96914364Y-75973313D01*
X96894532Y-76199998D01*
X96894532Y-76200001D01*
X96914364Y-76426686D01*
X96914366Y-76426697D01*
X96973258Y-76646488D01*
X96973261Y-76646497D01*
X97069431Y-76852732D01*
X97069432Y-76852734D01*
X97199954Y-77039141D01*
X97360858Y-77200045D01*
X97360861Y-77200047D01*
X97547266Y-77330568D01*
X97605275Y-77357618D01*
X97657714Y-77403791D01*
X97676866Y-77470984D01*
X97656650Y-77537865D01*
X97605275Y-77582382D01*
X97547267Y-77609431D01*
X97547265Y-77609432D01*
X97360858Y-77739954D01*
X97199954Y-77900858D01*
X97069432Y-78087265D01*
X97069431Y-78087267D01*
X96973261Y-78293502D01*
X96973258Y-78293511D01*
X96914366Y-78513302D01*
X96914364Y-78513313D01*
X96894532Y-78739998D01*
X96894532Y-78740001D01*
X96914364Y-78966686D01*
X96914366Y-78966697D01*
X96973258Y-79186488D01*
X96973261Y-79186497D01*
X97069431Y-79392732D01*
X97069432Y-79392734D01*
X97199954Y-79579141D01*
X97360858Y-79740045D01*
X97360861Y-79740047D01*
X97547266Y-79870568D01*
X97605275Y-79897618D01*
X97657714Y-79943791D01*
X97676866Y-80010984D01*
X97656650Y-80077865D01*
X97605275Y-80122382D01*
X97547267Y-80149431D01*
X97547265Y-80149432D01*
X97360858Y-80279954D01*
X97199954Y-80440858D01*
X97069432Y-80627265D01*
X97069431Y-80627267D01*
X96973261Y-80833502D01*
X96973258Y-80833511D01*
X96914366Y-81053302D01*
X96914364Y-81053313D01*
X96894532Y-81279998D01*
X96894532Y-81280001D01*
X96914364Y-81506686D01*
X96914366Y-81506697D01*
X96973258Y-81726488D01*
X96973261Y-81726497D01*
X97069431Y-81932732D01*
X97069432Y-81932734D01*
X97199954Y-82119141D01*
X97360858Y-82280045D01*
X97386086Y-82297710D01*
X97429711Y-82352287D01*
X97436905Y-82421785D01*
X97405382Y-82484140D01*
X97345153Y-82519554D01*
X97328221Y-82522574D01*
X97292626Y-82526401D01*
X97292620Y-82526403D01*
X97157913Y-82576645D01*
X97157906Y-82576649D01*
X97042812Y-82662809D01*
X97042809Y-82662812D01*
X96956649Y-82777906D01*
X96956645Y-82777913D01*
X96906403Y-82912620D01*
X96906401Y-82912627D01*
X96900000Y-82972155D01*
X96900000Y-83570000D01*
X97884314Y-83570000D01*
X97879920Y-83574394D01*
X97827259Y-83665606D01*
X97800000Y-83767339D01*
X97800000Y-83872661D01*
X97827259Y-83974394D01*
X97879920Y-84065606D01*
X97884314Y-84070000D01*
X96900000Y-84070000D01*
X96900000Y-84667844D01*
X96906401Y-84727372D01*
X96906403Y-84727379D01*
X96956645Y-84862086D01*
X96956649Y-84862093D01*
X97042809Y-84977187D01*
X97042812Y-84977190D01*
X97157906Y-85063350D01*
X97157913Y-85063354D01*
X97292620Y-85113596D01*
X97292627Y-85113598D01*
X97352155Y-85119999D01*
X97352172Y-85120000D01*
X97950000Y-85120000D01*
X97950000Y-84135686D01*
X97954394Y-84140080D01*
X98045606Y-84192741D01*
X98147339Y-84220000D01*
X98252661Y-84220000D01*
X98354394Y-84192741D01*
X98445606Y-84140080D01*
X98450000Y-84135686D01*
X98450000Y-85120000D01*
X99047828Y-85120000D01*
X99047844Y-85119999D01*
X99107372Y-85113598D01*
X99107379Y-85113596D01*
X99242086Y-85063354D01*
X99242093Y-85063350D01*
X99357187Y-84977190D01*
X99357190Y-84977187D01*
X99443350Y-84862093D01*
X99443354Y-84862086D01*
X99493596Y-84727379D01*
X99493598Y-84727372D01*
X99499999Y-84667844D01*
X99500000Y-84667827D01*
X99500000Y-84070000D01*
X98515686Y-84070000D01*
X98520080Y-84065606D01*
X98572741Y-83974394D01*
X98600000Y-83872661D01*
X98600000Y-83819998D01*
X146014532Y-83819998D01*
X146014532Y-83820001D01*
X146034364Y-84046686D01*
X146034366Y-84046697D01*
X146093258Y-84266488D01*
X146093261Y-84266497D01*
X146189431Y-84472732D01*
X146189432Y-84472734D01*
X146319954Y-84659141D01*
X146480858Y-84820045D01*
X146480861Y-84820047D01*
X146667266Y-84950568D01*
X146873504Y-85046739D01*
X147093308Y-85105635D01*
X147255230Y-85119801D01*
X147319998Y-85125468D01*
X147320000Y-85125468D01*
X147320002Y-85125468D01*
X147382511Y-85119999D01*
X147546692Y-85105635D01*
X147766496Y-85046739D01*
X147972734Y-84950568D01*
X148159139Y-84820047D01*
X148320047Y-84659139D01*
X148450568Y-84472734D01*
X148546739Y-84266496D01*
X148605635Y-84046692D01*
X148625468Y-83820000D01*
X148605635Y-83593308D01*
X148546739Y-83373504D01*
X148450568Y-83167266D01*
X148320047Y-82980861D01*
X148320045Y-82980858D01*
X148159141Y-82819954D01*
X147972734Y-82689432D01*
X147972732Y-82689431D01*
X147766497Y-82593261D01*
X147766488Y-82593258D01*
X147546697Y-82534366D01*
X147546693Y-82534365D01*
X147546692Y-82534365D01*
X147546691Y-82534364D01*
X147546686Y-82534364D01*
X147320002Y-82514532D01*
X147319998Y-82514532D01*
X147093313Y-82534364D01*
X147093302Y-82534366D01*
X146873511Y-82593258D01*
X146873502Y-82593261D01*
X146667267Y-82689431D01*
X146667265Y-82689432D01*
X146480858Y-82819954D01*
X146319954Y-82980858D01*
X146189432Y-83167265D01*
X146189431Y-83167267D01*
X146093261Y-83373502D01*
X146093258Y-83373511D01*
X146034366Y-83593302D01*
X146034364Y-83593313D01*
X146014532Y-83819998D01*
X98600000Y-83819998D01*
X98600000Y-83767339D01*
X98572741Y-83665606D01*
X98520080Y-83574394D01*
X98515686Y-83570000D01*
X99500000Y-83570000D01*
X99500000Y-82972172D01*
X99499999Y-82972155D01*
X99493598Y-82912627D01*
X99493596Y-82912620D01*
X99443354Y-82777913D01*
X99443350Y-82777906D01*
X99357190Y-82662812D01*
X99357187Y-82662809D01*
X99242093Y-82576649D01*
X99242086Y-82576645D01*
X99107379Y-82526403D01*
X99107373Y-82526401D01*
X99071778Y-82522574D01*
X99007228Y-82495835D01*
X98967381Y-82438441D01*
X98964888Y-82368616D01*
X99000542Y-82308528D01*
X99013913Y-82297710D01*
X99039139Y-82280047D01*
X99200047Y-82119139D01*
X99330568Y-81932734D01*
X99426739Y-81726496D01*
X99485635Y-81506692D01*
X99505468Y-81280000D01*
X99485635Y-81053308D01*
X99426739Y-80833504D01*
X99330568Y-80627266D01*
X99200047Y-80440861D01*
X99200045Y-80440858D01*
X99039141Y-80279954D01*
X98852734Y-80149432D01*
X98852728Y-80149429D01*
X98794725Y-80122382D01*
X98742285Y-80076210D01*
X98723133Y-80009017D01*
X98743348Y-79942135D01*
X98794725Y-79897618D01*
X98852734Y-79870568D01*
X99039139Y-79740047D01*
X99200047Y-79579139D01*
X99330568Y-79392734D01*
X99426739Y-79186496D01*
X99485635Y-78966692D01*
X99505468Y-78740000D01*
X99485635Y-78513308D01*
X99426739Y-78293504D01*
X99330568Y-78087266D01*
X99200047Y-77900861D01*
X99200045Y-77900858D01*
X99039141Y-77739954D01*
X98852734Y-77609432D01*
X98852728Y-77609429D01*
X98794725Y-77582382D01*
X98742285Y-77536210D01*
X98723133Y-77469017D01*
X98743348Y-77402135D01*
X98794725Y-77357618D01*
X98852734Y-77330568D01*
X99039139Y-77200047D01*
X99200047Y-77039139D01*
X99330568Y-76852734D01*
X99426739Y-76646496D01*
X99485635Y-76426692D01*
X99505468Y-76200000D01*
X99485635Y-75973308D01*
X99440916Y-75806415D01*
X99426741Y-75753511D01*
X99426738Y-75753502D01*
X99417089Y-75732809D01*
X99330568Y-75547266D01*
X99232839Y-75407693D01*
X99200045Y-75360858D01*
X99039141Y-75199954D01*
X98852734Y-75069432D01*
X98852728Y-75069429D01*
X98794725Y-75042382D01*
X98742285Y-74996210D01*
X98723133Y-74929017D01*
X98743348Y-74862135D01*
X98794725Y-74817618D01*
X98852734Y-74790568D01*
X99039139Y-74660047D01*
X99200047Y-74499139D01*
X99330568Y-74312734D01*
X99426739Y-74106496D01*
X99485635Y-73886692D01*
X99505468Y-73660000D01*
X105164829Y-73660000D01*
X105183482Y-73897020D01*
X105183482Y-73897023D01*
X105183483Y-73897025D01*
X105238987Y-74128214D01*
X105238988Y-74128216D01*
X105329972Y-74347873D01*
X105454199Y-74550592D01*
X105454202Y-74550597D01*
X105476494Y-74576697D01*
X105608612Y-74731388D01*
X105674228Y-74787429D01*
X105730757Y-74835710D01*
X105768950Y-74894217D01*
X105769448Y-74964085D01*
X105732094Y-75023131D01*
X105730757Y-75024290D01*
X105608612Y-75128612D01*
X105454202Y-75309402D01*
X105454199Y-75309407D01*
X105329972Y-75512126D01*
X105238988Y-75731783D01*
X105238987Y-75731786D01*
X105232350Y-75759431D01*
X105183482Y-75962979D01*
X105164829Y-76200000D01*
X105183482Y-76437020D01*
X105183482Y-76437023D01*
X105183483Y-76437025D01*
X105238987Y-76668214D01*
X105238988Y-76668216D01*
X105329972Y-76887873D01*
X105454199Y-77090592D01*
X105454202Y-77090597D01*
X105524195Y-77172548D01*
X105608612Y-77271388D01*
X105674228Y-77327429D01*
X105730757Y-77375710D01*
X105768950Y-77434217D01*
X105769448Y-77504085D01*
X105732094Y-77563131D01*
X105730757Y-77564290D01*
X105608612Y-77668612D01*
X105454202Y-77849402D01*
X105454199Y-77849407D01*
X105329972Y-78052126D01*
X105238988Y-78271783D01*
X105238987Y-78271786D01*
X105233773Y-78293504D01*
X105183482Y-78502979D01*
X105164829Y-78740000D01*
X105183482Y-78977020D01*
X105183482Y-78977023D01*
X105183483Y-78977025D01*
X105238987Y-79208214D01*
X105238988Y-79208216D01*
X105329972Y-79427873D01*
X105454199Y-79630592D01*
X105454202Y-79630597D01*
X105524195Y-79712548D01*
X105608612Y-79811388D01*
X105674228Y-79867429D01*
X105730757Y-79915710D01*
X105768950Y-79974217D01*
X105769448Y-80044085D01*
X105732094Y-80103131D01*
X105730757Y-80104290D01*
X105608612Y-80208612D01*
X105454202Y-80389402D01*
X105454199Y-80389407D01*
X105329972Y-80592126D01*
X105238988Y-80811783D01*
X105238987Y-80811786D01*
X105233773Y-80833504D01*
X105183482Y-81042979D01*
X105164829Y-81280000D01*
X105183482Y-81517020D01*
X105183482Y-81517023D01*
X105183483Y-81517025D01*
X105238987Y-81748214D01*
X105238988Y-81748216D01*
X105329972Y-81967873D01*
X105454199Y-82170592D01*
X105454202Y-82170597D01*
X105524195Y-82252548D01*
X105608612Y-82351388D01*
X105677906Y-82410570D01*
X105789402Y-82505797D01*
X105789404Y-82505798D01*
X105789405Y-82505799D01*
X105823028Y-82526403D01*
X105992126Y-82630027D01*
X106069786Y-82662194D01*
X106211786Y-82721013D01*
X106442975Y-82776517D01*
X106680000Y-82795171D01*
X106917025Y-82776517D01*
X107148214Y-82721013D01*
X107367873Y-82630027D01*
X107570595Y-82505799D01*
X107751388Y-82351388D01*
X107905799Y-82170595D01*
X108030027Y-81967873D01*
X108121013Y-81748214D01*
X108176517Y-81517025D01*
X108195171Y-81280000D01*
X108176517Y-81042975D01*
X108121013Y-80811786D01*
X108030027Y-80592127D01*
X108030027Y-80592126D01*
X107905800Y-80389407D01*
X107905797Y-80389402D01*
X107850226Y-80324337D01*
X107751388Y-80208612D01*
X107629242Y-80104290D01*
X107591049Y-80045783D01*
X107590550Y-79975916D01*
X107627904Y-79916869D01*
X107629242Y-79915710D01*
X107650425Y-79897618D01*
X107751388Y-79811388D01*
X107905799Y-79630595D01*
X108030027Y-79427873D01*
X108121013Y-79208214D01*
X108176517Y-78977025D01*
X108195171Y-78740000D01*
X108195171Y-78739998D01*
X140934532Y-78739998D01*
X140934532Y-78740001D01*
X140954364Y-78966686D01*
X140954366Y-78966697D01*
X141013258Y-79186488D01*
X141013261Y-79186497D01*
X141109431Y-79392732D01*
X141109432Y-79392734D01*
X141239954Y-79579141D01*
X141400858Y-79740045D01*
X141400861Y-79740047D01*
X141587266Y-79870568D01*
X141793504Y-79966739D01*
X142013308Y-80025635D01*
X142175230Y-80039801D01*
X142239998Y-80045468D01*
X142240000Y-80045468D01*
X142240002Y-80045468D01*
X142296673Y-80040509D01*
X142466692Y-80025635D01*
X142686496Y-79966739D01*
X142892734Y-79870568D01*
X143079139Y-79740047D01*
X143240047Y-79579139D01*
X143370568Y-79392734D01*
X143466739Y-79186496D01*
X143525635Y-78966692D01*
X143545468Y-78740000D01*
X143525635Y-78513308D01*
X143466739Y-78293504D01*
X143370568Y-78087266D01*
X143240047Y-77900861D01*
X143240045Y-77900858D01*
X143079141Y-77739954D01*
X142892734Y-77609432D01*
X142892732Y-77609431D01*
X142686497Y-77513261D01*
X142686488Y-77513258D01*
X142466697Y-77454366D01*
X142466693Y-77454365D01*
X142466692Y-77454365D01*
X142466691Y-77454364D01*
X142466686Y-77454364D01*
X142240002Y-77434532D01*
X142239998Y-77434532D01*
X142013313Y-77454364D01*
X142013302Y-77454366D01*
X141793511Y-77513258D01*
X141793502Y-77513261D01*
X141587267Y-77609431D01*
X141587265Y-77609432D01*
X141400858Y-77739954D01*
X141239954Y-77900858D01*
X141109432Y-78087265D01*
X141109431Y-78087267D01*
X141013261Y-78293502D01*
X141013258Y-78293511D01*
X140954366Y-78513302D01*
X140954364Y-78513313D01*
X140934532Y-78739998D01*
X108195171Y-78739998D01*
X108176517Y-78502975D01*
X108121013Y-78271786D01*
X108030027Y-78052127D01*
X108030027Y-78052126D01*
X107905800Y-77849407D01*
X107905797Y-77849402D01*
X107850226Y-77784337D01*
X107751388Y-77668612D01*
X107629242Y-77564290D01*
X107591049Y-77505783D01*
X107590550Y-77435916D01*
X107627904Y-77376869D01*
X107629242Y-77375710D01*
X107650425Y-77357618D01*
X107751388Y-77271388D01*
X107905799Y-77090595D01*
X108030027Y-76887873D01*
X108121013Y-76668214D01*
X108176517Y-76437025D01*
X108195171Y-76200000D01*
X108176517Y-75962975D01*
X108121013Y-75731786D01*
X108052274Y-75565835D01*
X108030027Y-75512126D01*
X107905800Y-75309407D01*
X107905797Y-75309402D01*
X107850226Y-75244337D01*
X107751388Y-75128612D01*
X107629242Y-75024290D01*
X107591049Y-74965783D01*
X107590550Y-74895916D01*
X107627904Y-74836869D01*
X107629242Y-74835710D01*
X107643053Y-74823914D01*
X107751388Y-74731388D01*
X107905799Y-74550595D01*
X108030027Y-74347873D01*
X108121013Y-74128214D01*
X108176517Y-73897025D01*
X108195171Y-73660000D01*
X108176517Y-73422975D01*
X108121013Y-73191786D01*
X108030027Y-72972127D01*
X108030027Y-72972126D01*
X107905800Y-72769407D01*
X107905797Y-72769402D01*
X107850226Y-72704337D01*
X107751388Y-72588612D01*
X107650425Y-72502382D01*
X107570597Y-72434202D01*
X107570592Y-72434199D01*
X107367873Y-72309972D01*
X107148216Y-72218988D01*
X107148214Y-72218987D01*
X106917025Y-72163483D01*
X106917023Y-72163482D01*
X106917020Y-72163482D01*
X106680000Y-72144829D01*
X106442979Y-72163482D01*
X106442975Y-72163483D01*
X106211786Y-72218987D01*
X106211784Y-72218987D01*
X106211783Y-72218988D01*
X105992126Y-72309972D01*
X105789407Y-72434199D01*
X105789402Y-72434202D01*
X105608612Y-72588612D01*
X105454202Y-72769402D01*
X105454199Y-72769407D01*
X105329972Y-72972126D01*
X105250071Y-73165027D01*
X105238987Y-73191786D01*
X105201015Y-73349951D01*
X105183482Y-73422979D01*
X105164829Y-73660000D01*
X99505468Y-73660000D01*
X99485635Y-73433308D01*
X99438129Y-73256011D01*
X99426741Y-73213511D01*
X99426738Y-73213502D01*
X99330568Y-73007266D01*
X99200047Y-72820861D01*
X99200045Y-72820858D01*
X99039141Y-72659954D01*
X98852734Y-72529432D01*
X98852728Y-72529429D01*
X98794725Y-72502382D01*
X98742285Y-72456210D01*
X98723133Y-72389017D01*
X98743348Y-72322135D01*
X98794725Y-72277618D01*
X98852734Y-72250568D01*
X99039139Y-72120047D01*
X99200047Y-71959139D01*
X99330568Y-71772734D01*
X99426739Y-71566496D01*
X99485635Y-71346692D01*
X99502634Y-71152384D01*
X99505468Y-71120001D01*
X99505468Y-71119998D01*
X99492420Y-70970858D01*
X99485635Y-70893308D01*
X99440916Y-70726415D01*
X99426741Y-70673511D01*
X99426738Y-70673502D01*
X99330568Y-70467266D01*
X99200047Y-70280861D01*
X99200045Y-70280858D01*
X99039141Y-70119954D01*
X98852734Y-69989432D01*
X98852732Y-69989431D01*
X98794725Y-69962382D01*
X98794132Y-69962105D01*
X98741694Y-69915934D01*
X98722542Y-69848740D01*
X98742758Y-69781859D01*
X98794134Y-69737341D01*
X98852484Y-69710132D01*
X99038820Y-69579657D01*
X99199657Y-69418820D01*
X99330134Y-69232482D01*
X99426265Y-69026326D01*
X99426269Y-69026317D01*
X99478872Y-68830000D01*
X98515686Y-68830000D01*
X98520080Y-68825606D01*
X98572741Y-68734394D01*
X98600000Y-68632661D01*
X98600000Y-68527339D01*
X98572741Y-68425606D01*
X98520080Y-68334394D01*
X98515686Y-68330000D01*
X99478872Y-68330000D01*
X99478872Y-68329999D01*
X99426269Y-68133682D01*
X99426265Y-68133673D01*
X99330134Y-67927517D01*
X99199657Y-67741179D01*
X99038820Y-67580342D01*
X98852482Y-67449865D01*
X98794133Y-67422657D01*
X98741694Y-67376484D01*
X98722542Y-67309291D01*
X98742758Y-67242410D01*
X98794129Y-67197895D01*
X98852734Y-67170568D01*
X99039139Y-67040047D01*
X99200047Y-66879139D01*
X99330568Y-66692734D01*
X99426739Y-66486496D01*
X99485635Y-66266692D01*
X99502634Y-66072384D01*
X99505468Y-66040001D01*
X99505468Y-66039998D01*
X99492420Y-65890858D01*
X99485635Y-65813308D01*
X99440916Y-65646415D01*
X99426741Y-65593511D01*
X99426738Y-65593502D01*
X99330568Y-65387266D01*
X99200047Y-65200861D01*
X99200045Y-65200858D01*
X99039141Y-65039954D01*
X98852734Y-64909432D01*
X98852732Y-64909431D01*
X98646497Y-64813261D01*
X98646488Y-64813258D01*
X98426697Y-64754366D01*
X98426693Y-64754365D01*
X98426692Y-64754365D01*
X98426691Y-64754364D01*
X98426686Y-64754364D01*
X98200002Y-64734532D01*
X98199998Y-64734532D01*
X97973313Y-64754364D01*
X97973302Y-64754366D01*
X97753511Y-64813258D01*
X97753502Y-64813261D01*
X97547267Y-64909431D01*
X97547265Y-64909432D01*
X97360858Y-65039954D01*
X97199954Y-65200858D01*
X97069432Y-65387265D01*
X97069431Y-65387267D01*
X96973261Y-65593502D01*
X96973258Y-65593511D01*
X96914366Y-65813302D01*
X96914364Y-65813313D01*
X96894532Y-66039998D01*
X86805468Y-66039998D01*
X86792420Y-65890858D01*
X86785635Y-65813308D01*
X86740916Y-65646415D01*
X86726741Y-65593511D01*
X86726738Y-65593502D01*
X86630568Y-65387266D01*
X86500047Y-65200861D01*
X86500045Y-65200858D01*
X86339141Y-65039954D01*
X86152734Y-64909432D01*
X86152732Y-64909431D01*
X85946497Y-64813261D01*
X85946488Y-64813258D01*
X85726697Y-64754366D01*
X85726693Y-64754365D01*
X85726692Y-64754365D01*
X85726691Y-64754364D01*
X85726686Y-64754364D01*
X85500002Y-64734532D01*
X85499998Y-64734532D01*
X85273313Y-64754364D01*
X85273302Y-64754366D01*
X85053511Y-64813258D01*
X85053502Y-64813261D01*
X84847267Y-64909431D01*
X84847265Y-64909432D01*
X84660858Y-65039954D01*
X84499954Y-65200858D01*
X84369432Y-65387265D01*
X84369431Y-65387267D01*
X84273261Y-65593502D01*
X84273258Y-65593511D01*
X84214366Y-65813302D01*
X84214364Y-65813313D01*
X84194532Y-66039998D01*
X81500500Y-66039998D01*
X81500500Y-60231421D01*
X90750000Y-60231421D01*
X90750000Y-60950000D01*
X91566988Y-60950000D01*
X91534075Y-61007007D01*
X91500000Y-61134174D01*
X91500000Y-61265826D01*
X91534075Y-61392993D01*
X91566988Y-61450000D01*
X90750001Y-61450000D01*
X90750001Y-62168588D01*
X90752794Y-62221191D01*
X90797237Y-62450987D01*
X90879879Y-62669975D01*
X90998339Y-62871841D01*
X90998344Y-62871848D01*
X91149211Y-63050786D01*
X91149213Y-63050788D01*
X91328151Y-63201655D01*
X91328158Y-63201660D01*
X91530024Y-63320120D01*
X91749012Y-63402762D01*
X91978809Y-63447205D01*
X92031382Y-63449998D01*
X92031421Y-63449999D01*
X92749999Y-63449999D01*
X92750000Y-63449998D01*
X92750000Y-61700000D01*
X93250000Y-61700000D01*
X93250000Y-63449999D01*
X93968576Y-63449999D01*
X93968588Y-63449998D01*
X94021191Y-63447205D01*
X94250987Y-63402762D01*
X94469975Y-63320120D01*
X94671841Y-63201660D01*
X94671848Y-63201655D01*
X94850786Y-63050788D01*
X94850788Y-63050786D01*
X95001655Y-62871848D01*
X95001660Y-62871841D01*
X95120120Y-62669975D01*
X95202762Y-62450987D01*
X95247205Y-62221191D01*
X95247205Y-62221190D01*
X95249998Y-62168617D01*
X95250000Y-62168578D01*
X95250000Y-61450000D01*
X94433012Y-61450000D01*
X94465925Y-61392993D01*
X94500000Y-61265826D01*
X94500000Y-61134174D01*
X94465925Y-61007007D01*
X94433012Y-60950000D01*
X95249999Y-60950000D01*
X95249999Y-60231423D01*
X95249998Y-60231411D01*
X95247205Y-60178808D01*
X95242046Y-60152135D01*
X102744388Y-60152135D01*
X102744388Y-61847870D01*
X102744389Y-61847876D01*
X102750796Y-61907483D01*
X102801090Y-62042328D01*
X102801094Y-62042335D01*
X102887340Y-62157544D01*
X102887343Y-62157547D01*
X103002552Y-62243793D01*
X103002559Y-62243797D01*
X103137405Y-62294091D01*
X103137404Y-62294091D01*
X103144332Y-62294835D01*
X103197015Y-62300500D01*
X104892760Y-62300499D01*
X104952371Y-62294091D01*
X105087219Y-62243796D01*
X105202434Y-62157546D01*
X105288684Y-62042331D01*
X105338979Y-61907483D01*
X105345388Y-61847873D01*
X105345387Y-60999998D01*
X106239420Y-60999998D01*
X106239420Y-61000001D01*
X106259252Y-61226686D01*
X106259254Y-61226697D01*
X106318146Y-61446488D01*
X106318149Y-61446497D01*
X106414319Y-61652732D01*
X106414320Y-61652734D01*
X106544842Y-61839141D01*
X106705746Y-62000045D01*
X106705749Y-62000047D01*
X106892154Y-62130568D01*
X107098392Y-62226739D01*
X107318196Y-62285635D01*
X107480118Y-62299801D01*
X107544886Y-62305468D01*
X107544888Y-62305468D01*
X107544890Y-62305468D01*
X107601695Y-62300498D01*
X107771580Y-62285635D01*
X107991384Y-62226739D01*
X108197622Y-62130568D01*
X108384027Y-62000047D01*
X108544935Y-61839139D01*
X108675456Y-61652734D01*
X108771627Y-61446496D01*
X108830523Y-61226692D01*
X108850356Y-61000000D01*
X108830523Y-60773308D01*
X108771627Y-60553504D01*
X108675456Y-60347266D01*
X108544935Y-60160861D01*
X108544933Y-60160858D01*
X108384029Y-59999954D01*
X108197622Y-59869432D01*
X108197620Y-59869431D01*
X107991385Y-59773261D01*
X107991376Y-59773258D01*
X107771585Y-59714366D01*
X107771581Y-59714365D01*
X107771580Y-59714365D01*
X107771579Y-59714364D01*
X107771574Y-59714364D01*
X107544890Y-59694532D01*
X107544886Y-59694532D01*
X107318201Y-59714364D01*
X107318190Y-59714366D01*
X107098399Y-59773258D01*
X107098390Y-59773261D01*
X106892155Y-59869431D01*
X106892153Y-59869432D01*
X106705746Y-59999954D01*
X106544842Y-60160858D01*
X106414320Y-60347265D01*
X106414319Y-60347267D01*
X106318149Y-60553502D01*
X106318146Y-60553511D01*
X106259254Y-60773302D01*
X106259252Y-60773313D01*
X106239420Y-60999998D01*
X105345387Y-60999998D01*
X105345387Y-60152128D01*
X105338979Y-60092517D01*
X105304472Y-60000000D01*
X105288685Y-59957671D01*
X105288681Y-59957664D01*
X105202435Y-59842455D01*
X105202432Y-59842452D01*
X105087223Y-59756206D01*
X105087216Y-59756202D01*
X104952370Y-59705908D01*
X104952371Y-59705908D01*
X104892771Y-59699501D01*
X104892769Y-59699500D01*
X104892761Y-59699500D01*
X104892752Y-59699500D01*
X103197017Y-59699500D01*
X103197011Y-59699501D01*
X103137404Y-59705908D01*
X103002559Y-59756202D01*
X103002552Y-59756206D01*
X102887343Y-59842452D01*
X102887340Y-59842455D01*
X102801094Y-59957664D01*
X102801090Y-59957671D01*
X102750796Y-60092517D01*
X102744389Y-60152116D01*
X102744389Y-60152123D01*
X102744388Y-60152135D01*
X95242046Y-60152135D01*
X95202762Y-59949012D01*
X95120120Y-59730024D01*
X95001660Y-59528158D01*
X95001655Y-59528151D01*
X94850788Y-59349213D01*
X94850786Y-59349211D01*
X94671848Y-59198344D01*
X94671841Y-59198339D01*
X94521300Y-59109998D01*
X112834532Y-59109998D01*
X112834532Y-59110001D01*
X112854364Y-59336686D01*
X112854366Y-59336697D01*
X112913258Y-59556488D01*
X112913261Y-59556497D01*
X113009431Y-59762732D01*
X113009432Y-59762734D01*
X113139954Y-59949141D01*
X113300858Y-60110045D01*
X113300861Y-60110047D01*
X113487266Y-60240568D01*
X113545275Y-60267618D01*
X113597714Y-60313791D01*
X113616866Y-60380984D01*
X113596650Y-60447865D01*
X113545275Y-60492382D01*
X113487267Y-60519431D01*
X113487265Y-60519432D01*
X113300858Y-60649954D01*
X113139954Y-60810858D01*
X113009432Y-60997265D01*
X113009431Y-60997267D01*
X112913261Y-61203502D01*
X112913258Y-61203511D01*
X112854366Y-61423302D01*
X112854364Y-61423313D01*
X112834532Y-61649998D01*
X112834532Y-61650001D01*
X112854364Y-61876686D01*
X112854366Y-61876697D01*
X112913258Y-62096488D01*
X112913261Y-62096497D01*
X113009431Y-62302732D01*
X113009432Y-62302734D01*
X113139954Y-62489141D01*
X113300858Y-62650045D01*
X113300861Y-62650047D01*
X113487266Y-62780568D01*
X113544681Y-62807341D01*
X113545275Y-62807618D01*
X113597714Y-62853791D01*
X113616866Y-62920984D01*
X113596650Y-62987865D01*
X113545275Y-63032382D01*
X113487267Y-63059431D01*
X113487265Y-63059432D01*
X113300858Y-63189954D01*
X113139954Y-63350858D01*
X113009432Y-63537265D01*
X113009431Y-63537267D01*
X112913261Y-63743502D01*
X112913258Y-63743511D01*
X112854366Y-63963302D01*
X112854364Y-63963313D01*
X112834532Y-64189998D01*
X112834532Y-64190001D01*
X112854364Y-64416686D01*
X112854366Y-64416697D01*
X112913258Y-64636488D01*
X112913261Y-64636497D01*
X113009431Y-64842732D01*
X113009432Y-64842734D01*
X113139954Y-65029141D01*
X113300858Y-65190045D01*
X113300861Y-65190047D01*
X113487266Y-65320568D01*
X113545275Y-65347618D01*
X113597714Y-65393791D01*
X113616866Y-65460984D01*
X113596650Y-65527865D01*
X113545275Y-65572382D01*
X113487267Y-65599431D01*
X113487265Y-65599432D01*
X113300858Y-65729954D01*
X113139954Y-65890858D01*
X113009432Y-66077265D01*
X113009431Y-66077267D01*
X112913261Y-66283502D01*
X112913258Y-66283511D01*
X112854366Y-66503302D01*
X112854364Y-66503313D01*
X112834532Y-66729998D01*
X112834532Y-66730001D01*
X112854364Y-66956686D01*
X112854366Y-66956697D01*
X112913258Y-67176488D01*
X112913261Y-67176497D01*
X113009431Y-67382732D01*
X113009432Y-67382734D01*
X113139954Y-67569141D01*
X113300858Y-67730045D01*
X113300861Y-67730047D01*
X113487266Y-67860568D01*
X113545275Y-67887618D01*
X113597714Y-67933791D01*
X113616866Y-68000984D01*
X113596650Y-68067865D01*
X113545275Y-68112382D01*
X113487267Y-68139431D01*
X113487265Y-68139432D01*
X113300858Y-68269954D01*
X113139954Y-68430858D01*
X113009432Y-68617265D01*
X113009431Y-68617267D01*
X112913261Y-68823502D01*
X112913258Y-68823511D01*
X112854366Y-69043302D01*
X112854364Y-69043313D01*
X112834532Y-69269998D01*
X112834532Y-69270001D01*
X112854364Y-69496686D01*
X112854366Y-69496697D01*
X112913258Y-69716488D01*
X112913261Y-69716497D01*
X113009431Y-69922732D01*
X113009432Y-69922734D01*
X113139954Y-70109141D01*
X113300858Y-70270045D01*
X113300861Y-70270047D01*
X113487266Y-70400568D01*
X113545275Y-70427618D01*
X113597714Y-70473791D01*
X113616866Y-70540984D01*
X113596650Y-70607865D01*
X113545275Y-70652382D01*
X113487267Y-70679431D01*
X113487265Y-70679432D01*
X113300858Y-70809954D01*
X113139954Y-70970858D01*
X113009432Y-71157265D01*
X113009431Y-71157267D01*
X112913261Y-71363502D01*
X112913258Y-71363511D01*
X112854366Y-71583302D01*
X112854364Y-71583313D01*
X112834532Y-71809998D01*
X112834532Y-71810001D01*
X112854364Y-72036686D01*
X112854366Y-72036697D01*
X112913258Y-72256488D01*
X112913261Y-72256497D01*
X113009431Y-72462732D01*
X113009432Y-72462734D01*
X113139954Y-72649141D01*
X113300858Y-72810045D01*
X113300861Y-72810047D01*
X113487266Y-72940568D01*
X113545275Y-72967618D01*
X113597714Y-73013791D01*
X113616866Y-73080984D01*
X113596650Y-73147865D01*
X113545275Y-73192382D01*
X113487267Y-73219431D01*
X113487265Y-73219432D01*
X113300858Y-73349954D01*
X113139954Y-73510858D01*
X113009432Y-73697265D01*
X113009431Y-73697267D01*
X112913261Y-73903502D01*
X112913258Y-73903511D01*
X112854366Y-74123302D01*
X112854364Y-74123313D01*
X112834532Y-74349998D01*
X112834532Y-74350001D01*
X112854364Y-74576686D01*
X112854366Y-74576697D01*
X112913258Y-74796488D01*
X112913261Y-74796497D01*
X113009431Y-75002732D01*
X113009432Y-75002734D01*
X113139954Y-75189141D01*
X113300858Y-75350045D01*
X113300861Y-75350047D01*
X113487266Y-75480568D01*
X113545275Y-75507618D01*
X113597714Y-75553791D01*
X113616866Y-75620984D01*
X113596650Y-75687865D01*
X113545275Y-75732381D01*
X113528272Y-75740310D01*
X113487267Y-75759431D01*
X113487265Y-75759432D01*
X113300858Y-75889954D01*
X113139954Y-76050858D01*
X113009432Y-76237265D01*
X113009431Y-76237267D01*
X112913261Y-76443502D01*
X112913258Y-76443511D01*
X112854366Y-76663302D01*
X112854364Y-76663313D01*
X112834532Y-76889998D01*
X112834532Y-76890001D01*
X112854364Y-77116686D01*
X112854366Y-77116697D01*
X112913258Y-77336488D01*
X112913261Y-77336497D01*
X113009431Y-77542732D01*
X113009432Y-77542734D01*
X113139954Y-77729141D01*
X113300858Y-77890045D01*
X113300861Y-77890047D01*
X113487266Y-78020568D01*
X113693504Y-78116739D01*
X113913308Y-78175635D01*
X114075230Y-78189801D01*
X114139998Y-78195468D01*
X114140000Y-78195468D01*
X114140002Y-78195468D01*
X114202511Y-78189999D01*
X114366692Y-78175635D01*
X114586496Y-78116739D01*
X114792734Y-78020568D01*
X114979139Y-77890047D01*
X115140047Y-77729139D01*
X115270568Y-77542734D01*
X115366739Y-77336496D01*
X115425635Y-77116692D01*
X115445468Y-76890000D01*
X115442207Y-76852732D01*
X115425635Y-76663313D01*
X115425635Y-76663308D01*
X115366739Y-76443504D01*
X115270568Y-76237266D01*
X115140047Y-76050861D01*
X115140045Y-76050858D01*
X114979141Y-75889954D01*
X114792734Y-75759432D01*
X114792728Y-75759429D01*
X114765038Y-75746517D01*
X114734724Y-75732381D01*
X114682285Y-75686210D01*
X114663133Y-75619017D01*
X114683348Y-75552135D01*
X114734725Y-75507618D01*
X114792734Y-75480568D01*
X114979139Y-75350047D01*
X115140047Y-75189139D01*
X115270568Y-75002734D01*
X115366739Y-74796496D01*
X115425635Y-74576692D01*
X115445468Y-74350000D01*
X115442207Y-74312732D01*
X115436847Y-74251459D01*
X115425635Y-74123308D01*
X115366739Y-73903504D01*
X115270568Y-73697266D01*
X115140047Y-73510861D01*
X115140045Y-73510858D01*
X114979141Y-73349954D01*
X114792734Y-73219432D01*
X114792728Y-73219429D01*
X114734725Y-73192382D01*
X114682285Y-73146210D01*
X114663133Y-73079017D01*
X114683348Y-73012135D01*
X114734725Y-72967618D01*
X114792734Y-72940568D01*
X114979139Y-72810047D01*
X115140047Y-72649139D01*
X115270568Y-72462734D01*
X115366739Y-72256496D01*
X115425635Y-72036692D01*
X115445468Y-71810000D01*
X115442207Y-71772732D01*
X115425635Y-71583313D01*
X115425635Y-71583308D01*
X115366739Y-71363504D01*
X115270568Y-71157266D01*
X115140047Y-70970861D01*
X115140045Y-70970858D01*
X114979141Y-70809954D01*
X114792734Y-70679432D01*
X114792728Y-70679429D01*
X114734725Y-70652382D01*
X114682285Y-70606210D01*
X114663133Y-70539017D01*
X114683348Y-70472135D01*
X114734725Y-70427618D01*
X114792734Y-70400568D01*
X114979139Y-70270047D01*
X115140047Y-70109139D01*
X115270568Y-69922734D01*
X115366739Y-69716496D01*
X115425635Y-69496692D01*
X115445468Y-69270000D01*
X115442207Y-69232732D01*
X115425635Y-69043313D01*
X115425635Y-69043308D01*
X115366739Y-68823504D01*
X115270568Y-68617266D01*
X115140047Y-68430861D01*
X115140045Y-68430858D01*
X114979141Y-68269954D01*
X114792734Y-68139432D01*
X114792728Y-68139429D01*
X114734725Y-68112382D01*
X114682285Y-68066210D01*
X114663133Y-67999017D01*
X114683348Y-67932135D01*
X114734725Y-67887618D01*
X114792734Y-67860568D01*
X114979139Y-67730047D01*
X115140047Y-67569139D01*
X115270568Y-67382734D01*
X115366739Y-67176496D01*
X115425635Y-66956692D01*
X115445468Y-66730000D01*
X115442207Y-66692732D01*
X115425635Y-66503313D01*
X115425635Y-66503308D01*
X115366739Y-66283504D01*
X115270568Y-66077266D01*
X115140047Y-65890861D01*
X115140045Y-65890858D01*
X114979141Y-65729954D01*
X114792734Y-65599432D01*
X114792728Y-65599429D01*
X114734725Y-65572382D01*
X114682285Y-65526210D01*
X114663133Y-65459017D01*
X114683348Y-65392135D01*
X114734725Y-65347618D01*
X114792734Y-65320568D01*
X114979139Y-65190047D01*
X115140047Y-65029139D01*
X115270568Y-64842734D01*
X115366739Y-64636496D01*
X115425635Y-64416692D01*
X115445468Y-64190000D01*
X115425635Y-63963308D01*
X115366739Y-63743504D01*
X115270568Y-63537266D01*
X115140047Y-63350861D01*
X115140045Y-63350858D01*
X114979141Y-63189954D01*
X114792734Y-63059432D01*
X114792728Y-63059429D01*
X114734725Y-63032382D01*
X114682285Y-62986210D01*
X114663133Y-62919017D01*
X114683348Y-62852135D01*
X114734725Y-62807618D01*
X114735319Y-62807341D01*
X114792734Y-62780568D01*
X114979139Y-62650047D01*
X115140047Y-62489139D01*
X115270568Y-62302734D01*
X115366739Y-62096496D01*
X115425635Y-61876692D01*
X115445468Y-61650000D01*
X115425635Y-61423308D01*
X115372965Y-61226739D01*
X115366741Y-61203511D01*
X115366738Y-61203502D01*
X115270568Y-60997266D01*
X115140047Y-60810861D01*
X115140045Y-60810858D01*
X114979141Y-60649954D01*
X114792734Y-60519432D01*
X114792728Y-60519429D01*
X114734725Y-60492382D01*
X114682285Y-60446210D01*
X114663133Y-60379017D01*
X114683348Y-60312135D01*
X114734725Y-60267618D01*
X114792734Y-60240568D01*
X114979139Y-60110047D01*
X115140047Y-59949139D01*
X115270568Y-59762734D01*
X115366739Y-59556496D01*
X115425635Y-59336692D01*
X115445468Y-59110000D01*
X115445468Y-59109998D01*
X125534532Y-59109998D01*
X125534532Y-59110001D01*
X125554364Y-59336686D01*
X125554366Y-59336697D01*
X125613258Y-59556488D01*
X125613261Y-59556497D01*
X125709431Y-59762732D01*
X125709432Y-59762734D01*
X125839954Y-59949141D01*
X126000858Y-60110045D01*
X126000861Y-60110047D01*
X126187266Y-60240568D01*
X126245865Y-60267893D01*
X126298305Y-60314065D01*
X126317457Y-60381258D01*
X126297242Y-60448139D01*
X126245867Y-60492657D01*
X126187515Y-60519867D01*
X126001179Y-60650342D01*
X125840342Y-60811179D01*
X125709865Y-60997517D01*
X125613734Y-61203673D01*
X125613730Y-61203682D01*
X125561127Y-61399999D01*
X125561128Y-61400000D01*
X126524314Y-61400000D01*
X126519920Y-61404394D01*
X126467259Y-61495606D01*
X126440000Y-61597339D01*
X126440000Y-61702661D01*
X126467259Y-61804394D01*
X126519920Y-61895606D01*
X126524314Y-61900000D01*
X125561128Y-61900000D01*
X125613730Y-62096317D01*
X125613734Y-62096326D01*
X125709865Y-62302482D01*
X125840342Y-62488820D01*
X126001179Y-62649657D01*
X126187518Y-62780134D01*
X126187520Y-62780135D01*
X126245865Y-62807342D01*
X126298305Y-62853514D01*
X126317457Y-62920707D01*
X126297242Y-62987589D01*
X126245867Y-63032105D01*
X126187268Y-63059431D01*
X126187264Y-63059433D01*
X126000858Y-63189954D01*
X125839954Y-63350858D01*
X125709432Y-63537265D01*
X125709431Y-63537267D01*
X125613261Y-63743502D01*
X125613258Y-63743511D01*
X125554366Y-63963302D01*
X125554364Y-63963313D01*
X125534532Y-64189998D01*
X125534532Y-64190001D01*
X125554364Y-64416686D01*
X125554366Y-64416697D01*
X125613258Y-64636488D01*
X125613261Y-64636497D01*
X125709431Y-64842732D01*
X125709432Y-64842734D01*
X125839954Y-65029141D01*
X126000858Y-65190045D01*
X126000861Y-65190047D01*
X126187266Y-65320568D01*
X126245275Y-65347618D01*
X126297714Y-65393791D01*
X126316866Y-65460984D01*
X126296650Y-65527865D01*
X126245275Y-65572382D01*
X126187267Y-65599431D01*
X126187265Y-65599432D01*
X126000858Y-65729954D01*
X125839954Y-65890858D01*
X125709432Y-66077265D01*
X125709431Y-66077267D01*
X125613261Y-66283502D01*
X125613258Y-66283511D01*
X125554366Y-66503302D01*
X125554364Y-66503313D01*
X125534532Y-66729998D01*
X125534532Y-66730001D01*
X125554364Y-66956686D01*
X125554366Y-66956697D01*
X125613258Y-67176488D01*
X125613261Y-67176497D01*
X125709431Y-67382732D01*
X125709432Y-67382734D01*
X125839954Y-67569141D01*
X126000858Y-67730045D01*
X126000861Y-67730047D01*
X126187266Y-67860568D01*
X126245275Y-67887618D01*
X126297714Y-67933791D01*
X126316866Y-68000984D01*
X126296650Y-68067865D01*
X126245275Y-68112382D01*
X126187267Y-68139431D01*
X126187265Y-68139432D01*
X126000858Y-68269954D01*
X125839954Y-68430858D01*
X125709432Y-68617265D01*
X125709431Y-68617267D01*
X125613261Y-68823502D01*
X125613258Y-68823511D01*
X125554366Y-69043302D01*
X125554364Y-69043313D01*
X125534532Y-69269998D01*
X125534532Y-69270001D01*
X125554364Y-69496686D01*
X125554366Y-69496697D01*
X125613258Y-69716488D01*
X125613261Y-69716497D01*
X125709431Y-69922732D01*
X125709432Y-69922734D01*
X125839954Y-70109141D01*
X126000858Y-70270045D01*
X126000861Y-70270047D01*
X126187266Y-70400568D01*
X126245275Y-70427618D01*
X126297714Y-70473791D01*
X126316866Y-70540984D01*
X126296650Y-70607865D01*
X126245275Y-70652382D01*
X126187267Y-70679431D01*
X126187265Y-70679432D01*
X126000858Y-70809954D01*
X125839954Y-70970858D01*
X125709432Y-71157265D01*
X125709431Y-71157267D01*
X125613261Y-71363502D01*
X125613258Y-71363511D01*
X125554366Y-71583302D01*
X125554364Y-71583313D01*
X125534532Y-71809998D01*
X125534532Y-71810001D01*
X125554364Y-72036686D01*
X125554366Y-72036697D01*
X125613258Y-72256488D01*
X125613261Y-72256497D01*
X125709431Y-72462732D01*
X125709432Y-72462734D01*
X125839954Y-72649141D01*
X126000858Y-72810045D01*
X126000861Y-72810047D01*
X126187266Y-72940568D01*
X126245275Y-72967618D01*
X126297714Y-73013791D01*
X126316866Y-73080984D01*
X126296650Y-73147865D01*
X126245275Y-73192382D01*
X126187267Y-73219431D01*
X126187265Y-73219432D01*
X126000858Y-73349954D01*
X125839954Y-73510858D01*
X125709432Y-73697265D01*
X125709431Y-73697267D01*
X125613261Y-73903502D01*
X125613258Y-73903511D01*
X125554366Y-74123302D01*
X125554364Y-74123313D01*
X125534532Y-74349998D01*
X125534532Y-74350001D01*
X125554364Y-74576686D01*
X125554366Y-74576697D01*
X125613258Y-74796488D01*
X125613261Y-74796497D01*
X125709431Y-75002732D01*
X125709432Y-75002734D01*
X125839954Y-75189141D01*
X126000858Y-75350045D01*
X126026086Y-75367710D01*
X126069711Y-75422287D01*
X126076905Y-75491785D01*
X126045382Y-75554140D01*
X125985153Y-75589554D01*
X125968221Y-75592574D01*
X125932626Y-75596401D01*
X125932620Y-75596403D01*
X125797913Y-75646645D01*
X125797906Y-75646649D01*
X125682812Y-75732809D01*
X125682809Y-75732812D01*
X125596649Y-75847906D01*
X125596645Y-75847913D01*
X125546403Y-75982620D01*
X125546401Y-75982627D01*
X125540000Y-76042155D01*
X125540000Y-76640000D01*
X126524314Y-76640000D01*
X126519920Y-76644394D01*
X126467259Y-76735606D01*
X126440000Y-76837339D01*
X126440000Y-76942661D01*
X126467259Y-77044394D01*
X126519920Y-77135606D01*
X126524314Y-77140000D01*
X125540000Y-77140000D01*
X125540000Y-77737844D01*
X125546401Y-77797372D01*
X125546403Y-77797379D01*
X125596645Y-77932086D01*
X125596649Y-77932093D01*
X125682809Y-78047187D01*
X125682812Y-78047190D01*
X125797906Y-78133350D01*
X125797913Y-78133354D01*
X125932620Y-78183596D01*
X125932627Y-78183598D01*
X125992155Y-78189999D01*
X125992172Y-78190000D01*
X126590000Y-78190000D01*
X126590000Y-77205686D01*
X126594394Y-77210080D01*
X126685606Y-77262741D01*
X126787339Y-77290000D01*
X126892661Y-77290000D01*
X126994394Y-77262741D01*
X127085606Y-77210080D01*
X127090000Y-77205686D01*
X127090000Y-78190000D01*
X127687828Y-78190000D01*
X127687844Y-78189999D01*
X127747372Y-78183598D01*
X127747379Y-78183596D01*
X127882086Y-78133354D01*
X127882093Y-78133350D01*
X127997187Y-78047190D01*
X127997190Y-78047187D01*
X128083350Y-77932093D01*
X128083354Y-77932086D01*
X128133596Y-77797379D01*
X128133598Y-77797372D01*
X128139999Y-77737844D01*
X128140000Y-77737827D01*
X128140000Y-77140000D01*
X127155686Y-77140000D01*
X127160080Y-77135606D01*
X127212741Y-77044394D01*
X127240000Y-76942661D01*
X127240000Y-76837339D01*
X127212741Y-76735606D01*
X127160080Y-76644394D01*
X127155686Y-76640000D01*
X128140000Y-76640000D01*
X128140000Y-76199998D01*
X146014532Y-76199998D01*
X146014532Y-76200001D01*
X146034364Y-76426686D01*
X146034366Y-76426697D01*
X146093258Y-76646488D01*
X146093261Y-76646497D01*
X146189431Y-76852732D01*
X146189432Y-76852734D01*
X146319954Y-77039141D01*
X146480858Y-77200045D01*
X146480861Y-77200047D01*
X146667266Y-77330568D01*
X146873504Y-77426739D01*
X147093308Y-77485635D01*
X147255230Y-77499801D01*
X147319998Y-77505468D01*
X147320000Y-77505468D01*
X147320002Y-77505468D01*
X147376673Y-77500509D01*
X147546692Y-77485635D01*
X147766496Y-77426739D01*
X147972734Y-77330568D01*
X148159139Y-77200047D01*
X148320047Y-77039139D01*
X148450568Y-76852734D01*
X148546739Y-76646496D01*
X148605635Y-76426692D01*
X148625468Y-76200000D01*
X148605635Y-75973308D01*
X148560916Y-75806415D01*
X148546741Y-75753511D01*
X148546738Y-75753502D01*
X148537089Y-75732809D01*
X148450568Y-75547266D01*
X148352839Y-75407693D01*
X148320045Y-75360858D01*
X148159141Y-75199954D01*
X147972734Y-75069432D01*
X147972732Y-75069431D01*
X147766497Y-74973261D01*
X147766488Y-74973258D01*
X147546697Y-74914366D01*
X147546693Y-74914365D01*
X147546692Y-74914365D01*
X147546691Y-74914364D01*
X147546686Y-74914364D01*
X147320002Y-74894532D01*
X147319998Y-74894532D01*
X147093313Y-74914364D01*
X147093302Y-74914366D01*
X146873511Y-74973258D01*
X146873502Y-74973261D01*
X146667267Y-75069431D01*
X146667265Y-75069432D01*
X146480858Y-75199954D01*
X146319954Y-75360858D01*
X146189432Y-75547265D01*
X146189431Y-75547267D01*
X146093261Y-75753502D01*
X146093258Y-75753511D01*
X146034366Y-75973302D01*
X146034364Y-75973313D01*
X146014532Y-76199998D01*
X128140000Y-76199998D01*
X128140000Y-76042172D01*
X128139999Y-76042155D01*
X128133598Y-75982627D01*
X128133596Y-75982620D01*
X128083354Y-75847913D01*
X128083350Y-75847906D01*
X127997190Y-75732812D01*
X127997187Y-75732809D01*
X127882093Y-75646649D01*
X127882086Y-75646645D01*
X127747379Y-75596403D01*
X127747373Y-75596401D01*
X127711778Y-75592574D01*
X127647228Y-75565835D01*
X127607381Y-75508441D01*
X127604888Y-75438616D01*
X127640542Y-75378528D01*
X127653913Y-75367710D01*
X127679139Y-75350047D01*
X127821457Y-75207727D01*
X127840237Y-75192315D01*
X127937782Y-75127139D01*
X128077139Y-74987782D01*
X128186632Y-74823914D01*
X128262051Y-74641835D01*
X128290435Y-74499141D01*
X128300500Y-74448543D01*
X128300500Y-74251456D01*
X128262052Y-74058170D01*
X128262051Y-74058169D01*
X128262051Y-74058165D01*
X128197988Y-73903502D01*
X128186635Y-73876092D01*
X128186628Y-73876079D01*
X128077139Y-73712218D01*
X128077136Y-73712214D01*
X127937782Y-73572860D01*
X127840241Y-73507686D01*
X127821455Y-73492269D01*
X127679139Y-73349953D01*
X127679138Y-73349952D01*
X127679137Y-73349951D01*
X127492734Y-73219432D01*
X127492728Y-73219429D01*
X127434725Y-73192382D01*
X127382285Y-73146210D01*
X127363133Y-73079017D01*
X127383348Y-73012135D01*
X127434725Y-72967618D01*
X127492734Y-72940568D01*
X127679139Y-72810047D01*
X127840047Y-72649139D01*
X127970568Y-72462734D01*
X128066739Y-72256496D01*
X128125635Y-72036692D01*
X128145468Y-71810000D01*
X128142207Y-71772732D01*
X128125635Y-71583313D01*
X128125635Y-71583308D01*
X128066739Y-71363504D01*
X127970568Y-71157266D01*
X127840047Y-70970861D01*
X127840045Y-70970858D01*
X127679141Y-70809954D01*
X127492734Y-70679432D01*
X127492728Y-70679429D01*
X127434725Y-70652382D01*
X127382285Y-70606210D01*
X127363133Y-70539017D01*
X127383348Y-70472135D01*
X127434725Y-70427618D01*
X127492734Y-70400568D01*
X127679139Y-70270047D01*
X127840047Y-70109139D01*
X127970568Y-69922734D01*
X128066739Y-69716496D01*
X128125635Y-69496692D01*
X128145468Y-69270000D01*
X128142207Y-69232732D01*
X128125635Y-69043313D01*
X128125635Y-69043308D01*
X128066739Y-68823504D01*
X127970568Y-68617266D01*
X127840047Y-68430861D01*
X127840045Y-68430858D01*
X127679141Y-68269954D01*
X127492734Y-68139432D01*
X127492728Y-68139429D01*
X127434725Y-68112382D01*
X127382285Y-68066210D01*
X127363133Y-67999017D01*
X127383348Y-67932135D01*
X127434725Y-67887618D01*
X127492734Y-67860568D01*
X127679139Y-67730047D01*
X127840047Y-67569139D01*
X127970568Y-67382734D01*
X128066739Y-67176496D01*
X128125635Y-66956692D01*
X128145468Y-66730000D01*
X128142207Y-66692732D01*
X128125635Y-66503313D01*
X128125635Y-66503308D01*
X128066739Y-66283504D01*
X127970568Y-66077266D01*
X127840047Y-65890861D01*
X127840045Y-65890858D01*
X127679141Y-65729954D01*
X127492734Y-65599432D01*
X127492728Y-65599429D01*
X127434725Y-65572382D01*
X127382285Y-65526210D01*
X127363133Y-65459017D01*
X127383348Y-65392135D01*
X127434725Y-65347618D01*
X127492734Y-65320568D01*
X127679139Y-65190047D01*
X127840047Y-65029139D01*
X127970568Y-64842734D01*
X128066739Y-64636496D01*
X128125635Y-64416692D01*
X128145031Y-64195000D01*
X132984829Y-64195000D01*
X133003482Y-64432020D01*
X133003482Y-64432023D01*
X133003483Y-64432025D01*
X133058987Y-64663214D01*
X133058988Y-64663216D01*
X133149972Y-64882873D01*
X133274199Y-65085592D01*
X133274202Y-65085597D01*
X133344195Y-65167548D01*
X133428612Y-65266388D01*
X133492048Y-65320567D01*
X133550757Y-65370710D01*
X133588950Y-65429217D01*
X133589448Y-65499085D01*
X133552094Y-65558131D01*
X133550757Y-65559290D01*
X133428612Y-65663612D01*
X133274202Y-65844402D01*
X133274199Y-65844407D01*
X133149972Y-66047126D01*
X133059028Y-66266686D01*
X133058987Y-66266786D01*
X133054972Y-66283511D01*
X133003482Y-66497979D01*
X132984829Y-66735000D01*
X133003482Y-66972020D01*
X133003482Y-66972023D01*
X133003483Y-66972025D01*
X133058987Y-67203214D01*
X133058988Y-67203216D01*
X133149972Y-67422873D01*
X133274199Y-67625592D01*
X133274202Y-67625597D01*
X133344195Y-67707548D01*
X133428612Y-67806388D01*
X133492048Y-67860567D01*
X133550757Y-67910710D01*
X133588950Y-67969217D01*
X133589448Y-68039085D01*
X133552094Y-68098131D01*
X133550757Y-68099290D01*
X133428612Y-68203612D01*
X133274202Y-68384402D01*
X133274199Y-68384407D01*
X133149972Y-68587126D01*
X133059028Y-68806686D01*
X133058987Y-68806786D01*
X133054972Y-68823511D01*
X133003482Y-69037979D01*
X132984829Y-69275000D01*
X133003482Y-69512020D01*
X133003482Y-69512023D01*
X133003483Y-69512025D01*
X133058987Y-69743214D01*
X133058988Y-69743216D01*
X133149972Y-69962873D01*
X133274199Y-70165592D01*
X133274202Y-70165597D01*
X133344195Y-70247548D01*
X133428612Y-70346388D01*
X133492048Y-70400567D01*
X133550757Y-70450710D01*
X133588950Y-70509217D01*
X133589448Y-70579085D01*
X133552094Y-70638131D01*
X133550757Y-70639290D01*
X133428612Y-70743612D01*
X133274202Y-70924402D01*
X133274199Y-70924407D01*
X133149972Y-71127126D01*
X133059028Y-71346686D01*
X133058987Y-71346786D01*
X133054972Y-71363511D01*
X133003482Y-71577979D01*
X132984829Y-71815000D01*
X133003482Y-72052020D01*
X133003482Y-72052023D01*
X133003483Y-72052025D01*
X133058987Y-72283214D01*
X133058988Y-72283216D01*
X133149972Y-72502873D01*
X133274199Y-72705592D01*
X133274202Y-72705597D01*
X133328701Y-72769407D01*
X133428612Y-72886388D01*
X133523721Y-72967618D01*
X133609402Y-73040797D01*
X133609407Y-73040800D01*
X133812126Y-73165027D01*
X133889786Y-73197194D01*
X134031786Y-73256013D01*
X134262975Y-73311517D01*
X134500000Y-73330171D01*
X134737025Y-73311517D01*
X134968214Y-73256013D01*
X135187873Y-73165027D01*
X135390595Y-73040799D01*
X135571388Y-72886388D01*
X135725799Y-72705595D01*
X135850027Y-72502873D01*
X135941013Y-72283214D01*
X135996517Y-72052025D01*
X136015171Y-71815000D01*
X135996517Y-71577975D01*
X135941013Y-71346786D01*
X135882194Y-71204786D01*
X135850027Y-71127126D01*
X135845659Y-71119998D01*
X140934532Y-71119998D01*
X140934532Y-71120001D01*
X140954364Y-71346686D01*
X140954366Y-71346697D01*
X141013258Y-71566488D01*
X141013261Y-71566497D01*
X141109431Y-71772732D01*
X141109432Y-71772734D01*
X141239954Y-71959141D01*
X141400858Y-72120045D01*
X141400861Y-72120047D01*
X141587266Y-72250568D01*
X141793504Y-72346739D01*
X142013308Y-72405635D01*
X142175230Y-72419801D01*
X142239998Y-72425468D01*
X142240000Y-72425468D01*
X142240002Y-72425468D01*
X142296673Y-72420509D01*
X142466692Y-72405635D01*
X142686496Y-72346739D01*
X142892734Y-72250568D01*
X143079139Y-72120047D01*
X143240047Y-71959139D01*
X143370568Y-71772734D01*
X143466739Y-71566496D01*
X143525635Y-71346692D01*
X143542634Y-71152384D01*
X143545468Y-71120001D01*
X143545468Y-71119998D01*
X143532420Y-70970858D01*
X143525635Y-70893308D01*
X143480916Y-70726415D01*
X143466741Y-70673511D01*
X143466738Y-70673502D01*
X143370568Y-70467266D01*
X143240047Y-70280861D01*
X143240045Y-70280858D01*
X143079141Y-70119954D01*
X142892734Y-69989432D01*
X142892732Y-69989431D01*
X142686497Y-69893261D01*
X142686488Y-69893258D01*
X142466697Y-69834366D01*
X142466693Y-69834365D01*
X142466692Y-69834365D01*
X142466691Y-69834364D01*
X142466686Y-69834364D01*
X142240002Y-69814532D01*
X142239998Y-69814532D01*
X142013313Y-69834364D01*
X142013302Y-69834366D01*
X141793511Y-69893258D01*
X141793502Y-69893261D01*
X141587267Y-69989431D01*
X141587265Y-69989432D01*
X141400858Y-70119954D01*
X141239954Y-70280858D01*
X141109432Y-70467265D01*
X141109431Y-70467267D01*
X141013261Y-70673502D01*
X141013258Y-70673511D01*
X140954366Y-70893302D01*
X140954364Y-70893313D01*
X140934532Y-71119998D01*
X135845659Y-71119998D01*
X135725800Y-70924407D01*
X135725797Y-70924402D01*
X135628048Y-70809953D01*
X135571388Y-70743612D01*
X135449242Y-70639290D01*
X135411049Y-70580783D01*
X135410550Y-70510916D01*
X135447904Y-70451869D01*
X135449242Y-70450710D01*
X135476279Y-70427618D01*
X135571388Y-70346388D01*
X135725799Y-70165595D01*
X135850027Y-69962873D01*
X135941013Y-69743214D01*
X135996517Y-69512025D01*
X136015171Y-69275000D01*
X135996517Y-69037975D01*
X135941013Y-68806786D01*
X135868888Y-68632661D01*
X135850027Y-68587126D01*
X135725800Y-68384407D01*
X135725797Y-68384402D01*
X135619479Y-68259920D01*
X135571388Y-68203612D01*
X135449242Y-68099290D01*
X135411049Y-68040783D01*
X135410550Y-67970916D01*
X135447904Y-67911869D01*
X135449242Y-67910710D01*
X135476279Y-67887618D01*
X135571388Y-67806388D01*
X135725799Y-67625595D01*
X135850027Y-67422873D01*
X135941013Y-67203214D01*
X135996517Y-66972025D01*
X136015171Y-66735000D01*
X135996517Y-66497975D01*
X135941013Y-66266786D01*
X135882194Y-66124786D01*
X135850027Y-66047126D01*
X135725800Y-65844407D01*
X135725797Y-65844402D01*
X135628048Y-65729953D01*
X135571388Y-65663612D01*
X135449242Y-65559290D01*
X135411049Y-65500783D01*
X135410550Y-65430916D01*
X135447904Y-65371869D01*
X135449242Y-65370710D01*
X135476279Y-65347618D01*
X135571388Y-65266388D01*
X135725799Y-65085595D01*
X135850027Y-64882873D01*
X135941013Y-64663214D01*
X135996517Y-64432025D01*
X136015171Y-64195000D01*
X135996517Y-63957975D01*
X135941013Y-63726786D01*
X135882194Y-63584786D01*
X135850027Y-63507126D01*
X135725800Y-63304407D01*
X135725797Y-63304402D01*
X135638047Y-63201660D01*
X135571388Y-63123612D01*
X135412125Y-62987589D01*
X135390597Y-62969202D01*
X135390592Y-62969199D01*
X135187873Y-62844972D01*
X134968216Y-62753988D01*
X134968214Y-62753987D01*
X134737025Y-62698483D01*
X134737023Y-62698482D01*
X134737020Y-62698482D01*
X134500000Y-62679829D01*
X134262979Y-62698482D01*
X134262975Y-62698483D01*
X134031786Y-62753987D01*
X134031784Y-62753987D01*
X134031783Y-62753988D01*
X133812126Y-62844972D01*
X133609407Y-62969199D01*
X133609402Y-62969202D01*
X133428612Y-63123612D01*
X133274202Y-63304402D01*
X133274199Y-63304407D01*
X133149972Y-63507126D01*
X133058988Y-63726783D01*
X133058987Y-63726786D01*
X133054972Y-63743511D01*
X133003482Y-63957979D01*
X132984829Y-64195000D01*
X128145031Y-64195000D01*
X128145468Y-64190000D01*
X128125635Y-63963308D01*
X128066739Y-63743504D01*
X127970568Y-63537266D01*
X127840047Y-63350861D01*
X127840045Y-63350858D01*
X127679141Y-63189954D01*
X127492734Y-63059432D01*
X127492732Y-63059431D01*
X127434725Y-63032382D01*
X127434132Y-63032105D01*
X127381694Y-62985934D01*
X127362542Y-62918740D01*
X127382758Y-62851859D01*
X127434134Y-62807341D01*
X127492484Y-62780132D01*
X127678820Y-62649657D01*
X127839657Y-62488820D01*
X127970134Y-62302482D01*
X128066265Y-62096326D01*
X128066269Y-62096317D01*
X128118872Y-61900000D01*
X127155686Y-61900000D01*
X127160080Y-61895606D01*
X127212741Y-61804394D01*
X127240000Y-61702661D01*
X127240000Y-61597339D01*
X127212741Y-61495606D01*
X127160080Y-61404394D01*
X127155686Y-61400000D01*
X128118872Y-61400000D01*
X128118872Y-61399999D01*
X128066269Y-61203682D01*
X128066265Y-61203673D01*
X127970134Y-60997517D01*
X127839657Y-60811179D01*
X127678820Y-60650342D01*
X127492482Y-60519865D01*
X127434133Y-60492657D01*
X127381694Y-60446484D01*
X127362542Y-60379291D01*
X127382758Y-60312410D01*
X127434129Y-60267895D01*
X127492734Y-60240568D01*
X127679139Y-60110047D01*
X127789188Y-59999998D01*
X132194532Y-59999998D01*
X132194532Y-60000001D01*
X132214364Y-60226686D01*
X132214366Y-60226697D01*
X132273257Y-60446484D01*
X132273261Y-60446497D01*
X132369431Y-60652732D01*
X132369432Y-60652734D01*
X132499954Y-60839141D01*
X132660858Y-61000045D01*
X132660861Y-61000047D01*
X132847266Y-61130568D01*
X133053504Y-61226739D01*
X133273308Y-61285635D01*
X133435230Y-61299801D01*
X133499998Y-61305468D01*
X133500000Y-61305468D01*
X133500002Y-61305468D01*
X133556673Y-61300509D01*
X133726692Y-61285635D01*
X133946496Y-61226739D01*
X134152734Y-61130568D01*
X134339139Y-61000047D01*
X134500047Y-60839139D01*
X134630568Y-60652734D01*
X134726739Y-60446496D01*
X134726740Y-60446490D01*
X134726743Y-60446484D01*
X134774595Y-60267893D01*
X134785635Y-60226692D01*
X134805468Y-60000000D01*
X134785635Y-59773308D01*
X134726739Y-59553504D01*
X134630568Y-59347266D01*
X134500047Y-59160861D01*
X134500045Y-59160858D01*
X134339141Y-58999954D01*
X134152734Y-58869432D01*
X134152732Y-58869431D01*
X133946497Y-58773261D01*
X133946488Y-58773258D01*
X133726697Y-58714366D01*
X133726693Y-58714365D01*
X133726692Y-58714365D01*
X133726691Y-58714364D01*
X133726686Y-58714364D01*
X133500002Y-58694532D01*
X133499998Y-58694532D01*
X133273313Y-58714364D01*
X133273302Y-58714366D01*
X133053511Y-58773258D01*
X133053502Y-58773261D01*
X132847267Y-58869431D01*
X132847265Y-58869432D01*
X132660858Y-58999954D01*
X132499954Y-59160858D01*
X132369432Y-59347265D01*
X132369431Y-59347267D01*
X132273261Y-59553502D01*
X132273258Y-59553511D01*
X132214366Y-59773302D01*
X132214364Y-59773313D01*
X132194532Y-59999998D01*
X127789188Y-59999998D01*
X127840047Y-59949139D01*
X127970568Y-59762734D01*
X128066739Y-59556496D01*
X128125635Y-59336692D01*
X128145468Y-59110000D01*
X128125635Y-58883308D01*
X128066739Y-58663504D01*
X127970568Y-58457266D01*
X127840047Y-58270861D01*
X127840045Y-58270858D01*
X127679141Y-58109954D01*
X127492734Y-57979432D01*
X127492732Y-57979431D01*
X127286497Y-57883261D01*
X127286488Y-57883258D01*
X127066697Y-57824366D01*
X127066693Y-57824365D01*
X127066692Y-57824365D01*
X127066691Y-57824364D01*
X127066686Y-57824364D01*
X126840002Y-57804532D01*
X126839998Y-57804532D01*
X126613313Y-57824364D01*
X126613302Y-57824366D01*
X126393511Y-57883258D01*
X126393502Y-57883261D01*
X126187267Y-57979431D01*
X126187265Y-57979432D01*
X126000858Y-58109954D01*
X125839954Y-58270858D01*
X125709432Y-58457265D01*
X125709431Y-58457267D01*
X125613261Y-58663502D01*
X125613258Y-58663511D01*
X125554366Y-58883302D01*
X125554364Y-58883313D01*
X125534532Y-59109998D01*
X115445468Y-59109998D01*
X115425635Y-58883308D01*
X115366739Y-58663504D01*
X115270568Y-58457266D01*
X115140047Y-58270861D01*
X115140045Y-58270858D01*
X114979141Y-58109954D01*
X114792734Y-57979432D01*
X114792732Y-57979431D01*
X114586497Y-57883261D01*
X114586488Y-57883258D01*
X114366697Y-57824366D01*
X114366693Y-57824365D01*
X114366692Y-57824365D01*
X114366691Y-57824364D01*
X114366686Y-57824364D01*
X114140002Y-57804532D01*
X114139998Y-57804532D01*
X113913313Y-57824364D01*
X113913302Y-57824366D01*
X113693511Y-57883258D01*
X113693502Y-57883261D01*
X113487267Y-57979431D01*
X113487265Y-57979432D01*
X113300858Y-58109954D01*
X113139954Y-58270858D01*
X113009432Y-58457265D01*
X113009431Y-58457267D01*
X112913261Y-58663502D01*
X112913258Y-58663511D01*
X112854366Y-58883302D01*
X112854364Y-58883313D01*
X112834532Y-59109998D01*
X94521300Y-59109998D01*
X94469975Y-59079879D01*
X94250984Y-58997236D01*
X94245840Y-58996241D01*
X94183760Y-58964180D01*
X94148869Y-58903646D01*
X94152244Y-58833858D01*
X94192814Y-58776973D01*
X94257697Y-58751052D01*
X94269374Y-58750499D01*
X97797872Y-58750499D01*
X97857483Y-58744091D01*
X97992331Y-58693796D01*
X98107546Y-58607546D01*
X98193796Y-58492331D01*
X98244091Y-58357483D01*
X98250500Y-58297873D01*
X98250499Y-55652135D01*
X132199500Y-55652135D01*
X132199500Y-57347870D01*
X132199501Y-57347876D01*
X132205908Y-57407483D01*
X132256202Y-57542328D01*
X132256206Y-57542335D01*
X132342452Y-57657544D01*
X132342455Y-57657547D01*
X132457664Y-57743793D01*
X132457671Y-57743797D01*
X132592517Y-57794091D01*
X132592516Y-57794091D01*
X132599444Y-57794835D01*
X132652127Y-57800500D01*
X134347872Y-57800499D01*
X134407483Y-57794091D01*
X134542331Y-57743796D01*
X134657546Y-57657546D01*
X134743796Y-57542331D01*
X134794091Y-57407483D01*
X134800500Y-57347873D01*
X134800499Y-55652128D01*
X134794091Y-55592517D01*
X134743796Y-55457669D01*
X134743795Y-55457668D01*
X134743793Y-55457664D01*
X134657547Y-55342455D01*
X134657544Y-55342452D01*
X134542335Y-55256206D01*
X134542328Y-55256202D01*
X134407482Y-55205908D01*
X134407483Y-55205908D01*
X134347883Y-55199501D01*
X134347881Y-55199500D01*
X134347873Y-55199500D01*
X134347864Y-55199500D01*
X132652129Y-55199500D01*
X132652123Y-55199501D01*
X132592516Y-55205908D01*
X132457671Y-55256202D01*
X132457664Y-55256206D01*
X132342455Y-55342452D01*
X132342452Y-55342455D01*
X132256206Y-55457664D01*
X132256202Y-55457671D01*
X132205908Y-55592517D01*
X132199501Y-55652116D01*
X132199501Y-55652123D01*
X132199500Y-55652135D01*
X98250499Y-55652135D01*
X98250499Y-54702128D01*
X98244091Y-54642517D01*
X98204571Y-54536559D01*
X98193797Y-54507671D01*
X98193793Y-54507664D01*
X98107547Y-54392455D01*
X98107544Y-54392452D01*
X97992335Y-54306206D01*
X97992328Y-54306202D01*
X97857482Y-54255908D01*
X97857483Y-54255908D01*
X97797883Y-54249501D01*
X97797881Y-54249500D01*
X97797873Y-54249500D01*
X97797864Y-54249500D01*
X94202129Y-54249500D01*
X94202123Y-54249501D01*
X94142516Y-54255908D01*
X94007671Y-54306202D01*
X94007664Y-54306206D01*
X93892455Y-54392452D01*
X93892452Y-54392455D01*
X93806206Y-54507664D01*
X93806202Y-54507671D01*
X93755908Y-54642517D01*
X93749501Y-54702116D01*
X93749501Y-54702123D01*
X93749500Y-54702135D01*
X93749500Y-58297870D01*
X93749501Y-58297876D01*
X93755908Y-58357483D01*
X93806202Y-58492328D01*
X93806206Y-58492335D01*
X93892452Y-58607544D01*
X93892455Y-58607547D01*
X94007664Y-58693793D01*
X94007673Y-58693798D01*
X94056506Y-58712011D01*
X94112440Y-58753881D01*
X94136858Y-58819345D01*
X94122007Y-58887618D01*
X94072603Y-58937024D01*
X94006598Y-58952018D01*
X93968625Y-58950001D01*
X93968579Y-58950000D01*
X93250000Y-58950000D01*
X93250000Y-60700000D01*
X92750000Y-60700000D01*
X92750000Y-58950000D01*
X92031423Y-58950000D01*
X92031411Y-58950001D01*
X91978808Y-58952794D01*
X91749012Y-58997237D01*
X91530024Y-59079879D01*
X91328158Y-59198339D01*
X91328151Y-59198344D01*
X91149213Y-59349211D01*
X91149211Y-59349213D01*
X90998344Y-59528151D01*
X90998339Y-59528158D01*
X90879879Y-59730024D01*
X90797237Y-59949012D01*
X90752794Y-60178808D01*
X90752794Y-60178809D01*
X90750001Y-60231382D01*
X90750000Y-60231421D01*
X81500500Y-60231421D01*
X81500500Y-55435803D01*
X88000000Y-55435803D01*
X88000000Y-56250000D01*
X89500000Y-56250000D01*
X89500000Y-56750000D01*
X88000001Y-56750000D01*
X88000001Y-57564197D01*
X88010400Y-57696332D01*
X88065377Y-57914519D01*
X88158428Y-58119374D01*
X88158431Y-58119380D01*
X88286559Y-58304323D01*
X88286569Y-58304335D01*
X88445664Y-58463430D01*
X88445676Y-58463440D01*
X88630619Y-58591568D01*
X88630625Y-58591571D01*
X88835480Y-58684622D01*
X89053667Y-58739599D01*
X89185810Y-58749999D01*
X89749999Y-58749999D01*
X89750000Y-58749998D01*
X89750000Y-57933012D01*
X89807007Y-57965925D01*
X89934174Y-58000000D01*
X90065826Y-58000000D01*
X90192993Y-57965925D01*
X90250000Y-57933012D01*
X90250000Y-58749999D01*
X90814182Y-58749999D01*
X90814197Y-58749998D01*
X90946332Y-58739599D01*
X91164519Y-58684622D01*
X91369374Y-58591571D01*
X91369380Y-58591568D01*
X91554323Y-58463440D01*
X91554335Y-58463430D01*
X91713430Y-58304335D01*
X91713440Y-58304323D01*
X91841568Y-58119380D01*
X91841571Y-58119374D01*
X91934622Y-57914519D01*
X91989599Y-57696332D01*
X91999999Y-57564196D01*
X92000000Y-57564184D01*
X92000000Y-56750000D01*
X90500000Y-56750000D01*
X90500000Y-56250000D01*
X91999999Y-56250000D01*
X91999999Y-55435817D01*
X91999998Y-55435802D01*
X91989599Y-55303667D01*
X91934622Y-55085480D01*
X91841571Y-54880625D01*
X91841568Y-54880619D01*
X91713440Y-54695676D01*
X91713430Y-54695664D01*
X91554335Y-54536569D01*
X91554323Y-54536559D01*
X91369380Y-54408431D01*
X91369374Y-54408428D01*
X91164519Y-54315377D01*
X90946332Y-54260400D01*
X90814196Y-54250000D01*
X90250000Y-54250000D01*
X90250000Y-55066988D01*
X90192993Y-55034075D01*
X90065826Y-55000000D01*
X89934174Y-55000000D01*
X89807007Y-55034075D01*
X89750000Y-55066988D01*
X89750000Y-54250000D01*
X89185817Y-54250000D01*
X89185802Y-54250001D01*
X89053667Y-54260400D01*
X88835480Y-54315377D01*
X88630625Y-54408428D01*
X88630619Y-54408431D01*
X88445676Y-54536559D01*
X88445664Y-54536569D01*
X88286569Y-54695664D01*
X88286559Y-54695676D01*
X88158431Y-54880619D01*
X88158428Y-54880625D01*
X88065377Y-55085480D01*
X88010400Y-55303667D01*
X88000000Y-55435803D01*
X81500500Y-55435803D01*
X81500500Y-50892135D01*
X107979500Y-50892135D01*
X107979500Y-52587870D01*
X107979501Y-52587876D01*
X107985908Y-52647483D01*
X108036202Y-52782328D01*
X108036206Y-52782335D01*
X108122452Y-52897544D01*
X108122455Y-52897547D01*
X108237664Y-52983793D01*
X108237671Y-52983797D01*
X108372517Y-53034091D01*
X108372516Y-53034091D01*
X108379444Y-53034835D01*
X108432127Y-53040500D01*
X110127872Y-53040499D01*
X110187483Y-53034091D01*
X110322331Y-52983796D01*
X110437546Y-52897546D01*
X110523796Y-52782331D01*
X110574091Y-52647483D01*
X110577862Y-52612401D01*
X110604599Y-52547855D01*
X110661990Y-52508006D01*
X110731816Y-52505511D01*
X110791905Y-52541163D01*
X110802726Y-52554536D01*
X110819956Y-52579143D01*
X110980858Y-52740045D01*
X110980861Y-52740047D01*
X111167266Y-52870568D01*
X111373504Y-52966739D01*
X111593308Y-53025635D01*
X111755230Y-53039801D01*
X111819998Y-53045468D01*
X111820000Y-53045468D01*
X111820002Y-53045468D01*
X111876807Y-53040498D01*
X112046692Y-53025635D01*
X112266496Y-52966739D01*
X112472734Y-52870568D01*
X112659139Y-52740047D01*
X112820047Y-52579139D01*
X112950568Y-52392734D01*
X112977618Y-52334724D01*
X113023790Y-52282285D01*
X113090983Y-52263133D01*
X113157865Y-52283348D01*
X113202382Y-52334725D01*
X113229429Y-52392728D01*
X113229432Y-52392734D01*
X113359954Y-52579141D01*
X113520858Y-52740045D01*
X113520861Y-52740047D01*
X113707266Y-52870568D01*
X113913504Y-52966739D01*
X114133308Y-53025635D01*
X114295230Y-53039801D01*
X114359998Y-53045468D01*
X114360000Y-53045468D01*
X114360002Y-53045468D01*
X114416807Y-53040498D01*
X114586692Y-53025635D01*
X114806496Y-52966739D01*
X115012734Y-52870568D01*
X115199139Y-52740047D01*
X115360047Y-52579139D01*
X115490568Y-52392734D01*
X115517618Y-52334724D01*
X115563790Y-52282285D01*
X115630983Y-52263133D01*
X115697865Y-52283348D01*
X115742382Y-52334725D01*
X115769429Y-52392728D01*
X115769432Y-52392734D01*
X115899954Y-52579141D01*
X116060858Y-52740045D01*
X116060861Y-52740047D01*
X116247266Y-52870568D01*
X116453504Y-52966739D01*
X116673308Y-53025635D01*
X116835230Y-53039801D01*
X116899998Y-53045468D01*
X116900000Y-53045468D01*
X116900002Y-53045468D01*
X116956807Y-53040498D01*
X117126692Y-53025635D01*
X117346496Y-52966739D01*
X117552734Y-52870568D01*
X117739139Y-52740047D01*
X117900047Y-52579139D01*
X118030568Y-52392734D01*
X118057618Y-52334724D01*
X118103790Y-52282285D01*
X118170983Y-52263133D01*
X118237865Y-52283348D01*
X118282382Y-52334725D01*
X118309429Y-52392728D01*
X118309432Y-52392734D01*
X118439954Y-52579141D01*
X118600858Y-52740045D01*
X118600861Y-52740047D01*
X118787266Y-52870568D01*
X118993504Y-52966739D01*
X119213308Y-53025635D01*
X119375230Y-53039801D01*
X119439998Y-53045468D01*
X119440000Y-53045468D01*
X119440002Y-53045468D01*
X119496807Y-53040498D01*
X119666692Y-53025635D01*
X119886496Y-52966739D01*
X120092734Y-52870568D01*
X120279139Y-52740047D01*
X120440047Y-52579139D01*
X120570568Y-52392734D01*
X120597895Y-52334129D01*
X120644064Y-52281695D01*
X120711257Y-52262542D01*
X120778139Y-52282757D01*
X120822657Y-52334133D01*
X120849865Y-52392482D01*
X120980342Y-52578820D01*
X121141179Y-52739657D01*
X121327517Y-52870134D01*
X121533673Y-52966265D01*
X121533682Y-52966269D01*
X121729999Y-53018872D01*
X121730000Y-53018871D01*
X121730000Y-52173012D01*
X121787007Y-52205925D01*
X121914174Y-52240000D01*
X122045826Y-52240000D01*
X122172993Y-52205925D01*
X122230000Y-52173012D01*
X122230000Y-53018872D01*
X122426317Y-52966269D01*
X122426326Y-52966265D01*
X122632482Y-52870134D01*
X122818820Y-52739657D01*
X122979657Y-52578820D01*
X123110134Y-52392481D01*
X123110135Y-52392479D01*
X123137618Y-52333543D01*
X123183790Y-52281103D01*
X123250983Y-52261951D01*
X123317864Y-52282166D01*
X123362382Y-52333543D01*
X123389864Y-52392479D01*
X123389865Y-52392481D01*
X123520342Y-52578820D01*
X123681179Y-52739657D01*
X123867517Y-52870134D01*
X124073673Y-52966265D01*
X124073682Y-52966269D01*
X124269999Y-53018872D01*
X124270000Y-53018871D01*
X124270000Y-52173012D01*
X124327007Y-52205925D01*
X124454174Y-52240000D01*
X124585826Y-52240000D01*
X124712993Y-52205925D01*
X124770000Y-52173012D01*
X124770000Y-53018872D01*
X124966317Y-52966269D01*
X124966326Y-52966265D01*
X125172482Y-52870134D01*
X125358820Y-52739657D01*
X125519657Y-52578820D01*
X125650132Y-52392484D01*
X125677341Y-52334134D01*
X125723513Y-52281695D01*
X125790707Y-52262542D01*
X125857588Y-52282757D01*
X125902106Y-52334133D01*
X125929431Y-52392732D01*
X125929432Y-52392734D01*
X126059954Y-52579141D01*
X126220858Y-52740045D01*
X126220861Y-52740047D01*
X126407266Y-52870568D01*
X126613504Y-52966739D01*
X126833308Y-53025635D01*
X126995230Y-53039801D01*
X127059998Y-53045468D01*
X127060000Y-53045468D01*
X127060002Y-53045468D01*
X127116807Y-53040498D01*
X127286692Y-53025635D01*
X127506496Y-52966739D01*
X127712734Y-52870568D01*
X127899139Y-52740047D01*
X128060047Y-52579139D01*
X128190568Y-52392734D01*
X128286739Y-52186496D01*
X128345635Y-51966692D01*
X128365468Y-51740000D01*
X128365468Y-51739998D01*
X130834532Y-51739998D01*
X130834532Y-51740001D01*
X130854364Y-51966686D01*
X130854366Y-51966697D01*
X130913258Y-52186488D01*
X130913261Y-52186497D01*
X131009431Y-52392732D01*
X131009432Y-52392734D01*
X131139954Y-52579141D01*
X131300858Y-52740045D01*
X131300861Y-52740047D01*
X131487266Y-52870568D01*
X131693504Y-52966739D01*
X131913308Y-53025635D01*
X132075230Y-53039801D01*
X132139998Y-53045468D01*
X132140000Y-53045468D01*
X132140002Y-53045468D01*
X132196807Y-53040498D01*
X132366692Y-53025635D01*
X132586496Y-52966739D01*
X132792734Y-52870568D01*
X132979139Y-52740047D01*
X133140047Y-52579139D01*
X133270568Y-52392734D01*
X133297618Y-52334724D01*
X133343790Y-52282285D01*
X133410983Y-52263133D01*
X133477865Y-52283348D01*
X133522382Y-52334725D01*
X133549429Y-52392728D01*
X133549432Y-52392734D01*
X133679954Y-52579141D01*
X133840858Y-52740045D01*
X133840861Y-52740047D01*
X134027266Y-52870568D01*
X134233504Y-52966739D01*
X134453308Y-53025635D01*
X134615230Y-53039801D01*
X134679998Y-53045468D01*
X134680000Y-53045468D01*
X134680002Y-53045468D01*
X134736807Y-53040498D01*
X134906692Y-53025635D01*
X135126496Y-52966739D01*
X135332734Y-52870568D01*
X135519139Y-52740047D01*
X135680047Y-52579139D01*
X135810568Y-52392734D01*
X135837618Y-52334724D01*
X135883790Y-52282285D01*
X135950983Y-52263133D01*
X136017865Y-52283348D01*
X136062382Y-52334725D01*
X136089429Y-52392728D01*
X136089432Y-52392734D01*
X136219954Y-52579141D01*
X136380858Y-52740045D01*
X136380861Y-52740047D01*
X136567266Y-52870568D01*
X136773504Y-52966739D01*
X136993308Y-53025635D01*
X137155230Y-53039801D01*
X137219998Y-53045468D01*
X137220000Y-53045468D01*
X137220002Y-53045468D01*
X137276807Y-53040498D01*
X137446692Y-53025635D01*
X137666496Y-52966739D01*
X137872734Y-52870568D01*
X138059139Y-52740047D01*
X138220047Y-52579139D01*
X138350568Y-52392734D01*
X138377618Y-52334724D01*
X138423790Y-52282285D01*
X138490983Y-52263133D01*
X138557865Y-52283348D01*
X138602382Y-52334725D01*
X138629429Y-52392728D01*
X138629432Y-52392734D01*
X138759954Y-52579141D01*
X138920858Y-52740045D01*
X138920861Y-52740047D01*
X139107266Y-52870568D01*
X139313504Y-52966739D01*
X139533308Y-53025635D01*
X139695230Y-53039801D01*
X139759998Y-53045468D01*
X139760000Y-53045468D01*
X139760002Y-53045468D01*
X139816807Y-53040498D01*
X139986692Y-53025635D01*
X140206496Y-52966739D01*
X140412734Y-52870568D01*
X140599139Y-52740047D01*
X140760047Y-52579139D01*
X140890568Y-52392734D01*
X140917618Y-52334724D01*
X140963790Y-52282285D01*
X141030983Y-52263133D01*
X141097865Y-52283348D01*
X141142382Y-52334725D01*
X141169429Y-52392728D01*
X141169432Y-52392734D01*
X141299954Y-52579141D01*
X141460858Y-52740045D01*
X141460861Y-52740047D01*
X141647266Y-52870568D01*
X141853504Y-52966739D01*
X142073308Y-53025635D01*
X142235230Y-53039801D01*
X142299998Y-53045468D01*
X142300000Y-53045468D01*
X142300002Y-53045468D01*
X142356807Y-53040498D01*
X142526692Y-53025635D01*
X142746496Y-52966739D01*
X142952734Y-52870568D01*
X143139139Y-52740047D01*
X143300047Y-52579139D01*
X143430568Y-52392734D01*
X143457618Y-52334724D01*
X143503790Y-52282285D01*
X143570983Y-52263133D01*
X143637865Y-52283348D01*
X143682382Y-52334725D01*
X143709429Y-52392728D01*
X143709432Y-52392734D01*
X143839954Y-52579141D01*
X144000858Y-52740045D01*
X144000861Y-52740047D01*
X144187266Y-52870568D01*
X144393504Y-52966739D01*
X144613308Y-53025635D01*
X144775230Y-53039801D01*
X144839998Y-53045468D01*
X144840000Y-53045468D01*
X144840002Y-53045468D01*
X144896807Y-53040498D01*
X145066692Y-53025635D01*
X145286496Y-52966739D01*
X145492734Y-52870568D01*
X145679139Y-52740047D01*
X145840047Y-52579139D01*
X145970568Y-52392734D01*
X146066739Y-52186496D01*
X146125635Y-51966692D01*
X146145468Y-51740000D01*
X146125635Y-51513308D01*
X146066739Y-51293504D01*
X145970568Y-51087266D01*
X145840047Y-50900861D01*
X145840045Y-50900858D01*
X145679141Y-50739954D01*
X145492734Y-50609432D01*
X145492732Y-50609431D01*
X145286497Y-50513261D01*
X145286488Y-50513258D01*
X145066697Y-50454366D01*
X145066693Y-50454365D01*
X145066692Y-50454365D01*
X145066691Y-50454364D01*
X145066686Y-50454364D01*
X144840002Y-50434532D01*
X144839998Y-50434532D01*
X144613313Y-50454364D01*
X144613302Y-50454366D01*
X144393511Y-50513258D01*
X144393502Y-50513261D01*
X144187267Y-50609431D01*
X144187265Y-50609432D01*
X144000858Y-50739954D01*
X143839954Y-50900858D01*
X143709432Y-51087265D01*
X143709431Y-51087267D01*
X143682382Y-51145275D01*
X143636209Y-51197714D01*
X143569016Y-51216866D01*
X143502135Y-51196650D01*
X143457618Y-51145275D01*
X143430686Y-51087520D01*
X143430568Y-51087266D01*
X143300047Y-50900861D01*
X143300045Y-50900858D01*
X143139141Y-50739954D01*
X142952734Y-50609432D01*
X142952732Y-50609431D01*
X142746497Y-50513261D01*
X142746488Y-50513258D01*
X142526697Y-50454366D01*
X142526693Y-50454365D01*
X142526692Y-50454365D01*
X142526691Y-50454364D01*
X142526686Y-50454364D01*
X142300002Y-50434532D01*
X142299998Y-50434532D01*
X142073313Y-50454364D01*
X142073302Y-50454366D01*
X141853511Y-50513258D01*
X141853502Y-50513261D01*
X141647267Y-50609431D01*
X141647265Y-50609432D01*
X141460858Y-50739954D01*
X141299954Y-50900858D01*
X141169432Y-51087265D01*
X141169431Y-51087267D01*
X141142382Y-51145275D01*
X141096209Y-51197714D01*
X141029016Y-51216866D01*
X140962135Y-51196650D01*
X140917618Y-51145275D01*
X140890686Y-51087520D01*
X140890568Y-51087266D01*
X140760047Y-50900861D01*
X140760045Y-50900858D01*
X140599141Y-50739954D01*
X140412734Y-50609432D01*
X140412732Y-50609431D01*
X140206497Y-50513261D01*
X140206488Y-50513258D01*
X139986697Y-50454366D01*
X139986693Y-50454365D01*
X139986692Y-50454365D01*
X139986691Y-50454364D01*
X139986686Y-50454364D01*
X139760002Y-50434532D01*
X139759998Y-50434532D01*
X139533313Y-50454364D01*
X139533302Y-50454366D01*
X139313511Y-50513258D01*
X139313502Y-50513261D01*
X139107267Y-50609431D01*
X139107265Y-50609432D01*
X138920858Y-50739954D01*
X138759954Y-50900858D01*
X138629432Y-51087265D01*
X138629431Y-51087267D01*
X138602382Y-51145275D01*
X138556209Y-51197714D01*
X138489016Y-51216866D01*
X138422135Y-51196650D01*
X138377618Y-51145275D01*
X138350686Y-51087520D01*
X138350568Y-51087266D01*
X138220047Y-50900861D01*
X138220045Y-50900858D01*
X138059141Y-50739954D01*
X137872734Y-50609432D01*
X137872732Y-50609431D01*
X137666497Y-50513261D01*
X137666488Y-50513258D01*
X137446697Y-50454366D01*
X137446693Y-50454365D01*
X137446692Y-50454365D01*
X137446691Y-50454364D01*
X137446686Y-50454364D01*
X137220002Y-50434532D01*
X137219998Y-50434532D01*
X136993313Y-50454364D01*
X136993302Y-50454366D01*
X136773511Y-50513258D01*
X136773502Y-50513261D01*
X136567267Y-50609431D01*
X136567265Y-50609432D01*
X136380858Y-50739954D01*
X136219954Y-50900858D01*
X136089432Y-51087265D01*
X136089431Y-51087267D01*
X136062382Y-51145275D01*
X136016209Y-51197714D01*
X135949016Y-51216866D01*
X135882135Y-51196650D01*
X135837618Y-51145275D01*
X135810686Y-51087520D01*
X135810568Y-51087266D01*
X135680047Y-50900861D01*
X135680045Y-50900858D01*
X135519141Y-50739954D01*
X135332734Y-50609432D01*
X135332732Y-50609431D01*
X135126497Y-50513261D01*
X135126488Y-50513258D01*
X134906697Y-50454366D01*
X134906693Y-50454365D01*
X134906692Y-50454365D01*
X134906691Y-50454364D01*
X134906686Y-50454364D01*
X134680002Y-50434532D01*
X134679998Y-50434532D01*
X134453313Y-50454364D01*
X134453302Y-50454366D01*
X134233511Y-50513258D01*
X134233502Y-50513261D01*
X134027267Y-50609431D01*
X134027265Y-50609432D01*
X133840858Y-50739954D01*
X133679954Y-50900858D01*
X133549432Y-51087265D01*
X133549431Y-51087267D01*
X133522382Y-51145275D01*
X133476209Y-51197714D01*
X133409016Y-51216866D01*
X133342135Y-51196650D01*
X133297618Y-51145275D01*
X133270686Y-51087520D01*
X133270568Y-51087266D01*
X133140047Y-50900861D01*
X133140045Y-50900858D01*
X132979141Y-50739954D01*
X132792734Y-50609432D01*
X132792732Y-50609431D01*
X132586497Y-50513261D01*
X132586488Y-50513258D01*
X132366697Y-50454366D01*
X132366693Y-50454365D01*
X132366692Y-50454365D01*
X132366691Y-50454364D01*
X132366686Y-50454364D01*
X132140002Y-50434532D01*
X132139998Y-50434532D01*
X131913313Y-50454364D01*
X131913302Y-50454366D01*
X131693511Y-50513258D01*
X131693502Y-50513261D01*
X131487267Y-50609431D01*
X131487265Y-50609432D01*
X131300858Y-50739954D01*
X131139954Y-50900858D01*
X131009432Y-51087265D01*
X131009431Y-51087267D01*
X130913261Y-51293502D01*
X130913258Y-51293511D01*
X130854366Y-51513302D01*
X130854364Y-51513313D01*
X130834532Y-51739998D01*
X128365468Y-51739998D01*
X128345635Y-51513308D01*
X128286739Y-51293504D01*
X128190568Y-51087266D01*
X128060047Y-50900861D01*
X128060045Y-50900858D01*
X127899141Y-50739954D01*
X127712734Y-50609432D01*
X127712732Y-50609431D01*
X127506497Y-50513261D01*
X127506488Y-50513258D01*
X127286697Y-50454366D01*
X127286693Y-50454365D01*
X127286692Y-50454365D01*
X127286691Y-50454364D01*
X127286686Y-50454364D01*
X127060002Y-50434532D01*
X127059998Y-50434532D01*
X126833313Y-50454364D01*
X126833302Y-50454366D01*
X126613511Y-50513258D01*
X126613502Y-50513261D01*
X126407267Y-50609431D01*
X126407265Y-50609432D01*
X126220858Y-50739954D01*
X126059954Y-50900858D01*
X125944398Y-51065892D01*
X125929432Y-51087266D01*
X125929315Y-51087518D01*
X125902106Y-51145867D01*
X125855933Y-51198306D01*
X125788739Y-51217457D01*
X125721858Y-51197241D01*
X125677342Y-51145865D01*
X125650135Y-51087520D01*
X125650134Y-51087518D01*
X125519657Y-50901179D01*
X125358820Y-50740342D01*
X125172482Y-50609865D01*
X124966328Y-50513734D01*
X124770000Y-50461127D01*
X124770000Y-51306988D01*
X124712993Y-51274075D01*
X124585826Y-51240000D01*
X124454174Y-51240000D01*
X124327007Y-51274075D01*
X124270000Y-51306988D01*
X124270000Y-50461127D01*
X124073671Y-50513734D01*
X123867517Y-50609865D01*
X123681179Y-50740342D01*
X123520342Y-50901179D01*
X123389865Y-51087517D01*
X123362382Y-51146457D01*
X123316210Y-51198896D01*
X123249016Y-51218048D01*
X123182135Y-51197832D01*
X123137618Y-51146457D01*
X123110134Y-51087517D01*
X122979657Y-50901179D01*
X122818820Y-50740342D01*
X122632482Y-50609865D01*
X122426328Y-50513734D01*
X122230000Y-50461127D01*
X122230000Y-51306988D01*
X122172993Y-51274075D01*
X122045826Y-51240000D01*
X121914174Y-51240000D01*
X121787007Y-51274075D01*
X121730000Y-51306988D01*
X121730000Y-50461127D01*
X121533671Y-50513734D01*
X121327517Y-50609865D01*
X121141179Y-50740342D01*
X120980342Y-50901179D01*
X120849867Y-51087515D01*
X120822657Y-51145867D01*
X120776484Y-51198306D01*
X120709290Y-51217457D01*
X120642409Y-51197241D01*
X120597893Y-51145865D01*
X120570685Y-51087518D01*
X120570568Y-51087266D01*
X120440047Y-50900861D01*
X120440045Y-50900858D01*
X120279141Y-50739954D01*
X120092734Y-50609432D01*
X120092732Y-50609431D01*
X119886497Y-50513261D01*
X119886488Y-50513258D01*
X119666697Y-50454366D01*
X119666693Y-50454365D01*
X119666692Y-50454365D01*
X119666691Y-50454364D01*
X119666686Y-50454364D01*
X119440002Y-50434532D01*
X119439998Y-50434532D01*
X119213313Y-50454364D01*
X119213302Y-50454366D01*
X118993511Y-50513258D01*
X118993502Y-50513261D01*
X118787267Y-50609431D01*
X118787265Y-50609432D01*
X118600858Y-50739954D01*
X118439954Y-50900858D01*
X118309432Y-51087265D01*
X118309431Y-51087267D01*
X118282382Y-51145275D01*
X118236209Y-51197714D01*
X118169016Y-51216866D01*
X118102135Y-51196650D01*
X118057618Y-51145275D01*
X118030686Y-51087520D01*
X118030568Y-51087266D01*
X117900047Y-50900861D01*
X117900045Y-50900858D01*
X117739141Y-50739954D01*
X117552734Y-50609432D01*
X117552732Y-50609431D01*
X117346497Y-50513261D01*
X117346488Y-50513258D01*
X117126697Y-50454366D01*
X117126693Y-50454365D01*
X117126692Y-50454365D01*
X117126691Y-50454364D01*
X117126686Y-50454364D01*
X116900002Y-50434532D01*
X116899998Y-50434532D01*
X116673313Y-50454364D01*
X116673302Y-50454366D01*
X116453511Y-50513258D01*
X116453502Y-50513261D01*
X116247267Y-50609431D01*
X116247265Y-50609432D01*
X116060858Y-50739954D01*
X115899954Y-50900858D01*
X115769432Y-51087265D01*
X115769431Y-51087267D01*
X115742382Y-51145275D01*
X115696209Y-51197714D01*
X115629016Y-51216866D01*
X115562135Y-51196650D01*
X115517618Y-51145275D01*
X115490686Y-51087520D01*
X115490568Y-51087266D01*
X115360047Y-50900861D01*
X115360045Y-50900858D01*
X115199141Y-50739954D01*
X115012734Y-50609432D01*
X115012732Y-50609431D01*
X114806497Y-50513261D01*
X114806488Y-50513258D01*
X114586697Y-50454366D01*
X114586693Y-50454365D01*
X114586692Y-50454365D01*
X114586691Y-50454364D01*
X114586686Y-50454364D01*
X114360002Y-50434532D01*
X114359998Y-50434532D01*
X114133313Y-50454364D01*
X114133302Y-50454366D01*
X113913511Y-50513258D01*
X113913502Y-50513261D01*
X113707267Y-50609431D01*
X113707265Y-50609432D01*
X113520858Y-50739954D01*
X113359954Y-50900858D01*
X113229432Y-51087265D01*
X113229431Y-51087267D01*
X113202382Y-51145275D01*
X113156209Y-51197714D01*
X113089016Y-51216866D01*
X113022135Y-51196650D01*
X112977618Y-51145275D01*
X112950686Y-51087520D01*
X112950568Y-51087266D01*
X112820047Y-50900861D01*
X112820045Y-50900858D01*
X112659141Y-50739954D01*
X112472734Y-50609432D01*
X112472732Y-50609431D01*
X112266497Y-50513261D01*
X112266488Y-50513258D01*
X112046697Y-50454366D01*
X112046693Y-50454365D01*
X112046692Y-50454365D01*
X112046691Y-50454364D01*
X112046686Y-50454364D01*
X111820002Y-50434532D01*
X111819998Y-50434532D01*
X111593313Y-50454364D01*
X111593302Y-50454366D01*
X111373511Y-50513258D01*
X111373502Y-50513261D01*
X111167267Y-50609431D01*
X111167265Y-50609432D01*
X110980858Y-50739954D01*
X110819954Y-50900858D01*
X110802725Y-50925464D01*
X110748147Y-50969088D01*
X110678648Y-50976280D01*
X110616294Y-50944757D01*
X110580882Y-50884526D01*
X110577861Y-50867591D01*
X110574091Y-50832516D01*
X110523797Y-50697671D01*
X110523793Y-50697664D01*
X110437547Y-50582455D01*
X110437544Y-50582452D01*
X110322335Y-50496206D01*
X110322328Y-50496202D01*
X110187482Y-50445908D01*
X110187483Y-50445908D01*
X110127883Y-50439501D01*
X110127881Y-50439500D01*
X110127873Y-50439500D01*
X110127864Y-50439500D01*
X108432129Y-50439500D01*
X108432123Y-50439501D01*
X108372516Y-50445908D01*
X108237671Y-50496202D01*
X108237664Y-50496206D01*
X108122455Y-50582452D01*
X108122452Y-50582455D01*
X108036206Y-50697664D01*
X108036202Y-50697671D01*
X107985908Y-50832517D01*
X107979501Y-50892116D01*
X107979500Y-50892135D01*
X81500500Y-50892135D01*
X81500500Y-48624500D01*
X81520185Y-48557461D01*
X81572989Y-48511706D01*
X81624500Y-48500500D01*
X147375500Y-48500500D01*
X147442539Y-48520185D01*
G37*
%TD.AperFunction*%
%TD*%
M02*
