M48
; DRILL file {KiCad 8.0.2} date 2024-05-10T15:10:23+0100
; FORMAT={-:-/ absolute / metric / decimal}
; #@! TF.CreationDate,2024-05-10T15:10:23+01:00
; #@! TF.GenerationSoftware,Kicad,Pcbnew,8.0.2
; #@! TF.FileFunction,Plated,1,2,PTH
FMAT,2
METRIC
; #@! TA.AperFunction,Plated,PTH,ViaDrill
T1C0.300
; #@! TA.AperFunction,Plated,PTH,ComponentDrill
T2C0.800
; #@! TA.AperFunction,Plated,PTH,ComponentDrill
T3C1.000
; #@! TA.AperFunction,Plated,PTH,ComponentDrill
T4C1.020
; #@! TA.AperFunction,Plated,PTH,ComponentDrill
T5C1.200
%
G90
G05
T1
X89.0Y-55.5
X89.0Y-56.5
X89.0Y-57.5
X91.5Y-61.5
X92.5Y-61.5
X93.5Y-61.5
X95.5Y-55.5
X95.5Y-56.5
X95.5Y-57.5
T2
X99.8Y-65.42
X99.8Y-67.96
X99.8Y-70.5
X99.8Y-73.04
X99.8Y-75.58
X99.8Y-78.12
X99.8Y-80.66
X99.8Y-83.2
X107.5Y-56.5
X107.5Y-60.0
X112.5Y-65.42
X112.5Y-67.96
X112.5Y-70.5
X112.5Y-73.04
X112.5Y-75.58
X112.5Y-78.12
X112.5Y-80.66
X112.5Y-83.2
X119.5Y-56.5
X119.5Y-60.0
X124.5Y-87.19
X124.5Y-94.81
X133.66Y-65.11
X133.66Y-67.65
X133.66Y-70.19
X133.66Y-72.73
X133.66Y-75.27
X133.66Y-77.81
X133.66Y-80.35
X133.66Y-82.89
X137.5Y-87.19
X137.5Y-94.81
X146.36Y-65.11
X146.36Y-67.65
X146.36Y-70.19
X146.36Y-72.73
X146.36Y-75.27
X146.36Y-77.81
X146.36Y-80.35
X146.36Y-82.89
T3
X105.22Y-100.0
X107.76Y-100.0
X109.28Y-51.74
X110.3Y-100.0
X111.82Y-51.74
X112.84Y-100.0
X114.36Y-51.74
X115.38Y-100.0
X116.9Y-51.74
X117.92Y-100.0
X119.44Y-51.74
X120.46Y-100.0
X121.98Y-51.74
X123.0Y-100.0
X124.52Y-51.74
X127.06Y-51.74
X127.06Y-100.0
X129.6Y-100.0
X132.14Y-51.74
X132.14Y-100.0
X134.68Y-51.74
X134.68Y-100.0
X137.22Y-51.74
X137.22Y-100.0
X139.76Y-51.74
X139.76Y-100.0
X142.3Y-51.74
X142.3Y-100.0
X144.84Y-51.74
X144.84Y-100.0
T4
X90.0Y-67.0
X90.0Y-69.54
X90.0Y-72.08
X90.0Y-74.62
X102.185Y-92.0
X104.725Y-92.0
X107.265Y-92.0
X109.805Y-92.0
X126.0Y-65.42
X126.0Y-67.96
X126.0Y-70.5
X126.0Y-73.04
X129.5Y-91.0
X132.04Y-91.0
T5
X85.75Y-81.75
X85.75Y-86.25
X92.25Y-81.75
X92.25Y-86.25
X122.25Y-78.75
X122.25Y-83.25
X128.75Y-78.75
X128.75Y-83.25
T3
G00X89.2Y-55.4
M15
G01X89.2Y-57.6
M16
G05
G00X93.7Y-61.3
M15
G01X91.5Y-61.3
M16
G05
G00X95.5Y-55.2
M15
G01X95.5Y-57.8
M16
G05
M30
