%TF.GenerationSoftware,KiCad,Pcbnew,8.0.2*%
%TF.CreationDate,2024-05-10T15:05:32+01:00*%
%TF.ProjectId,FARESHARE KICAD,46415245-5348-4415-9245-204b49434144,V 1.0*%
%TF.SameCoordinates,Original*%
%TF.FileFunction,Soldermask,Top*%
%TF.FilePolarity,Negative*%
%FSLAX46Y46*%
G04 Gerber Fmt 4.6, Leading zero omitted, Abs format (unit mm)*
G04 Created by KiCad (PCBNEW 8.0.2) date 2024-05-10 15:05:32*
%MOMM*%
%LPD*%
G01*
G04 APERTURE LIST*
%ADD10R,2.000000X4.600000*%
%ADD11O,2.000000X4.200000*%
%ADD12O,4.200000X2.000000*%
%ADD13C,2.020000*%
%ADD14R,1.600000X1.600000*%
%ADD15C,1.600000*%
%ADD16O,1.600000X1.600000*%
%ADD17R,2.200000X2.200000*%
%ADD18C,2.200000*%
G04 APERTURE END LIST*
D10*
%TO.C,J5*%
X95500000Y-56500000D03*
D11*
X89200000Y-56500000D03*
D12*
X92600000Y-61300000D03*
%TD*%
D13*
%TO.C,J2*%
X90000000Y-67000000D03*
X90000000Y-69540000D03*
X90000000Y-72080000D03*
X90000000Y-74620000D03*
%TD*%
D14*
%TO.C,C1*%
X119500000Y-56500000D03*
D15*
X119500000Y-60000000D03*
%TD*%
%TO.C,R1*%
X124500000Y-94810000D03*
D16*
X124500000Y-87190000D03*
%TD*%
D14*
%TO.C,A1*%
X99800000Y-83200000D03*
D16*
X99800000Y-80660000D03*
X99800000Y-78120000D03*
X99800000Y-75580000D03*
X99800000Y-73040000D03*
X99800000Y-70500000D03*
X99800000Y-67960000D03*
X99800000Y-65420000D03*
X112500000Y-65420000D03*
X112500000Y-67960000D03*
X112500000Y-70500000D03*
X112500000Y-73040000D03*
X112500000Y-75580000D03*
X112500000Y-78120000D03*
X112500000Y-80660000D03*
X112500000Y-83200000D03*
%TD*%
D15*
%TO.C,R2*%
X137500000Y-87190000D03*
D16*
X137500000Y-94810000D03*
%TD*%
D13*
%TO.C,J1*%
X126000000Y-65420000D03*
X126000000Y-67960000D03*
X126000000Y-70500000D03*
X126000000Y-73040000D03*
%TD*%
%TO.C,J4*%
X129500000Y-91000000D03*
X132040000Y-91000000D03*
%TD*%
D14*
%TO.C,C2*%
X107500000Y-56500000D03*
D15*
X107500000Y-60000000D03*
%TD*%
D17*
%TO.C,S1*%
X122250000Y-78750000D03*
D18*
X128750000Y-78750000D03*
X122250000Y-83250000D03*
X128750000Y-83250000D03*
%TD*%
D17*
%TO.C,S2*%
X85750000Y-81750000D03*
D18*
X92250000Y-81750000D03*
X85750000Y-86250000D03*
X92250000Y-86250000D03*
%TD*%
D13*
%TO.C,J3*%
X109805000Y-92000000D03*
X107265000Y-92000000D03*
X104725000Y-92000000D03*
X102185000Y-92000000D03*
%TD*%
D14*
%TO.C,A2*%
X133660000Y-82890000D03*
D16*
X133660000Y-80350000D03*
X133660000Y-77810000D03*
X133660000Y-75270000D03*
X133660000Y-72730000D03*
X133660000Y-70190000D03*
X133660000Y-67650000D03*
X133660000Y-65110000D03*
X146360000Y-65110000D03*
X146360000Y-67650000D03*
X146360000Y-70190000D03*
X146360000Y-72730000D03*
X146360000Y-75270000D03*
X146360000Y-77810000D03*
X146360000Y-80350000D03*
X146360000Y-82890000D03*
%TD*%
%TO.C,A3*%
X105220000Y-100000000D03*
X107760000Y-100000000D03*
X110300000Y-100000000D03*
X112840000Y-100000000D03*
X115380000Y-100000000D03*
X117920000Y-100000000D03*
X120460000Y-100000000D03*
X123000000Y-100000000D03*
X127060000Y-100000000D03*
X129600000Y-100000000D03*
X132140000Y-100000000D03*
X134680000Y-100000000D03*
X137220000Y-100000000D03*
X139760000Y-100000000D03*
X142300000Y-100000000D03*
X144840000Y-100000000D03*
X144840000Y-51740000D03*
X142300000Y-51740000D03*
X139760000Y-51740000D03*
X137220000Y-51740000D03*
X134680000Y-51740000D03*
X132140000Y-51740000D03*
X127060000Y-51740000D03*
X124520000Y-51740000D03*
X121980000Y-51740000D03*
X119440000Y-51740000D03*
X116900000Y-51740000D03*
X114360000Y-51740000D03*
X111820000Y-51740000D03*
D14*
X109280000Y-51740000D03*
%TD*%
M02*
