%TF.GenerationSoftware,KiCad,Pcbnew,8.0.2*%
%TF.CreationDate,2024-05-07T16:40:21+01:00*%
%TF.ProjectId,FARESHARE KICAD,46415245-5348-4415-9245-204b49434144,V 1.0*%
%TF.SameCoordinates,Original*%
%TF.FileFunction,Legend,Top*%
%TF.FilePolarity,Positive*%
%FSLAX46Y46*%
G04 Gerber Fmt 4.6, Leading zero omitted, Abs format (unit mm)*
G04 Created by KiCad (PCBNEW 8.0.2) date 2024-05-07 16:40:21*
%MOMM*%
%LPD*%
G01*
G04 APERTURE LIST*
%ADD10C,0.150000*%
%ADD11C,0.120000*%
%ADD12C,0.100000*%
G04 APERTURE END LIST*
D10*
X150144819Y-80176666D02*
X149668628Y-80509999D01*
X150144819Y-80748094D02*
X149144819Y-80748094D01*
X149144819Y-80748094D02*
X149144819Y-80367142D01*
X149144819Y-80367142D02*
X149192438Y-80271904D01*
X149192438Y-80271904D02*
X149240057Y-80224285D01*
X149240057Y-80224285D02*
X149335295Y-80176666D01*
X149335295Y-80176666D02*
X149478152Y-80176666D01*
X149478152Y-80176666D02*
X149573390Y-80224285D01*
X149573390Y-80224285D02*
X149621009Y-80271904D01*
X149621009Y-80271904D02*
X149668628Y-80367142D01*
X149668628Y-80367142D02*
X149668628Y-80748094D01*
X149240057Y-79795713D02*
X149192438Y-79748094D01*
X149192438Y-79748094D02*
X149144819Y-79652856D01*
X149144819Y-79652856D02*
X149144819Y-79414761D01*
X149144819Y-79414761D02*
X149192438Y-79319523D01*
X149192438Y-79319523D02*
X149240057Y-79271904D01*
X149240057Y-79271904D02*
X149335295Y-79224285D01*
X149335295Y-79224285D02*
X149430533Y-79224285D01*
X149430533Y-79224285D02*
X149573390Y-79271904D01*
X149573390Y-79271904D02*
X150144819Y-79843332D01*
X150144819Y-79843332D02*
X150144819Y-79224285D01*
X145064819Y-75096666D02*
X144588628Y-75429999D01*
X145064819Y-75668094D02*
X144064819Y-75668094D01*
X144064819Y-75668094D02*
X144064819Y-75287142D01*
X144064819Y-75287142D02*
X144112438Y-75191904D01*
X144112438Y-75191904D02*
X144160057Y-75144285D01*
X144160057Y-75144285D02*
X144255295Y-75096666D01*
X144255295Y-75096666D02*
X144398152Y-75096666D01*
X144398152Y-75096666D02*
X144493390Y-75144285D01*
X144493390Y-75144285D02*
X144541009Y-75191904D01*
X144541009Y-75191904D02*
X144588628Y-75287142D01*
X144588628Y-75287142D02*
X144588628Y-75668094D01*
X145064819Y-74144285D02*
X145064819Y-74715713D01*
X145064819Y-74429999D02*
X144064819Y-74429999D01*
X144064819Y-74429999D02*
X144207676Y-74525237D01*
X144207676Y-74525237D02*
X144302914Y-74620475D01*
X144302914Y-74620475D02*
X144350533Y-74715713D01*
X98448095Y-96244000D02*
X98590952Y-96291619D01*
X98590952Y-96291619D02*
X98829047Y-96291619D01*
X98829047Y-96291619D02*
X98924285Y-96244000D01*
X98924285Y-96244000D02*
X98971904Y-96196380D01*
X98971904Y-96196380D02*
X99019523Y-96101142D01*
X99019523Y-96101142D02*
X99019523Y-96005904D01*
X99019523Y-96005904D02*
X98971904Y-95910666D01*
X98971904Y-95910666D02*
X98924285Y-95863047D01*
X98924285Y-95863047D02*
X98829047Y-95815428D01*
X98829047Y-95815428D02*
X98638571Y-95767809D01*
X98638571Y-95767809D02*
X98543333Y-95720190D01*
X98543333Y-95720190D02*
X98495714Y-95672571D01*
X98495714Y-95672571D02*
X98448095Y-95577333D01*
X98448095Y-95577333D02*
X98448095Y-95482095D01*
X98448095Y-95482095D02*
X98495714Y-95386857D01*
X98495714Y-95386857D02*
X98543333Y-95339238D01*
X98543333Y-95339238D02*
X98638571Y-95291619D01*
X98638571Y-95291619D02*
X98876666Y-95291619D01*
X98876666Y-95291619D02*
X99019523Y-95339238D01*
X99400476Y-95386857D02*
X99448095Y-95339238D01*
X99448095Y-95339238D02*
X99543333Y-95291619D01*
X99543333Y-95291619D02*
X99781428Y-95291619D01*
X99781428Y-95291619D02*
X99876666Y-95339238D01*
X99876666Y-95339238D02*
X99924285Y-95386857D01*
X99924285Y-95386857D02*
X99971904Y-95482095D01*
X99971904Y-95482095D02*
X99971904Y-95577333D01*
X99971904Y-95577333D02*
X99924285Y-95720190D01*
X99924285Y-95720190D02*
X99352857Y-96291619D01*
X99352857Y-96291619D02*
X99971904Y-96291619D01*
X110820400Y-89201904D02*
X110868019Y-89059047D01*
X110868019Y-89059047D02*
X110868019Y-88820952D01*
X110868019Y-88820952D02*
X110820400Y-88725714D01*
X110820400Y-88725714D02*
X110772780Y-88678095D01*
X110772780Y-88678095D02*
X110677542Y-88630476D01*
X110677542Y-88630476D02*
X110582304Y-88630476D01*
X110582304Y-88630476D02*
X110487066Y-88678095D01*
X110487066Y-88678095D02*
X110439447Y-88725714D01*
X110439447Y-88725714D02*
X110391828Y-88820952D01*
X110391828Y-88820952D02*
X110344209Y-89011428D01*
X110344209Y-89011428D02*
X110296590Y-89106666D01*
X110296590Y-89106666D02*
X110248971Y-89154285D01*
X110248971Y-89154285D02*
X110153733Y-89201904D01*
X110153733Y-89201904D02*
X110058495Y-89201904D01*
X110058495Y-89201904D02*
X109963257Y-89154285D01*
X109963257Y-89154285D02*
X109915638Y-89106666D01*
X109915638Y-89106666D02*
X109868019Y-89011428D01*
X109868019Y-89011428D02*
X109868019Y-88773333D01*
X109868019Y-88773333D02*
X109915638Y-88630476D01*
X110868019Y-87678095D02*
X110868019Y-88249523D01*
X110868019Y-87963809D02*
X109868019Y-87963809D01*
X109868019Y-87963809D02*
X110010876Y-88059047D01*
X110010876Y-88059047D02*
X110106114Y-88154285D01*
X110106114Y-88154285D02*
X110153733Y-88249523D01*
X79854819Y-56833333D02*
X80569104Y-56833333D01*
X80569104Y-56833333D02*
X80711961Y-56880952D01*
X80711961Y-56880952D02*
X80807200Y-56976190D01*
X80807200Y-56976190D02*
X80854819Y-57119047D01*
X80854819Y-57119047D02*
X80854819Y-57214285D01*
X79854819Y-55880952D02*
X79854819Y-56357142D01*
X79854819Y-56357142D02*
X80331009Y-56404761D01*
X80331009Y-56404761D02*
X80283390Y-56357142D01*
X80283390Y-56357142D02*
X80235771Y-56261904D01*
X80235771Y-56261904D02*
X80235771Y-56023809D01*
X80235771Y-56023809D02*
X80283390Y-55928571D01*
X80283390Y-55928571D02*
X80331009Y-55880952D01*
X80331009Y-55880952D02*
X80426247Y-55833333D01*
X80426247Y-55833333D02*
X80664342Y-55833333D01*
X80664342Y-55833333D02*
X80759580Y-55880952D01*
X80759580Y-55880952D02*
X80807200Y-55928571D01*
X80807200Y-55928571D02*
X80854819Y-56023809D01*
X80854819Y-56023809D02*
X80854819Y-56261904D01*
X80854819Y-56261904D02*
X80807200Y-56357142D01*
X80807200Y-56357142D02*
X80759580Y-56404761D01*
X140851666Y-81474819D02*
X140851666Y-82189104D01*
X140851666Y-82189104D02*
X140804047Y-82331961D01*
X140804047Y-82331961D02*
X140708809Y-82427200D01*
X140708809Y-82427200D02*
X140565952Y-82474819D01*
X140565952Y-82474819D02*
X140470714Y-82474819D01*
X141756428Y-81808152D02*
X141756428Y-82474819D01*
X141518333Y-81427200D02*
X141280238Y-82141485D01*
X141280238Y-82141485D02*
X141899285Y-82141485D01*
X128996666Y-81894819D02*
X128996666Y-82609104D01*
X128996666Y-82609104D02*
X128949047Y-82751961D01*
X128949047Y-82751961D02*
X128853809Y-82847200D01*
X128853809Y-82847200D02*
X128710952Y-82894819D01*
X128710952Y-82894819D02*
X128615714Y-82894819D01*
X129377619Y-81894819D02*
X129996666Y-81894819D01*
X129996666Y-81894819D02*
X129663333Y-82275771D01*
X129663333Y-82275771D02*
X129806190Y-82275771D01*
X129806190Y-82275771D02*
X129901428Y-82323390D01*
X129901428Y-82323390D02*
X129949047Y-82371009D01*
X129949047Y-82371009D02*
X129996666Y-82466247D01*
X129996666Y-82466247D02*
X129996666Y-82704342D01*
X129996666Y-82704342D02*
X129949047Y-82799580D01*
X129949047Y-82799580D02*
X129901428Y-82847200D01*
X129901428Y-82847200D02*
X129806190Y-82894819D01*
X129806190Y-82894819D02*
X129520476Y-82894819D01*
X129520476Y-82894819D02*
X129425238Y-82847200D01*
X129425238Y-82847200D02*
X129377619Y-82799580D01*
X110694819Y-78323333D02*
X111409104Y-78323333D01*
X111409104Y-78323333D02*
X111551961Y-78370952D01*
X111551961Y-78370952D02*
X111647200Y-78466190D01*
X111647200Y-78466190D02*
X111694819Y-78609047D01*
X111694819Y-78609047D02*
X111694819Y-78704285D01*
X110790057Y-77894761D02*
X110742438Y-77847142D01*
X110742438Y-77847142D02*
X110694819Y-77751904D01*
X110694819Y-77751904D02*
X110694819Y-77513809D01*
X110694819Y-77513809D02*
X110742438Y-77418571D01*
X110742438Y-77418571D02*
X110790057Y-77370952D01*
X110790057Y-77370952D02*
X110885295Y-77323333D01*
X110885295Y-77323333D02*
X110980533Y-77323333D01*
X110980533Y-77323333D02*
X111123390Y-77370952D01*
X111123390Y-77370952D02*
X111694819Y-77942380D01*
X111694819Y-77942380D02*
X111694819Y-77323333D01*
X138514819Y-68858333D02*
X139229104Y-68858333D01*
X139229104Y-68858333D02*
X139371961Y-68905952D01*
X139371961Y-68905952D02*
X139467200Y-69001190D01*
X139467200Y-69001190D02*
X139514819Y-69144047D01*
X139514819Y-69144047D02*
X139514819Y-69239285D01*
X139514819Y-67858333D02*
X139514819Y-68429761D01*
X139514819Y-68144047D02*
X138514819Y-68144047D01*
X138514819Y-68144047D02*
X138657676Y-68239285D01*
X138657676Y-68239285D02*
X138752914Y-68334523D01*
X138752914Y-68334523D02*
X138800533Y-68429761D01*
X104878221Y-57609580D02*
X104830602Y-57657200D01*
X104830602Y-57657200D02*
X104687745Y-57704819D01*
X104687745Y-57704819D02*
X104592507Y-57704819D01*
X104592507Y-57704819D02*
X104449650Y-57657200D01*
X104449650Y-57657200D02*
X104354412Y-57561961D01*
X104354412Y-57561961D02*
X104306793Y-57466723D01*
X104306793Y-57466723D02*
X104259174Y-57276247D01*
X104259174Y-57276247D02*
X104259174Y-57133390D01*
X104259174Y-57133390D02*
X104306793Y-56942914D01*
X104306793Y-56942914D02*
X104354412Y-56847676D01*
X104354412Y-56847676D02*
X104449650Y-56752438D01*
X104449650Y-56752438D02*
X104592507Y-56704819D01*
X104592507Y-56704819D02*
X104687745Y-56704819D01*
X104687745Y-56704819D02*
X104830602Y-56752438D01*
X104830602Y-56752438D02*
X104878221Y-56800057D01*
X105259174Y-56800057D02*
X105306793Y-56752438D01*
X105306793Y-56752438D02*
X105402031Y-56704819D01*
X105402031Y-56704819D02*
X105640126Y-56704819D01*
X105640126Y-56704819D02*
X105735364Y-56752438D01*
X105735364Y-56752438D02*
X105782983Y-56800057D01*
X105782983Y-56800057D02*
X105830602Y-56895295D01*
X105830602Y-56895295D02*
X105830602Y-56990533D01*
X105830602Y-56990533D02*
X105782983Y-57133390D01*
X105782983Y-57133390D02*
X105211555Y-57704819D01*
X105211555Y-57704819D02*
X105830602Y-57704819D01*
X137609580Y-57666666D02*
X137657200Y-57714285D01*
X137657200Y-57714285D02*
X137704819Y-57857142D01*
X137704819Y-57857142D02*
X137704819Y-57952380D01*
X137704819Y-57952380D02*
X137657200Y-58095237D01*
X137657200Y-58095237D02*
X137561961Y-58190475D01*
X137561961Y-58190475D02*
X137466723Y-58238094D01*
X137466723Y-58238094D02*
X137276247Y-58285713D01*
X137276247Y-58285713D02*
X137133390Y-58285713D01*
X137133390Y-58285713D02*
X136942914Y-58238094D01*
X136942914Y-58238094D02*
X136847676Y-58190475D01*
X136847676Y-58190475D02*
X136752438Y-58095237D01*
X136752438Y-58095237D02*
X136704819Y-57952380D01*
X136704819Y-57952380D02*
X136704819Y-57857142D01*
X136704819Y-57857142D02*
X136752438Y-57714285D01*
X136752438Y-57714285D02*
X136800057Y-57666666D01*
X137704819Y-56714285D02*
X137704819Y-57285713D01*
X137704819Y-56999999D02*
X136704819Y-56999999D01*
X136704819Y-56999999D02*
X136847676Y-57095237D01*
X136847676Y-57095237D02*
X136942914Y-57190475D01*
X136942914Y-57190475D02*
X136990533Y-57285713D01*
X119775714Y-79599104D02*
X120251904Y-79599104D01*
X119680476Y-79884819D02*
X120013809Y-78884819D01*
X120013809Y-78884819D02*
X120347142Y-79884819D01*
X120632857Y-78980057D02*
X120680476Y-78932438D01*
X120680476Y-78932438D02*
X120775714Y-78884819D01*
X120775714Y-78884819D02*
X121013809Y-78884819D01*
X121013809Y-78884819D02*
X121109047Y-78932438D01*
X121109047Y-78932438D02*
X121156666Y-78980057D01*
X121156666Y-78980057D02*
X121204285Y-79075295D01*
X121204285Y-79075295D02*
X121204285Y-79170533D01*
X121204285Y-79170533D02*
X121156666Y-79313390D01*
X121156666Y-79313390D02*
X120585238Y-79884819D01*
X120585238Y-79884819D02*
X121204285Y-79884819D01*
X91135714Y-86529104D02*
X91611904Y-86529104D01*
X91040476Y-86814819D02*
X91373809Y-85814819D01*
X91373809Y-85814819D02*
X91707142Y-86814819D01*
X92564285Y-86814819D02*
X91992857Y-86814819D01*
X92278571Y-86814819D02*
X92278571Y-85814819D01*
X92278571Y-85814819D02*
X92183333Y-85957676D01*
X92183333Y-85957676D02*
X92088095Y-86052914D01*
X92088095Y-86052914D02*
X91992857Y-86100533D01*
X109835714Y-48099104D02*
X110311904Y-48099104D01*
X109740476Y-48384819D02*
X110073809Y-47384819D01*
X110073809Y-47384819D02*
X110407142Y-48384819D01*
X110645238Y-47384819D02*
X111264285Y-47384819D01*
X111264285Y-47384819D02*
X110930952Y-47765771D01*
X110930952Y-47765771D02*
X111073809Y-47765771D01*
X111073809Y-47765771D02*
X111169047Y-47813390D01*
X111169047Y-47813390D02*
X111216666Y-47861009D01*
X111216666Y-47861009D02*
X111264285Y-47956247D01*
X111264285Y-47956247D02*
X111264285Y-48194342D01*
X111264285Y-48194342D02*
X111216666Y-48289580D01*
X111216666Y-48289580D02*
X111169047Y-48337200D01*
X111169047Y-48337200D02*
X111073809Y-48384819D01*
X111073809Y-48384819D02*
X110788095Y-48384819D01*
X110788095Y-48384819D02*
X110692857Y-48337200D01*
X110692857Y-48337200D02*
X110645238Y-48289580D01*
D11*
%TO.C,R2*%
X148690000Y-76740000D02*
X148690000Y-83280000D01*
X148360000Y-76740000D02*
X148690000Y-76740000D01*
X146280000Y-76740000D02*
X145950000Y-76740000D01*
X145950000Y-76740000D02*
X145950000Y-83280000D01*
X148690000Y-83280000D02*
X148360000Y-83280000D01*
X145950000Y-83280000D02*
X146280000Y-83280000D01*
%TO.C,R1*%
X143610000Y-71660000D02*
X143610000Y-78200000D01*
X143280000Y-71660000D02*
X143610000Y-71660000D01*
X141200000Y-71660000D02*
X140870000Y-71660000D01*
X140870000Y-71660000D02*
X140870000Y-78200000D01*
X143610000Y-78200000D02*
X143280000Y-78200000D01*
X140870000Y-78200000D02*
X141200000Y-78200000D01*
D12*
%TO.C,S2*%
X102816800Y-92299600D02*
X103066800Y-92299600D01*
X97127200Y-87937400D02*
X102420000Y-87947200D01*
X96710800Y-92295200D02*
X96710800Y-90200000D01*
X102816800Y-92306200D02*
X102816800Y-90198000D01*
X101820000Y-94541400D02*
X97152600Y-94541400D01*
%TO.C,S1*%
X113950400Y-92046800D02*
X113950400Y-92296800D01*
X118312600Y-86357200D02*
X118302800Y-91650000D01*
X113954800Y-85940800D02*
X116050000Y-85940800D01*
X113943800Y-92046800D02*
X116052000Y-92046800D01*
X111708600Y-91050000D02*
X111708600Y-86382600D01*
%TO.C,J5*%
X89000000Y-51900000D02*
X88000000Y-51900000D01*
X89000000Y-61100000D02*
X88000000Y-61100000D01*
X81700000Y-51900000D02*
X82200000Y-51900000D01*
X81700000Y-51900000D02*
X81700000Y-52400000D01*
X81700000Y-61100000D02*
X81700000Y-60600000D01*
X81700000Y-61100000D02*
X82200000Y-61100000D01*
X90700000Y-57700000D02*
X90700000Y-55300000D01*
X96300000Y-61100000D02*
X95800000Y-61100000D01*
X96300000Y-61100000D02*
X96300000Y-60600000D01*
X96300000Y-51900000D02*
X95800000Y-51900000D01*
X96300000Y-51900000D02*
X96300000Y-52400000D01*
%TO.C,J4*%
X143575000Y-83220000D02*
X143575000Y-83720000D01*
X143575000Y-83220000D02*
X143075000Y-83220000D01*
X138435000Y-83200000D02*
X138435000Y-83700000D01*
X138435000Y-83200000D02*
X138935000Y-83200000D01*
X138435000Y-89800000D02*
X138435000Y-89300000D01*
X138435000Y-89800000D02*
X138935000Y-89800000D01*
X143585000Y-89790000D02*
X143585000Y-89290000D01*
X143585000Y-89790000D02*
X143085000Y-89790000D01*
%TO.C,J3*%
X123700000Y-83700000D02*
X123700000Y-84200000D01*
X123700000Y-83700000D02*
X124200000Y-83700000D01*
X123700000Y-90300000D02*
X123700000Y-89800000D01*
X123700000Y-90300000D02*
X124200000Y-90300000D01*
%TO.C,J2*%
X109980000Y-72360000D02*
X109480000Y-72360000D01*
X109980000Y-72360000D02*
X109980000Y-72860000D01*
X103380000Y-72360000D02*
X103880000Y-72360000D01*
X103380000Y-72360000D02*
X103380000Y-72860000D01*
%TO.C,J1*%
X137800000Y-62895000D02*
X137300000Y-62895000D01*
X137800000Y-62895000D02*
X137800000Y-63395000D01*
X131200000Y-62895000D02*
X131700000Y-62895000D01*
X131200000Y-62895000D02*
X131200000Y-63395000D01*
D11*
%TO.C,C2*%
X102240113Y-59525000D02*
X102740113Y-59525000D01*
X102490113Y-59275000D02*
X102490113Y-59775000D01*
X105044888Y-58420000D02*
X105044888Y-59960000D01*
X105044888Y-62040000D02*
X105044888Y-63580000D01*
X105084888Y-58420000D02*
X105084888Y-59960000D01*
X105084888Y-62040000D02*
X105084888Y-63580000D01*
X105124888Y-58421000D02*
X105124888Y-59960000D01*
X105124888Y-62040000D02*
X105124888Y-63579000D01*
X105164888Y-58422000D02*
X105164888Y-59960000D01*
X105164888Y-62040000D02*
X105164888Y-63578000D01*
X105204888Y-58424000D02*
X105204888Y-59960000D01*
X105204888Y-62040000D02*
X105204888Y-63576000D01*
X105244888Y-58427000D02*
X105244888Y-59960000D01*
X105244888Y-62040000D02*
X105244888Y-63573000D01*
X105284888Y-58431000D02*
X105284888Y-59960000D01*
X105284888Y-62040000D02*
X105284888Y-63569000D01*
X105324888Y-58435000D02*
X105324888Y-59960000D01*
X105324888Y-62040000D02*
X105324888Y-63565000D01*
X105364888Y-58439000D02*
X105364888Y-59960000D01*
X105364888Y-62040000D02*
X105364888Y-63561000D01*
X105404888Y-58444000D02*
X105404888Y-59960000D01*
X105404888Y-62040000D02*
X105404888Y-63556000D01*
X105444888Y-58450000D02*
X105444888Y-59960000D01*
X105444888Y-62040000D02*
X105444888Y-63550000D01*
X105484888Y-58457000D02*
X105484888Y-59960000D01*
X105484888Y-62040000D02*
X105484888Y-63543000D01*
X105524888Y-58464000D02*
X105524888Y-59960000D01*
X105524888Y-62040000D02*
X105524888Y-63536000D01*
X105564888Y-58472000D02*
X105564888Y-59960000D01*
X105564888Y-62040000D02*
X105564888Y-63528000D01*
X105604888Y-58480000D02*
X105604888Y-59960000D01*
X105604888Y-62040000D02*
X105604888Y-63520000D01*
X105644888Y-58489000D02*
X105644888Y-59960000D01*
X105644888Y-62040000D02*
X105644888Y-63511000D01*
X105684888Y-58499000D02*
X105684888Y-59960000D01*
X105684888Y-62040000D02*
X105684888Y-63501000D01*
X105724888Y-58509000D02*
X105724888Y-59960000D01*
X105724888Y-62040000D02*
X105724888Y-63491000D01*
X105765888Y-58520000D02*
X105765888Y-59960000D01*
X105765888Y-62040000D02*
X105765888Y-63480000D01*
X105805888Y-58532000D02*
X105805888Y-59960000D01*
X105805888Y-62040000D02*
X105805888Y-63468000D01*
X105845888Y-58545000D02*
X105845888Y-59960000D01*
X105845888Y-62040000D02*
X105845888Y-63455000D01*
X105885888Y-58558000D02*
X105885888Y-59960000D01*
X105885888Y-62040000D02*
X105885888Y-63442000D01*
X105925888Y-58572000D02*
X105925888Y-59960000D01*
X105925888Y-62040000D02*
X105925888Y-63428000D01*
X105965888Y-58586000D02*
X105965888Y-59960000D01*
X105965888Y-62040000D02*
X105965888Y-63414000D01*
X106005888Y-58602000D02*
X106005888Y-59960000D01*
X106005888Y-62040000D02*
X106005888Y-63398000D01*
X106045888Y-58618000D02*
X106045888Y-59960000D01*
X106045888Y-62040000D02*
X106045888Y-63382000D01*
X106085888Y-58635000D02*
X106085888Y-59960000D01*
X106085888Y-62040000D02*
X106085888Y-63365000D01*
X106125888Y-58652000D02*
X106125888Y-59960000D01*
X106125888Y-62040000D02*
X106125888Y-63348000D01*
X106165888Y-58671000D02*
X106165888Y-59960000D01*
X106165888Y-62040000D02*
X106165888Y-63329000D01*
X106205888Y-58690000D02*
X106205888Y-59960000D01*
X106205888Y-62040000D02*
X106205888Y-63310000D01*
X106245888Y-58710000D02*
X106245888Y-59960000D01*
X106245888Y-62040000D02*
X106245888Y-63290000D01*
X106285888Y-58732000D02*
X106285888Y-59960000D01*
X106285888Y-62040000D02*
X106285888Y-63268000D01*
X106325888Y-58753000D02*
X106325888Y-59960000D01*
X106325888Y-62040000D02*
X106325888Y-63247000D01*
X106365888Y-58776000D02*
X106365888Y-59960000D01*
X106365888Y-62040000D02*
X106365888Y-63224000D01*
X106405888Y-58800000D02*
X106405888Y-59960000D01*
X106405888Y-62040000D02*
X106405888Y-63200000D01*
X106445888Y-58825000D02*
X106445888Y-59960000D01*
X106445888Y-62040000D02*
X106445888Y-63175000D01*
X106485888Y-58851000D02*
X106485888Y-59960000D01*
X106485888Y-62040000D02*
X106485888Y-63149000D01*
X106525888Y-58878000D02*
X106525888Y-59960000D01*
X106525888Y-62040000D02*
X106525888Y-63122000D01*
X106565888Y-58905000D02*
X106565888Y-59960000D01*
X106565888Y-62040000D02*
X106565888Y-63095000D01*
X106605888Y-58935000D02*
X106605888Y-59960000D01*
X106605888Y-62040000D02*
X106605888Y-63065000D01*
X106645888Y-58965000D02*
X106645888Y-59960000D01*
X106645888Y-62040000D02*
X106645888Y-63035000D01*
X106685888Y-58996000D02*
X106685888Y-59960000D01*
X106685888Y-62040000D02*
X106685888Y-63004000D01*
X106725888Y-59029000D02*
X106725888Y-59960000D01*
X106725888Y-62040000D02*
X106725888Y-62971000D01*
X106765888Y-59063000D02*
X106765888Y-59960000D01*
X106765888Y-62040000D02*
X106765888Y-62937000D01*
X106805888Y-59099000D02*
X106805888Y-59960000D01*
X106805888Y-62040000D02*
X106805888Y-62901000D01*
X106845888Y-59136000D02*
X106845888Y-59960000D01*
X106845888Y-62040000D02*
X106845888Y-62864000D01*
X106885888Y-59174000D02*
X106885888Y-59960000D01*
X106885888Y-62040000D02*
X106885888Y-62826000D01*
X106925888Y-59215000D02*
X106925888Y-59960000D01*
X106925888Y-62040000D02*
X106925888Y-62785000D01*
X106965888Y-59257000D02*
X106965888Y-59960000D01*
X106965888Y-62040000D02*
X106965888Y-62743000D01*
X107005888Y-59301000D02*
X107005888Y-59960000D01*
X107005888Y-62040000D02*
X107005888Y-62699000D01*
X107045888Y-59347000D02*
X107045888Y-59960000D01*
X107045888Y-62040000D02*
X107045888Y-62653000D01*
X107085888Y-59395000D02*
X107085888Y-62605000D01*
X107125888Y-59446000D02*
X107125888Y-62554000D01*
X107165888Y-59500000D02*
X107165888Y-62500000D01*
X107205888Y-59557000D02*
X107205888Y-62443000D01*
X107245888Y-59617000D02*
X107245888Y-62383000D01*
X107285888Y-59681000D02*
X107285888Y-62319000D01*
X107325888Y-59749000D02*
X107325888Y-62251000D01*
X107365888Y-59822000D02*
X107365888Y-62178000D01*
X107405888Y-59902000D02*
X107405888Y-62098000D01*
X107445888Y-59989000D02*
X107445888Y-62011000D01*
X107485888Y-60085000D02*
X107485888Y-61915000D01*
X107525888Y-60195000D02*
X107525888Y-61805000D01*
X107565888Y-60323000D02*
X107565888Y-61677000D01*
X107605888Y-60482000D02*
X107605888Y-61518000D01*
X107645888Y-60716000D02*
X107645888Y-61284000D01*
X107664888Y-61000000D02*
G75*
G02*
X102424888Y-61000000I-2620000J0D01*
G01*
X102424888Y-61000000D02*
G75*
G02*
X107664888Y-61000000I2620000J0D01*
G01*
%TO.C,C1*%
X134975000Y-54695225D02*
X134975000Y-55195225D01*
X135225000Y-54945225D02*
X134725000Y-54945225D01*
X136080000Y-57500000D02*
X134540000Y-57500000D01*
X132460000Y-57500000D02*
X130920000Y-57500000D01*
X136080000Y-57540000D02*
X134540000Y-57540000D01*
X132460000Y-57540000D02*
X130920000Y-57540000D01*
X136079000Y-57580000D02*
X134540000Y-57580000D01*
X132460000Y-57580000D02*
X130921000Y-57580000D01*
X136078000Y-57620000D02*
X134540000Y-57620000D01*
X132460000Y-57620000D02*
X130922000Y-57620000D01*
X136076000Y-57660000D02*
X134540000Y-57660000D01*
X132460000Y-57660000D02*
X130924000Y-57660000D01*
X136073000Y-57700000D02*
X134540000Y-57700000D01*
X132460000Y-57700000D02*
X130927000Y-57700000D01*
X136069000Y-57740000D02*
X134540000Y-57740000D01*
X132460000Y-57740000D02*
X130931000Y-57740000D01*
X136065000Y-57780000D02*
X134540000Y-57780000D01*
X132460000Y-57780000D02*
X130935000Y-57780000D01*
X136061000Y-57820000D02*
X134540000Y-57820000D01*
X132460000Y-57820000D02*
X130939000Y-57820000D01*
X136056000Y-57860000D02*
X134540000Y-57860000D01*
X132460000Y-57860000D02*
X130944000Y-57860000D01*
X136050000Y-57900000D02*
X134540000Y-57900000D01*
X132460000Y-57900000D02*
X130950000Y-57900000D01*
X136043000Y-57940000D02*
X134540000Y-57940000D01*
X132460000Y-57940000D02*
X130957000Y-57940000D01*
X136036000Y-57980000D02*
X134540000Y-57980000D01*
X132460000Y-57980000D02*
X130964000Y-57980000D01*
X136028000Y-58020000D02*
X134540000Y-58020000D01*
X132460000Y-58020000D02*
X130972000Y-58020000D01*
X136020000Y-58060000D02*
X134540000Y-58060000D01*
X132460000Y-58060000D02*
X130980000Y-58060000D01*
X136011000Y-58100000D02*
X134540000Y-58100000D01*
X132460000Y-58100000D02*
X130989000Y-58100000D01*
X136001000Y-58140000D02*
X134540000Y-58140000D01*
X132460000Y-58140000D02*
X130999000Y-58140000D01*
X135991000Y-58180000D02*
X134540000Y-58180000D01*
X132460000Y-58180000D02*
X131009000Y-58180000D01*
X135980000Y-58221000D02*
X134540000Y-58221000D01*
X132460000Y-58221000D02*
X131020000Y-58221000D01*
X135968000Y-58261000D02*
X134540000Y-58261000D01*
X132460000Y-58261000D02*
X131032000Y-58261000D01*
X135955000Y-58301000D02*
X134540000Y-58301000D01*
X132460000Y-58301000D02*
X131045000Y-58301000D01*
X135942000Y-58341000D02*
X134540000Y-58341000D01*
X132460000Y-58341000D02*
X131058000Y-58341000D01*
X135928000Y-58381000D02*
X134540000Y-58381000D01*
X132460000Y-58381000D02*
X131072000Y-58381000D01*
X135914000Y-58421000D02*
X134540000Y-58421000D01*
X132460000Y-58421000D02*
X131086000Y-58421000D01*
X135898000Y-58461000D02*
X134540000Y-58461000D01*
X132460000Y-58461000D02*
X131102000Y-58461000D01*
X135882000Y-58501000D02*
X134540000Y-58501000D01*
X132460000Y-58501000D02*
X131118000Y-58501000D01*
X135865000Y-58541000D02*
X134540000Y-58541000D01*
X132460000Y-58541000D02*
X131135000Y-58541000D01*
X135848000Y-58581000D02*
X134540000Y-58581000D01*
X132460000Y-58581000D02*
X131152000Y-58581000D01*
X135829000Y-58621000D02*
X134540000Y-58621000D01*
X132460000Y-58621000D02*
X131171000Y-58621000D01*
X135810000Y-58661000D02*
X134540000Y-58661000D01*
X132460000Y-58661000D02*
X131190000Y-58661000D01*
X135790000Y-58701000D02*
X134540000Y-58701000D01*
X132460000Y-58701000D02*
X131210000Y-58701000D01*
X135768000Y-58741000D02*
X134540000Y-58741000D01*
X132460000Y-58741000D02*
X131232000Y-58741000D01*
X135747000Y-58781000D02*
X134540000Y-58781000D01*
X132460000Y-58781000D02*
X131253000Y-58781000D01*
X135724000Y-58821000D02*
X134540000Y-58821000D01*
X132460000Y-58821000D02*
X131276000Y-58821000D01*
X135700000Y-58861000D02*
X134540000Y-58861000D01*
X132460000Y-58861000D02*
X131300000Y-58861000D01*
X135675000Y-58901000D02*
X134540000Y-58901000D01*
X132460000Y-58901000D02*
X131325000Y-58901000D01*
X135649000Y-58941000D02*
X134540000Y-58941000D01*
X132460000Y-58941000D02*
X131351000Y-58941000D01*
X135622000Y-58981000D02*
X134540000Y-58981000D01*
X132460000Y-58981000D02*
X131378000Y-58981000D01*
X135595000Y-59021000D02*
X134540000Y-59021000D01*
X132460000Y-59021000D02*
X131405000Y-59021000D01*
X135565000Y-59061000D02*
X134540000Y-59061000D01*
X132460000Y-59061000D02*
X131435000Y-59061000D01*
X135535000Y-59101000D02*
X134540000Y-59101000D01*
X132460000Y-59101000D02*
X131465000Y-59101000D01*
X135504000Y-59141000D02*
X134540000Y-59141000D01*
X132460000Y-59141000D02*
X131496000Y-59141000D01*
X135471000Y-59181000D02*
X134540000Y-59181000D01*
X132460000Y-59181000D02*
X131529000Y-59181000D01*
X135437000Y-59221000D02*
X134540000Y-59221000D01*
X132460000Y-59221000D02*
X131563000Y-59221000D01*
X135401000Y-59261000D02*
X134540000Y-59261000D01*
X132460000Y-59261000D02*
X131599000Y-59261000D01*
X135364000Y-59301000D02*
X134540000Y-59301000D01*
X132460000Y-59301000D02*
X131636000Y-59301000D01*
X135326000Y-59341000D02*
X134540000Y-59341000D01*
X132460000Y-59341000D02*
X131674000Y-59341000D01*
X135285000Y-59381000D02*
X134540000Y-59381000D01*
X132460000Y-59381000D02*
X131715000Y-59381000D01*
X135243000Y-59421000D02*
X134540000Y-59421000D01*
X132460000Y-59421000D02*
X131757000Y-59421000D01*
X135199000Y-59461000D02*
X134540000Y-59461000D01*
X132460000Y-59461000D02*
X131801000Y-59461000D01*
X135153000Y-59501000D02*
X134540000Y-59501000D01*
X132460000Y-59501000D02*
X131847000Y-59501000D01*
X135105000Y-59541000D02*
X131895000Y-59541000D01*
X135054000Y-59581000D02*
X131946000Y-59581000D01*
X135000000Y-59621000D02*
X132000000Y-59621000D01*
X134943000Y-59661000D02*
X132057000Y-59661000D01*
X134883000Y-59701000D02*
X132117000Y-59701000D01*
X134819000Y-59741000D02*
X132181000Y-59741000D01*
X134751000Y-59781000D02*
X132249000Y-59781000D01*
X134678000Y-59821000D02*
X132322000Y-59821000D01*
X134598000Y-59861000D02*
X132402000Y-59861000D01*
X134511000Y-59901000D02*
X132489000Y-59901000D01*
X134415000Y-59941000D02*
X132585000Y-59941000D01*
X134305000Y-59981000D02*
X132695000Y-59981000D01*
X134177000Y-60021000D02*
X132823000Y-60021000D01*
X134018000Y-60061000D02*
X132982000Y-60061000D01*
X133784000Y-60101000D02*
X133216000Y-60101000D01*
X136120000Y-57500000D02*
G75*
G02*
X130880000Y-57500000I-2620000J0D01*
G01*
X130880000Y-57500000D02*
G75*
G02*
X136120000Y-57500000I2620000J0D01*
G01*
%TO.C,A2*%
X128240000Y-78290000D02*
X128240000Y-76890000D01*
X128240000Y-75620000D02*
X128240000Y-57710000D01*
X128240000Y-57710000D02*
X112740000Y-57710000D01*
X126840000Y-78290000D02*
X128240000Y-78290000D01*
X125570000Y-78290000D02*
X125570000Y-75620000D01*
X125570000Y-75620000D02*
X128240000Y-75620000D01*
X125570000Y-75620000D02*
X125570000Y-57710000D01*
X115410000Y-78290000D02*
X115410000Y-57710000D01*
X112740000Y-78290000D02*
X125570000Y-78290000D01*
X112740000Y-57710000D02*
X112740000Y-78290000D01*
%TO.C,A1*%
X99600000Y-85220000D02*
X99600000Y-83820000D01*
X99600000Y-82550000D02*
X99600000Y-64640000D01*
X99600000Y-64640000D02*
X84100000Y-64640000D01*
X98200000Y-85220000D02*
X99600000Y-85220000D01*
X96930000Y-85220000D02*
X96930000Y-82550000D01*
X96930000Y-82550000D02*
X99600000Y-82550000D01*
X96930000Y-82550000D02*
X96930000Y-64640000D01*
X86770000Y-85220000D02*
X86770000Y-64640000D01*
X84100000Y-85220000D02*
X96930000Y-85220000D01*
X84100000Y-64640000D02*
X84100000Y-85220000D01*
%TO.C,A3*%
X74860000Y-81460000D02*
X74860000Y-93140000D01*
X74860000Y-93140000D02*
X81210000Y-93140000D01*
X79310000Y-52250000D02*
X79310000Y-61390000D01*
X79310000Y-61390000D02*
X81210000Y-61390000D01*
X81210000Y-49070000D02*
X81210000Y-52250000D01*
X81210000Y-52250000D02*
X79310000Y-52250000D01*
X81210000Y-61390000D02*
X81210000Y-81460000D01*
X81210000Y-81460000D02*
X74860000Y-81460000D01*
X81210000Y-93140000D02*
X81210000Y-102670000D01*
X81210000Y-102670000D02*
X145860000Y-102670000D01*
X145860000Y-102670000D02*
X147510000Y-101020000D01*
X147510000Y-49070000D02*
X81210000Y-49070000D01*
X147510000Y-51740000D02*
X147510000Y-49070000D01*
X147510000Y-89590000D02*
X150050000Y-87050000D01*
X147510000Y-101020000D02*
X147510000Y-89590000D01*
X150050000Y-54280000D02*
X147510000Y-51740000D01*
X150050000Y-87050000D02*
X150050000Y-54280000D01*
%TD*%
M02*
