; NON-PLATED HOLES START AT T1
; THROUGH (PLATED) HOLES START AT T100
M48
INCH
T100C0.040000
T101C0.100000
T102C0.027559
T103C0.039370
T104C0.030000
T105C0.038000
T106C0.035000
%
T100
X022094Y019996
X015093Y000996
X018093Y000996
X012093Y000997
X016093Y000996
X023951Y007051
X011493Y019996
X009493Y019996
X026193Y011996
X020093Y000996
X024093Y000996
X026193Y010996
X022094Y000996
X026193Y009996
X023093Y000996
X025193Y010996
X010493Y019996
X014093Y000996
X011094Y000997
X015493Y019996
X012493Y019996
X020951Y007051
X022951Y007051
X008493Y019996
X021951Y007051
X025093Y019996
X020093Y019996
X023093Y019996
X018093Y019996
X019951Y007051
X013094Y000996
X016494Y019996
X017094Y000996
X025093Y000996
X025193Y011996
X013493Y019996
X021093Y000996
X014494Y019996
X024093Y019996
X021093Y019996
X007493Y019996
X025193Y009996
X019093Y019996
T101
X004551Y012992
X003351Y014892
X005751Y014892
T102
X010450Y014846
X010450Y016846
T103
X005314Y005522
X005314Y002522
X007314Y002522
X007314Y005522
T104
X010034Y006522
X015034Y011522
X010034Y012522
X010034Y007522
X010034Y008522
X015034Y012522
X010034Y011522
X015034Y006522
X015034Y007522
X015034Y005522
X015034Y009522
X015034Y010522
X010034Y010522
X015034Y008522
X010034Y009522
X010034Y005522
T105
X017198Y007512
X017198Y008512
X017198Y009512
X017198Y010512
T106
X022089Y015838
X022089Y011838
T00
M30
