G04 MADE WITH FRITZING*
G04 WWW.FRITZING.ORG*
G04 DOUBLE SIDED*
G04 HOLES PLATED*
G04 CONTOUR ON CENTER OF CONTOUR VECTOR*
%ASAXBY*%
%FSLAX23Y23*%
%MOIN*%
%OFA0B0*%
%SFA1.0B1.0*%
%ADD10C,0.074000*%
%ADD11C,0.059370*%
%ADD12C,0.140000*%
%ADD13C,0.065000*%
%ADD14C,0.070000*%
%ADD15C,0.078000*%
%ADD16C,0.060000*%
%ADD17C,0.075000*%
%ADD18R,0.074000X0.074000*%
%ADD19R,0.070000X0.070000*%
%ADD20R,0.078000X0.078000*%
%ADD21C,0.024000*%
%ADD22R,0.001000X0.001000*%
%LNCOPPER1*%
G90*
G70*
G54D10*
X2395Y705D03*
X2295Y705D03*
X2195Y705D03*
X2095Y705D03*
X1995Y705D03*
G54D11*
X731Y552D03*
X731Y252D03*
X531Y552D03*
X531Y252D03*
X731Y552D03*
X731Y252D03*
X531Y552D03*
X531Y252D03*
G54D12*
X575Y1489D03*
X335Y1489D03*
X455Y1299D03*
G54D13*
X1045Y1685D03*
X1045Y1485D03*
X1045Y1685D03*
X1045Y1485D03*
G54D14*
X1003Y1252D03*
X1503Y1252D03*
X1003Y1152D03*
X1503Y1152D03*
X1003Y1052D03*
X1503Y1052D03*
X1003Y952D03*
X1503Y952D03*
X1003Y852D03*
X1503Y852D03*
X1003Y752D03*
X1503Y752D03*
X1003Y652D03*
X1503Y652D03*
X1003Y552D03*
X1503Y552D03*
G54D15*
X1720Y1051D03*
X1720Y951D03*
X1720Y851D03*
X1720Y751D03*
G54D16*
X949Y2000D03*
X1809Y100D03*
X2409Y2000D03*
X2619Y1100D03*
X1349Y2000D03*
X2309Y100D03*
X2009Y2000D03*
X1409Y100D03*
X2619Y1200D03*
X2619Y1000D03*
X1549Y2000D03*
X1149Y2000D03*
X2109Y100D03*
X2509Y100D03*
X2209Y2000D03*
X1809Y2000D03*
X1609Y100D03*
X2519Y1200D03*
X2519Y1100D03*
X2519Y1000D03*
X1649Y2000D03*
X1449Y2000D03*
X1249Y2000D03*
X1049Y2000D03*
X749Y2000D03*
X849Y2000D03*
X2009Y100D03*
X2209Y100D03*
X2409Y100D03*
X2509Y2000D03*
X2309Y2000D03*
X2109Y2000D03*
X1909Y2000D03*
X1309Y100D03*
X1509Y100D03*
X1209Y100D03*
X1109Y100D03*
X1709Y100D03*
G54D17*
X2209Y1584D03*
X2209Y1184D03*
G54D18*
X2395Y705D03*
G54D19*
X1503Y552D03*
X1503Y1152D03*
G54D20*
X1720Y1051D03*
G54D21*
X692Y320D02*
X1463Y317D01*
D02*
X1463Y317D02*
X1608Y159D01*
D02*
X1608Y159D02*
X1609Y120D01*
D02*
X543Y536D02*
X692Y320D01*
D02*
X1681Y598D02*
X2217Y598D01*
D02*
X2383Y1763D02*
X2395Y725D01*
D02*
X2309Y1832D02*
X2383Y1763D01*
D02*
X1809Y1765D02*
X2080Y1550D01*
D02*
X1350Y1758D02*
X1986Y1288D01*
D02*
X1986Y1288D02*
X1995Y725D01*
D02*
X1621Y649D02*
X1681Y598D01*
D02*
X2080Y1550D02*
X2095Y725D01*
D02*
X2217Y598D02*
X2283Y689D01*
D02*
X1349Y1980D02*
X1350Y1758D01*
D02*
X1809Y1980D02*
X1809Y1765D01*
D02*
X1518Y652D02*
X1621Y649D01*
D02*
X2309Y1980D02*
X2309Y1832D01*
D02*
X576Y1036D02*
X575Y1439D01*
D02*
X931Y443D02*
X576Y1036D01*
D02*
X1554Y443D02*
X931Y443D01*
D02*
X1806Y152D02*
X1554Y443D01*
D02*
X1808Y120D02*
X1806Y152D01*
D02*
X1049Y1980D02*
X1045Y1698D01*
D02*
X415Y1687D02*
X342Y1615D01*
D02*
X342Y1615D02*
X338Y1539D01*
D02*
X571Y1686D02*
X415Y1687D01*
D02*
X625Y1489D02*
X1031Y1485D01*
D02*
X1518Y1052D02*
X1701Y1051D01*
D02*
X1701Y951D02*
X1518Y952D01*
D02*
X1701Y851D02*
X1518Y852D01*
D02*
X1701Y751D02*
X1518Y752D01*
D02*
X571Y1686D02*
X1031Y1685D01*
D02*
X1394Y1082D02*
X1396Y650D01*
D02*
X1396Y650D02*
X1492Y562D01*
D02*
X1491Y1144D02*
X1394Y1082D01*
D02*
X455Y1550D02*
X571Y1686D01*
D02*
X1194Y1482D02*
X1059Y1484D01*
D02*
X455Y1349D02*
X455Y1550D01*
D02*
X1491Y1261D02*
X1194Y1482D01*
D02*
X1646Y1402D02*
X1644Y1236D01*
D02*
X1261Y1684D02*
X1646Y1402D01*
D02*
X1059Y1685D02*
X1261Y1684D01*
D02*
X1644Y1236D02*
X1516Y1160D01*
G54D22*
X1013Y1517D02*
X1077Y1517D01*
X1013Y1516D02*
X1077Y1516D01*
X1013Y1515D02*
X1077Y1515D01*
X1013Y1514D02*
X1077Y1514D01*
X1013Y1513D02*
X1077Y1513D01*
X1013Y1512D02*
X1077Y1512D01*
X1013Y1511D02*
X1077Y1511D01*
X1013Y1510D02*
X1077Y1510D01*
X1013Y1509D02*
X1077Y1509D01*
X1013Y1508D02*
X1077Y1508D01*
X1013Y1507D02*
X1077Y1507D01*
X1013Y1506D02*
X1077Y1506D01*
X1013Y1505D02*
X1077Y1505D01*
X1013Y1504D02*
X1077Y1504D01*
X1013Y1503D02*
X1077Y1503D01*
X1013Y1502D02*
X1077Y1502D01*
X1013Y1501D02*
X1077Y1501D01*
X1013Y1500D02*
X1077Y1500D01*
X1013Y1499D02*
X1077Y1499D01*
X1013Y1498D02*
X1041Y1498D01*
X1049Y1498D02*
X1077Y1498D01*
X1013Y1497D02*
X1038Y1497D01*
X1052Y1497D02*
X1077Y1497D01*
X1013Y1496D02*
X1037Y1496D01*
X1054Y1496D02*
X1077Y1496D01*
X1013Y1495D02*
X1036Y1495D01*
X1055Y1495D02*
X1077Y1495D01*
X1013Y1494D02*
X1034Y1494D01*
X1056Y1494D02*
X1077Y1494D01*
X1013Y1493D02*
X1034Y1493D01*
X1057Y1493D02*
X1077Y1493D01*
X1013Y1492D02*
X1033Y1492D01*
X1057Y1492D02*
X1077Y1492D01*
X1013Y1491D02*
X1032Y1491D01*
X1058Y1491D02*
X1077Y1491D01*
X1013Y1490D02*
X1032Y1490D01*
X1058Y1490D02*
X1077Y1490D01*
X1013Y1489D02*
X1032Y1489D01*
X1059Y1489D02*
X1077Y1489D01*
X1013Y1488D02*
X1031Y1488D01*
X1059Y1488D02*
X1077Y1488D01*
X1013Y1487D02*
X1031Y1487D01*
X1059Y1487D02*
X1077Y1487D01*
X1013Y1486D02*
X1031Y1486D01*
X1059Y1486D02*
X1077Y1486D01*
X1013Y1485D02*
X1031Y1485D01*
X1059Y1485D02*
X1077Y1485D01*
X1013Y1484D02*
X1031Y1484D01*
X1059Y1484D02*
X1077Y1484D01*
X1013Y1483D02*
X1031Y1483D01*
X1059Y1483D02*
X1077Y1483D01*
X1013Y1482D02*
X1031Y1482D01*
X1059Y1482D02*
X1077Y1482D01*
X1013Y1481D02*
X1031Y1481D01*
X1059Y1481D02*
X1077Y1481D01*
X1013Y1480D02*
X1032Y1480D01*
X1059Y1480D02*
X1077Y1480D01*
X1013Y1479D02*
X1032Y1479D01*
X1058Y1479D02*
X1077Y1479D01*
X1013Y1478D02*
X1033Y1478D01*
X1058Y1478D02*
X1077Y1478D01*
X1013Y1477D02*
X1033Y1477D01*
X1057Y1477D02*
X1077Y1477D01*
X1013Y1476D02*
X1034Y1476D01*
X1056Y1476D02*
X1077Y1476D01*
X1013Y1475D02*
X1035Y1475D01*
X1055Y1475D02*
X1077Y1475D01*
X1013Y1474D02*
X1036Y1474D01*
X1054Y1474D02*
X1077Y1474D01*
X1013Y1473D02*
X1038Y1473D01*
X1053Y1473D02*
X1077Y1473D01*
X1013Y1472D02*
X1040Y1472D01*
X1051Y1472D02*
X1077Y1472D01*
X1013Y1471D02*
X1077Y1471D01*
X1013Y1470D02*
X1077Y1470D01*
X1013Y1469D02*
X1077Y1469D01*
X1013Y1468D02*
X1077Y1468D01*
X1013Y1467D02*
X1077Y1467D01*
X1013Y1466D02*
X1077Y1466D01*
X1013Y1465D02*
X1077Y1465D01*
X1013Y1464D02*
X1077Y1464D01*
X1013Y1463D02*
X1077Y1463D01*
X1013Y1462D02*
X1077Y1462D01*
X1013Y1461D02*
X1077Y1461D01*
X1013Y1460D02*
X1077Y1460D01*
X1013Y1459D02*
X1077Y1459D01*
X1013Y1458D02*
X1077Y1458D01*
X1013Y1457D02*
X1077Y1457D01*
X1013Y1456D02*
X1077Y1456D01*
X1013Y1455D02*
X1077Y1455D01*
X1013Y1454D02*
X1077Y1454D01*
X1013Y1453D02*
X1077Y1453D01*
X503Y582D02*
X561Y582D01*
X703Y582D02*
X761Y582D01*
X503Y581D02*
X561Y581D01*
X703Y581D02*
X761Y581D01*
X503Y580D02*
X561Y580D01*
X703Y580D02*
X761Y580D01*
X503Y579D02*
X561Y579D01*
X703Y579D02*
X761Y579D01*
X503Y578D02*
X561Y578D01*
X703Y578D02*
X761Y578D01*
X503Y577D02*
X561Y577D01*
X703Y577D02*
X761Y577D01*
X503Y576D02*
X561Y576D01*
X703Y576D02*
X761Y576D01*
X503Y575D02*
X561Y575D01*
X703Y575D02*
X761Y575D01*
X503Y574D02*
X561Y574D01*
X703Y574D02*
X761Y574D01*
X503Y573D02*
X561Y573D01*
X703Y573D02*
X761Y573D01*
X503Y572D02*
X529Y572D01*
X535Y572D02*
X561Y572D01*
X703Y572D02*
X729Y572D01*
X735Y572D02*
X761Y572D01*
X503Y571D02*
X525Y571D01*
X539Y571D02*
X561Y571D01*
X703Y571D02*
X724Y571D01*
X739Y571D02*
X761Y571D01*
X503Y570D02*
X522Y570D01*
X541Y570D02*
X561Y570D01*
X703Y570D02*
X722Y570D01*
X741Y570D02*
X761Y570D01*
X503Y569D02*
X520Y569D01*
X543Y569D02*
X561Y569D01*
X703Y569D02*
X720Y569D01*
X743Y569D02*
X761Y569D01*
X503Y568D02*
X519Y568D01*
X544Y568D02*
X561Y568D01*
X703Y568D02*
X719Y568D01*
X744Y568D02*
X761Y568D01*
X503Y567D02*
X518Y567D01*
X546Y567D02*
X561Y567D01*
X703Y567D02*
X718Y567D01*
X746Y567D02*
X761Y567D01*
X503Y566D02*
X517Y566D01*
X547Y566D02*
X561Y566D01*
X703Y566D02*
X717Y566D01*
X747Y566D02*
X761Y566D01*
X503Y565D02*
X516Y565D01*
X547Y565D02*
X561Y565D01*
X703Y565D02*
X716Y565D01*
X747Y565D02*
X761Y565D01*
X503Y564D02*
X515Y564D01*
X548Y564D02*
X561Y564D01*
X703Y564D02*
X715Y564D01*
X748Y564D02*
X761Y564D01*
X503Y563D02*
X515Y563D01*
X549Y563D02*
X561Y563D01*
X703Y563D02*
X715Y563D01*
X749Y563D02*
X761Y563D01*
X503Y562D02*
X514Y562D01*
X549Y562D02*
X561Y562D01*
X703Y562D02*
X714Y562D01*
X749Y562D02*
X761Y562D01*
X503Y561D02*
X514Y561D01*
X550Y561D02*
X561Y561D01*
X703Y561D02*
X714Y561D01*
X750Y561D02*
X761Y561D01*
X503Y560D02*
X513Y560D01*
X550Y560D02*
X561Y560D01*
X703Y560D02*
X713Y560D01*
X750Y560D02*
X761Y560D01*
X503Y559D02*
X513Y559D01*
X551Y559D02*
X561Y559D01*
X703Y559D02*
X713Y559D01*
X751Y559D02*
X761Y559D01*
X503Y558D02*
X512Y558D01*
X551Y558D02*
X561Y558D01*
X703Y558D02*
X712Y558D01*
X751Y558D02*
X761Y558D01*
X503Y557D02*
X512Y557D01*
X551Y557D02*
X561Y557D01*
X703Y557D02*
X712Y557D01*
X751Y557D02*
X761Y557D01*
X503Y556D02*
X512Y556D01*
X552Y556D02*
X561Y556D01*
X703Y556D02*
X712Y556D01*
X752Y556D02*
X761Y556D01*
X503Y555D02*
X512Y555D01*
X552Y555D02*
X561Y555D01*
X703Y555D02*
X712Y555D01*
X752Y555D02*
X761Y555D01*
X503Y554D02*
X512Y554D01*
X552Y554D02*
X561Y554D01*
X703Y554D02*
X712Y554D01*
X752Y554D02*
X761Y554D01*
X503Y553D02*
X512Y553D01*
X552Y553D02*
X561Y553D01*
X703Y553D02*
X712Y553D01*
X752Y553D02*
X761Y553D01*
X503Y552D02*
X512Y552D01*
X552Y552D02*
X561Y552D01*
X703Y552D02*
X712Y552D01*
X752Y552D02*
X761Y552D01*
X503Y551D02*
X512Y551D01*
X552Y551D02*
X561Y551D01*
X703Y551D02*
X712Y551D01*
X752Y551D02*
X761Y551D01*
X503Y550D02*
X512Y550D01*
X552Y550D02*
X561Y550D01*
X703Y550D02*
X712Y550D01*
X752Y550D02*
X761Y550D01*
X503Y549D02*
X512Y549D01*
X552Y549D02*
X561Y549D01*
X703Y549D02*
X712Y549D01*
X752Y549D02*
X761Y549D01*
X503Y548D02*
X512Y548D01*
X551Y548D02*
X561Y548D01*
X703Y548D02*
X712Y548D01*
X751Y548D02*
X761Y548D01*
X503Y547D02*
X513Y547D01*
X551Y547D02*
X561Y547D01*
X703Y547D02*
X712Y547D01*
X751Y547D02*
X761Y547D01*
X503Y546D02*
X513Y546D01*
X551Y546D02*
X561Y546D01*
X703Y546D02*
X713Y546D01*
X751Y546D02*
X761Y546D01*
X503Y545D02*
X513Y545D01*
X550Y545D02*
X561Y545D01*
X703Y545D02*
X713Y545D01*
X750Y545D02*
X761Y545D01*
X503Y544D02*
X514Y544D01*
X550Y544D02*
X561Y544D01*
X703Y544D02*
X714Y544D01*
X750Y544D02*
X761Y544D01*
X503Y543D02*
X514Y543D01*
X549Y543D02*
X561Y543D01*
X703Y543D02*
X714Y543D01*
X749Y543D02*
X761Y543D01*
X503Y542D02*
X515Y542D01*
X549Y542D02*
X561Y542D01*
X703Y542D02*
X715Y542D01*
X749Y542D02*
X761Y542D01*
X503Y541D02*
X515Y541D01*
X548Y541D02*
X561Y541D01*
X703Y541D02*
X715Y541D01*
X748Y541D02*
X761Y541D01*
X503Y540D02*
X516Y540D01*
X547Y540D02*
X561Y540D01*
X703Y540D02*
X716Y540D01*
X747Y540D02*
X761Y540D01*
X503Y539D02*
X517Y539D01*
X546Y539D02*
X561Y539D01*
X703Y539D02*
X717Y539D01*
X746Y539D02*
X761Y539D01*
X503Y538D02*
X518Y538D01*
X545Y538D02*
X561Y538D01*
X703Y538D02*
X718Y538D01*
X745Y538D02*
X761Y538D01*
X503Y537D02*
X519Y537D01*
X544Y537D02*
X561Y537D01*
X703Y537D02*
X719Y537D01*
X744Y537D02*
X761Y537D01*
X503Y536D02*
X521Y536D01*
X543Y536D02*
X561Y536D01*
X703Y536D02*
X721Y536D01*
X743Y536D02*
X761Y536D01*
X503Y535D02*
X523Y535D01*
X541Y535D02*
X561Y535D01*
X703Y535D02*
X723Y535D01*
X741Y535D02*
X761Y535D01*
X503Y534D02*
X525Y534D01*
X539Y534D02*
X561Y534D01*
X703Y534D02*
X725Y534D01*
X738Y534D02*
X761Y534D01*
X503Y533D02*
X530Y533D01*
X533Y533D02*
X561Y533D01*
X703Y533D02*
X730Y533D01*
X733Y533D02*
X761Y533D01*
X503Y532D02*
X561Y532D01*
X703Y532D02*
X761Y532D01*
X503Y531D02*
X561Y531D01*
X703Y531D02*
X761Y531D01*
X503Y530D02*
X561Y530D01*
X703Y530D02*
X761Y530D01*
X503Y529D02*
X561Y529D01*
X703Y529D02*
X761Y529D01*
X503Y528D02*
X561Y528D01*
X703Y528D02*
X761Y528D01*
X503Y527D02*
X561Y527D01*
X703Y527D02*
X761Y527D01*
X503Y526D02*
X561Y526D01*
X703Y526D02*
X761Y526D01*
X503Y525D02*
X561Y525D01*
X703Y525D02*
X761Y525D01*
X503Y524D02*
X561Y524D01*
X703Y524D02*
X761Y524D01*
X503Y523D02*
X561Y523D01*
X703Y523D02*
X761Y523D01*
X503Y282D02*
X561Y282D01*
X703Y282D02*
X761Y282D01*
X503Y281D02*
X561Y281D01*
X703Y281D02*
X761Y281D01*
X503Y280D02*
X561Y280D01*
X703Y280D02*
X761Y280D01*
X503Y279D02*
X561Y279D01*
X703Y279D02*
X761Y279D01*
X503Y278D02*
X561Y278D01*
X703Y278D02*
X761Y278D01*
X503Y277D02*
X561Y277D01*
X703Y277D02*
X761Y277D01*
X503Y276D02*
X561Y276D01*
X703Y276D02*
X761Y276D01*
X503Y275D02*
X561Y275D01*
X703Y275D02*
X761Y275D01*
X503Y274D02*
X561Y274D01*
X703Y274D02*
X761Y274D01*
X503Y273D02*
X561Y273D01*
X703Y273D02*
X761Y273D01*
X503Y272D02*
X528Y272D01*
X535Y272D02*
X561Y272D01*
X703Y272D02*
X728Y272D01*
X735Y272D02*
X761Y272D01*
X503Y271D02*
X524Y271D01*
X539Y271D02*
X561Y271D01*
X703Y271D02*
X724Y271D01*
X739Y271D02*
X761Y271D01*
X503Y270D02*
X522Y270D01*
X541Y270D02*
X561Y270D01*
X703Y270D02*
X722Y270D01*
X741Y270D02*
X761Y270D01*
X503Y269D02*
X520Y269D01*
X543Y269D02*
X561Y269D01*
X703Y269D02*
X720Y269D01*
X743Y269D02*
X761Y269D01*
X503Y268D02*
X519Y268D01*
X544Y268D02*
X561Y268D01*
X703Y268D02*
X719Y268D01*
X744Y268D02*
X761Y268D01*
X503Y267D02*
X518Y267D01*
X546Y267D02*
X561Y267D01*
X703Y267D02*
X718Y267D01*
X746Y267D02*
X761Y267D01*
X503Y266D02*
X517Y266D01*
X547Y266D02*
X561Y266D01*
X703Y266D02*
X717Y266D01*
X747Y266D02*
X761Y266D01*
X503Y265D02*
X516Y265D01*
X548Y265D02*
X561Y265D01*
X703Y265D02*
X716Y265D01*
X747Y265D02*
X761Y265D01*
X503Y264D02*
X515Y264D01*
X548Y264D02*
X561Y264D01*
X703Y264D02*
X715Y264D01*
X748Y264D02*
X761Y264D01*
X503Y263D02*
X515Y263D01*
X549Y263D02*
X561Y263D01*
X703Y263D02*
X715Y263D01*
X749Y263D02*
X761Y263D01*
X503Y262D02*
X514Y262D01*
X550Y262D02*
X561Y262D01*
X703Y262D02*
X714Y262D01*
X749Y262D02*
X761Y262D01*
X503Y261D02*
X514Y261D01*
X550Y261D02*
X561Y261D01*
X703Y261D02*
X713Y261D01*
X750Y261D02*
X761Y261D01*
X503Y260D02*
X513Y260D01*
X551Y260D02*
X561Y260D01*
X703Y260D02*
X713Y260D01*
X750Y260D02*
X761Y260D01*
X503Y259D02*
X513Y259D01*
X551Y259D02*
X561Y259D01*
X703Y259D02*
X713Y259D01*
X751Y259D02*
X761Y259D01*
X503Y258D02*
X512Y258D01*
X551Y258D02*
X561Y258D01*
X703Y258D02*
X712Y258D01*
X751Y258D02*
X761Y258D01*
X503Y257D02*
X512Y257D01*
X551Y257D02*
X561Y257D01*
X703Y257D02*
X712Y257D01*
X751Y257D02*
X761Y257D01*
X503Y256D02*
X512Y256D01*
X552Y256D02*
X561Y256D01*
X703Y256D02*
X712Y256D01*
X752Y256D02*
X761Y256D01*
X503Y255D02*
X512Y255D01*
X552Y255D02*
X561Y255D01*
X703Y255D02*
X712Y255D01*
X752Y255D02*
X761Y255D01*
X503Y254D02*
X512Y254D01*
X552Y254D02*
X561Y254D01*
X703Y254D02*
X712Y254D01*
X752Y254D02*
X761Y254D01*
X503Y253D02*
X512Y253D01*
X552Y253D02*
X561Y253D01*
X703Y253D02*
X712Y253D01*
X752Y253D02*
X761Y253D01*
X503Y252D02*
X512Y252D01*
X552Y252D02*
X561Y252D01*
X703Y252D02*
X712Y252D01*
X752Y252D02*
X761Y252D01*
X503Y251D02*
X512Y251D01*
X552Y251D02*
X561Y251D01*
X703Y251D02*
X712Y251D01*
X752Y251D02*
X761Y251D01*
X503Y250D02*
X512Y250D01*
X552Y250D02*
X561Y250D01*
X703Y250D02*
X712Y250D01*
X752Y250D02*
X761Y250D01*
X503Y249D02*
X512Y249D01*
X552Y249D02*
X561Y249D01*
X703Y249D02*
X712Y249D01*
X752Y249D02*
X761Y249D01*
X503Y248D02*
X512Y248D01*
X551Y248D02*
X561Y248D01*
X703Y248D02*
X712Y248D01*
X751Y248D02*
X761Y248D01*
X503Y247D02*
X513Y247D01*
X551Y247D02*
X561Y247D01*
X703Y247D02*
X712Y247D01*
X751Y247D02*
X761Y247D01*
X503Y246D02*
X513Y246D01*
X551Y246D02*
X561Y246D01*
X703Y246D02*
X713Y246D01*
X751Y246D02*
X761Y246D01*
X503Y245D02*
X513Y245D01*
X550Y245D02*
X561Y245D01*
X703Y245D02*
X713Y245D01*
X750Y245D02*
X761Y245D01*
X503Y244D02*
X514Y244D01*
X550Y244D02*
X561Y244D01*
X703Y244D02*
X714Y244D01*
X750Y244D02*
X761Y244D01*
X503Y243D02*
X514Y243D01*
X549Y243D02*
X561Y243D01*
X703Y243D02*
X714Y243D01*
X749Y243D02*
X761Y243D01*
X503Y242D02*
X515Y242D01*
X549Y242D02*
X561Y242D01*
X703Y242D02*
X715Y242D01*
X749Y242D02*
X761Y242D01*
X503Y241D02*
X516Y241D01*
X548Y241D02*
X561Y241D01*
X703Y241D02*
X715Y241D01*
X748Y241D02*
X761Y241D01*
X503Y240D02*
X516Y240D01*
X547Y240D02*
X561Y240D01*
X703Y240D02*
X716Y240D01*
X747Y240D02*
X761Y240D01*
X503Y239D02*
X517Y239D01*
X546Y239D02*
X561Y239D01*
X703Y239D02*
X717Y239D01*
X746Y239D02*
X761Y239D01*
X503Y238D02*
X518Y238D01*
X545Y238D02*
X561Y238D01*
X703Y238D02*
X718Y238D01*
X745Y238D02*
X761Y238D01*
X503Y237D02*
X519Y237D01*
X544Y237D02*
X561Y237D01*
X703Y237D02*
X719Y237D01*
X744Y237D02*
X761Y237D01*
X503Y236D02*
X521Y236D01*
X543Y236D02*
X561Y236D01*
X703Y236D02*
X721Y236D01*
X743Y236D02*
X761Y236D01*
X503Y235D02*
X523Y235D01*
X541Y235D02*
X561Y235D01*
X703Y235D02*
X723Y235D01*
X741Y235D02*
X761Y235D01*
X503Y234D02*
X525Y234D01*
X538Y234D02*
X561Y234D01*
X703Y234D02*
X725Y234D01*
X738Y234D02*
X761Y234D01*
X503Y233D02*
X561Y233D01*
X703Y233D02*
X761Y233D01*
X503Y232D02*
X561Y232D01*
X703Y232D02*
X761Y232D01*
X503Y231D02*
X561Y231D01*
X703Y231D02*
X761Y231D01*
X503Y230D02*
X561Y230D01*
X703Y230D02*
X761Y230D01*
X503Y229D02*
X561Y229D01*
X703Y229D02*
X761Y229D01*
X503Y228D02*
X561Y228D01*
X703Y228D02*
X761Y228D01*
X503Y227D02*
X561Y227D01*
X703Y227D02*
X761Y227D01*
X503Y226D02*
X561Y226D01*
X703Y226D02*
X761Y226D01*
X503Y225D02*
X561Y225D01*
X703Y225D02*
X761Y225D01*
X503Y224D02*
X561Y224D01*
X703Y224D02*
X761Y224D01*
X503Y223D02*
X561Y223D01*
X703Y223D02*
X760Y223D01*
D02*
G04 End of Copper1*
M02*