G04 MADE WITH FRITZING*
G04 WWW.FRITZING.ORG*
G04 DOUBLE SIDED*
G04 HOLES PLATED*
G04 CONTOUR ON CENTER OF CONTOUR VECTOR*
%ASAXBY*%
%FSLAX23Y23*%
%MOIN*%
%OFA0B0*%
%SFA1.0B1.0*%
%ADD10C,0.084000*%
%ADD11C,0.069370*%
%ADD12C,0.150000*%
%ADD13C,0.075000*%
%ADD14C,0.080000*%
%ADD15C,0.088000*%
%ADD16C,0.070000*%
%ADD17C,0.085000*%
%ADD18R,0.084000X0.084000*%
%ADD19R,0.080000X0.080000*%
%ADD20R,0.088000X0.088000*%
%ADD21R,0.001000X0.001000*%
%LNMASK0*%
G90*
G70*
G54D10*
X2395Y705D03*
X2295Y705D03*
X2195Y705D03*
X2095Y705D03*
X1995Y705D03*
G54D11*
X731Y552D03*
X731Y252D03*
X531Y552D03*
X531Y252D03*
G54D12*
X575Y1489D03*
X335Y1489D03*
X455Y1299D03*
G54D13*
X1045Y1685D03*
X1045Y1485D03*
G54D14*
X1003Y1252D03*
X1503Y1252D03*
X1003Y1152D03*
X1503Y1152D03*
X1003Y1052D03*
X1503Y1052D03*
X1003Y952D03*
X1503Y952D03*
X1003Y852D03*
X1503Y852D03*
X1003Y752D03*
X1503Y752D03*
X1003Y652D03*
X1503Y652D03*
X1003Y552D03*
X1503Y552D03*
G54D15*
X1720Y1051D03*
X1720Y951D03*
X1720Y851D03*
X1720Y751D03*
G54D16*
X949Y2000D03*
X1809Y100D03*
X2409Y2000D03*
X2619Y1100D03*
X1349Y2000D03*
X2309Y100D03*
X2009Y2000D03*
X1409Y100D03*
X2619Y1200D03*
X2619Y1000D03*
X1549Y2000D03*
X1149Y2000D03*
X2109Y100D03*
X2509Y100D03*
X2209Y2000D03*
X1809Y2000D03*
X1609Y100D03*
X2519Y1200D03*
X2519Y1100D03*
X2519Y1000D03*
X1649Y2000D03*
X1449Y2000D03*
X1249Y2000D03*
X1049Y2000D03*
X749Y2000D03*
X849Y2000D03*
X2009Y100D03*
X2209Y100D03*
X2409Y100D03*
X2509Y2000D03*
X2309Y2000D03*
X2109Y2000D03*
X1909Y2000D03*
X1309Y100D03*
X1509Y100D03*
X1209Y100D03*
X1109Y100D03*
X1709Y100D03*
G54D17*
X2209Y1584D03*
X2209Y1184D03*
G54D18*
X2395Y705D03*
G54D19*
X1503Y552D03*
X1503Y1152D03*
G54D20*
X1720Y1051D03*
G54D21*
X1008Y1522D02*
X1082Y1522D01*
X1008Y1521D02*
X1082Y1521D01*
X1008Y1520D02*
X1082Y1520D01*
X1008Y1519D02*
X1082Y1519D01*
X1008Y1518D02*
X1082Y1518D01*
X1008Y1517D02*
X1082Y1517D01*
X1008Y1516D02*
X1082Y1516D01*
X1008Y1515D02*
X1082Y1515D01*
X1008Y1514D02*
X1082Y1514D01*
X1008Y1513D02*
X1082Y1513D01*
X1008Y1512D02*
X1082Y1512D01*
X1008Y1511D02*
X1082Y1511D01*
X1008Y1510D02*
X1082Y1510D01*
X1008Y1509D02*
X1082Y1509D01*
X1008Y1508D02*
X1082Y1508D01*
X1008Y1507D02*
X1082Y1507D01*
X1008Y1506D02*
X1082Y1506D01*
X1008Y1505D02*
X1082Y1505D01*
X1008Y1504D02*
X1082Y1504D01*
X1008Y1503D02*
X1082Y1503D01*
X1008Y1502D02*
X1082Y1502D01*
X1008Y1501D02*
X1082Y1501D01*
X1008Y1500D02*
X1082Y1500D01*
X1008Y1499D02*
X1082Y1499D01*
X1008Y1498D02*
X1082Y1498D01*
X1008Y1497D02*
X1082Y1497D01*
X1008Y1496D02*
X1082Y1496D01*
X1008Y1495D02*
X1082Y1495D01*
X1008Y1494D02*
X1082Y1494D01*
X1008Y1493D02*
X1041Y1493D01*
X1049Y1493D02*
X1082Y1493D01*
X1008Y1492D02*
X1040Y1492D01*
X1051Y1492D02*
X1082Y1492D01*
X1008Y1491D02*
X1039Y1491D01*
X1052Y1491D02*
X1082Y1491D01*
X1008Y1490D02*
X1038Y1490D01*
X1053Y1490D02*
X1082Y1490D01*
X1008Y1489D02*
X1037Y1489D01*
X1053Y1489D02*
X1082Y1489D01*
X1008Y1488D02*
X1036Y1488D01*
X1054Y1488D02*
X1082Y1488D01*
X1008Y1487D02*
X1036Y1487D01*
X1054Y1487D02*
X1082Y1487D01*
X1008Y1486D02*
X1036Y1486D01*
X1054Y1486D02*
X1082Y1486D01*
X1008Y1485D02*
X1036Y1485D01*
X1054Y1485D02*
X1082Y1485D01*
X1008Y1484D02*
X1036Y1484D01*
X1054Y1484D02*
X1082Y1484D01*
X1008Y1483D02*
X1036Y1483D01*
X1054Y1483D02*
X1082Y1483D01*
X1008Y1482D02*
X1036Y1482D01*
X1054Y1482D02*
X1082Y1482D01*
X1008Y1481D02*
X1037Y1481D01*
X1054Y1481D02*
X1082Y1481D01*
X1008Y1480D02*
X1037Y1480D01*
X1053Y1480D02*
X1082Y1480D01*
X1008Y1479D02*
X1038Y1479D01*
X1052Y1479D02*
X1082Y1479D01*
X1008Y1478D02*
X1039Y1478D01*
X1051Y1478D02*
X1082Y1478D01*
X1008Y1477D02*
X1041Y1477D01*
X1050Y1477D02*
X1082Y1477D01*
X1008Y1476D02*
X1082Y1476D01*
X1008Y1475D02*
X1082Y1475D01*
X1008Y1474D02*
X1082Y1474D01*
X1008Y1473D02*
X1082Y1473D01*
X1008Y1472D02*
X1082Y1472D01*
X1008Y1471D02*
X1082Y1471D01*
X1008Y1470D02*
X1082Y1470D01*
X1008Y1469D02*
X1082Y1469D01*
X1008Y1468D02*
X1082Y1468D01*
X1008Y1467D02*
X1082Y1467D01*
X1008Y1466D02*
X1082Y1466D01*
X1008Y1465D02*
X1082Y1465D01*
X1008Y1464D02*
X1082Y1464D01*
X1008Y1463D02*
X1082Y1463D01*
X1008Y1462D02*
X1082Y1462D01*
X1008Y1461D02*
X1082Y1461D01*
X1008Y1460D02*
X1082Y1460D01*
X1008Y1459D02*
X1082Y1459D01*
X1008Y1458D02*
X1082Y1458D01*
X1008Y1457D02*
X1082Y1457D01*
X1008Y1456D02*
X1082Y1456D01*
X1008Y1455D02*
X1082Y1455D01*
X1008Y1454D02*
X1082Y1454D01*
X1008Y1453D02*
X1082Y1453D01*
X1008Y1452D02*
X1082Y1452D01*
X1008Y1451D02*
X1082Y1451D01*
X1008Y1450D02*
X1082Y1450D01*
X1008Y1449D02*
X1082Y1449D01*
X1008Y1448D02*
X1082Y1448D01*
X498Y587D02*
X566Y587D01*
X698Y587D02*
X766Y587D01*
X498Y586D02*
X566Y586D01*
X698Y586D02*
X766Y586D01*
X498Y585D02*
X566Y585D01*
X698Y585D02*
X766Y585D01*
X498Y584D02*
X566Y584D01*
X698Y584D02*
X766Y584D01*
X498Y583D02*
X566Y583D01*
X698Y583D02*
X766Y583D01*
X498Y582D02*
X566Y582D01*
X698Y582D02*
X766Y582D01*
X498Y581D02*
X566Y581D01*
X698Y581D02*
X766Y581D01*
X498Y580D02*
X566Y580D01*
X698Y580D02*
X766Y580D01*
X498Y579D02*
X566Y579D01*
X698Y579D02*
X766Y579D01*
X498Y578D02*
X566Y578D01*
X698Y578D02*
X766Y578D01*
X498Y577D02*
X566Y577D01*
X698Y577D02*
X766Y577D01*
X498Y576D02*
X566Y576D01*
X698Y576D02*
X766Y576D01*
X498Y575D02*
X566Y575D01*
X698Y575D02*
X766Y575D01*
X498Y574D02*
X566Y574D01*
X698Y574D02*
X766Y574D01*
X498Y573D02*
X566Y573D01*
X698Y573D02*
X766Y573D01*
X498Y572D02*
X566Y572D01*
X698Y572D02*
X766Y572D01*
X498Y571D02*
X566Y571D01*
X698Y571D02*
X766Y571D01*
X498Y570D02*
X566Y570D01*
X698Y570D02*
X766Y570D01*
X498Y569D02*
X566Y569D01*
X698Y569D02*
X766Y569D01*
X498Y568D02*
X566Y568D01*
X698Y568D02*
X766Y568D01*
X498Y567D02*
X528Y567D01*
X535Y567D02*
X566Y567D01*
X698Y567D02*
X728Y567D01*
X735Y567D02*
X766Y567D01*
X498Y566D02*
X525Y566D01*
X538Y566D02*
X566Y566D01*
X698Y566D02*
X725Y566D01*
X738Y566D02*
X766Y566D01*
X498Y565D02*
X523Y565D01*
X540Y565D02*
X566Y565D01*
X698Y565D02*
X723Y565D01*
X740Y565D02*
X766Y565D01*
X498Y564D02*
X522Y564D01*
X541Y564D02*
X566Y564D01*
X698Y564D02*
X722Y564D01*
X741Y564D02*
X766Y564D01*
X498Y563D02*
X521Y563D01*
X543Y563D02*
X566Y563D01*
X698Y563D02*
X721Y563D01*
X743Y563D02*
X766Y563D01*
X498Y562D02*
X520Y562D01*
X543Y562D02*
X566Y562D01*
X698Y562D02*
X720Y562D01*
X743Y562D02*
X766Y562D01*
X498Y561D02*
X519Y561D01*
X544Y561D02*
X566Y561D01*
X698Y561D02*
X719Y561D01*
X744Y561D02*
X766Y561D01*
X498Y560D02*
X519Y560D01*
X545Y560D02*
X566Y560D01*
X698Y560D02*
X719Y560D01*
X745Y560D02*
X766Y560D01*
X498Y559D02*
X518Y559D01*
X546Y559D02*
X566Y559D01*
X698Y559D02*
X718Y559D01*
X745Y559D02*
X766Y559D01*
X498Y558D02*
X518Y558D01*
X546Y558D02*
X566Y558D01*
X698Y558D02*
X718Y558D01*
X746Y558D02*
X766Y558D01*
X498Y557D02*
X517Y557D01*
X546Y557D02*
X566Y557D01*
X698Y557D02*
X717Y557D01*
X746Y557D02*
X766Y557D01*
X498Y556D02*
X517Y556D01*
X547Y556D02*
X566Y556D01*
X698Y556D02*
X717Y556D01*
X747Y556D02*
X766Y556D01*
X498Y555D02*
X517Y555D01*
X547Y555D02*
X566Y555D01*
X698Y555D02*
X717Y555D01*
X747Y555D02*
X766Y555D01*
X498Y554D02*
X517Y554D01*
X547Y554D02*
X566Y554D01*
X698Y554D02*
X717Y554D01*
X747Y554D02*
X766Y554D01*
X498Y553D02*
X517Y553D01*
X547Y553D02*
X566Y553D01*
X698Y553D02*
X717Y553D01*
X747Y553D02*
X766Y553D01*
X498Y552D02*
X517Y552D01*
X547Y552D02*
X566Y552D01*
X698Y552D02*
X717Y552D01*
X747Y552D02*
X766Y552D01*
X498Y551D02*
X517Y551D01*
X547Y551D02*
X566Y551D01*
X698Y551D02*
X717Y551D01*
X747Y551D02*
X766Y551D01*
X498Y550D02*
X517Y550D01*
X547Y550D02*
X566Y550D01*
X698Y550D02*
X717Y550D01*
X747Y550D02*
X766Y550D01*
X498Y549D02*
X517Y549D01*
X547Y549D02*
X566Y549D01*
X698Y549D02*
X717Y549D01*
X746Y549D02*
X766Y549D01*
X498Y548D02*
X517Y548D01*
X546Y548D02*
X566Y548D01*
X698Y548D02*
X717Y548D01*
X746Y548D02*
X766Y548D01*
X498Y547D02*
X518Y547D01*
X546Y547D02*
X566Y547D01*
X698Y547D02*
X718Y547D01*
X746Y547D02*
X766Y547D01*
X498Y546D02*
X518Y546D01*
X545Y546D02*
X566Y546D01*
X698Y546D02*
X718Y546D01*
X745Y546D02*
X766Y546D01*
X498Y545D02*
X519Y545D01*
X545Y545D02*
X566Y545D01*
X698Y545D02*
X719Y545D01*
X745Y545D02*
X766Y545D01*
X498Y544D02*
X519Y544D01*
X544Y544D02*
X566Y544D01*
X698Y544D02*
X719Y544D01*
X744Y544D02*
X766Y544D01*
X498Y543D02*
X520Y543D01*
X543Y543D02*
X566Y543D01*
X698Y543D02*
X720Y543D01*
X743Y543D02*
X766Y543D01*
X498Y542D02*
X521Y542D01*
X542Y542D02*
X566Y542D01*
X698Y542D02*
X721Y542D01*
X742Y542D02*
X766Y542D01*
X498Y541D02*
X522Y541D01*
X541Y541D02*
X566Y541D01*
X698Y541D02*
X722Y541D01*
X741Y541D02*
X766Y541D01*
X498Y540D02*
X524Y540D01*
X540Y540D02*
X566Y540D01*
X698Y540D02*
X724Y540D01*
X740Y540D02*
X766Y540D01*
X498Y539D02*
X526Y539D01*
X538Y539D02*
X566Y539D01*
X698Y539D02*
X725Y539D01*
X738Y539D02*
X766Y539D01*
X498Y538D02*
X530Y538D01*
X534Y538D02*
X566Y538D01*
X698Y538D02*
X730Y538D01*
X733Y538D02*
X766Y538D01*
X498Y537D02*
X566Y537D01*
X698Y537D02*
X766Y537D01*
X498Y536D02*
X566Y536D01*
X698Y536D02*
X766Y536D01*
X498Y535D02*
X566Y535D01*
X698Y535D02*
X766Y535D01*
X498Y534D02*
X566Y534D01*
X698Y534D02*
X766Y534D01*
X498Y533D02*
X566Y533D01*
X698Y533D02*
X766Y533D01*
X498Y532D02*
X566Y532D01*
X698Y532D02*
X766Y532D01*
X498Y531D02*
X566Y531D01*
X698Y531D02*
X766Y531D01*
X498Y530D02*
X566Y530D01*
X698Y530D02*
X766Y530D01*
X498Y529D02*
X566Y529D01*
X698Y529D02*
X766Y529D01*
X498Y528D02*
X566Y528D01*
X698Y528D02*
X766Y528D01*
X498Y527D02*
X566Y527D01*
X698Y527D02*
X766Y527D01*
X498Y526D02*
X566Y526D01*
X698Y526D02*
X766Y526D01*
X498Y525D02*
X566Y525D01*
X698Y525D02*
X766Y525D01*
X498Y524D02*
X566Y524D01*
X698Y524D02*
X766Y524D01*
X498Y523D02*
X566Y523D01*
X698Y523D02*
X766Y523D01*
X498Y522D02*
X566Y522D01*
X698Y522D02*
X766Y522D01*
X498Y521D02*
X566Y521D01*
X698Y521D02*
X766Y521D01*
X498Y520D02*
X566Y520D01*
X698Y520D02*
X766Y520D01*
X498Y519D02*
X566Y519D01*
X698Y519D02*
X766Y519D01*
X498Y518D02*
X566Y518D01*
X698Y518D02*
X766Y518D01*
X498Y287D02*
X566Y287D01*
X698Y287D02*
X766Y287D01*
X498Y286D02*
X566Y286D01*
X698Y286D02*
X766Y286D01*
X498Y285D02*
X566Y285D01*
X698Y285D02*
X766Y285D01*
X498Y284D02*
X566Y284D01*
X698Y284D02*
X766Y284D01*
X498Y283D02*
X566Y283D01*
X698Y283D02*
X766Y283D01*
X498Y282D02*
X566Y282D01*
X698Y282D02*
X766Y282D01*
X498Y281D02*
X566Y281D01*
X698Y281D02*
X766Y281D01*
X498Y280D02*
X566Y280D01*
X698Y280D02*
X766Y280D01*
X498Y279D02*
X566Y279D01*
X698Y279D02*
X766Y279D01*
X498Y278D02*
X566Y278D01*
X698Y278D02*
X766Y278D01*
X498Y277D02*
X566Y277D01*
X698Y277D02*
X766Y277D01*
X498Y276D02*
X566Y276D01*
X698Y276D02*
X766Y276D01*
X498Y275D02*
X566Y275D01*
X698Y275D02*
X766Y275D01*
X498Y274D02*
X566Y274D01*
X698Y274D02*
X766Y274D01*
X498Y273D02*
X566Y273D01*
X698Y273D02*
X766Y273D01*
X498Y272D02*
X566Y272D01*
X698Y272D02*
X766Y272D01*
X498Y271D02*
X566Y271D01*
X698Y271D02*
X766Y271D01*
X498Y270D02*
X566Y270D01*
X698Y270D02*
X766Y270D01*
X498Y269D02*
X566Y269D01*
X698Y269D02*
X766Y269D01*
X498Y268D02*
X566Y268D01*
X698Y268D02*
X766Y268D01*
X498Y267D02*
X528Y267D01*
X536Y267D02*
X566Y267D01*
X698Y267D02*
X728Y267D01*
X735Y267D02*
X766Y267D01*
X498Y266D02*
X525Y266D01*
X539Y266D02*
X566Y266D01*
X698Y266D02*
X725Y266D01*
X738Y266D02*
X766Y266D01*
X498Y265D02*
X523Y265D01*
X540Y265D02*
X566Y265D01*
X698Y265D02*
X723Y265D01*
X740Y265D02*
X766Y265D01*
X498Y264D02*
X522Y264D01*
X542Y264D02*
X566Y264D01*
X698Y264D02*
X722Y264D01*
X741Y264D02*
X766Y264D01*
X498Y263D02*
X521Y263D01*
X543Y263D02*
X566Y263D01*
X698Y263D02*
X721Y263D01*
X743Y263D02*
X766Y263D01*
X498Y262D02*
X520Y262D01*
X544Y262D02*
X566Y262D01*
X698Y262D02*
X720Y262D01*
X743Y262D02*
X766Y262D01*
X498Y261D02*
X519Y261D01*
X544Y261D02*
X566Y261D01*
X698Y261D02*
X719Y261D01*
X744Y261D02*
X766Y261D01*
X498Y260D02*
X519Y260D01*
X545Y260D02*
X566Y260D01*
X698Y260D02*
X719Y260D01*
X745Y260D02*
X766Y260D01*
X498Y259D02*
X518Y259D01*
X546Y259D02*
X566Y259D01*
X698Y259D02*
X718Y259D01*
X746Y259D02*
X766Y259D01*
X498Y258D02*
X518Y258D01*
X546Y258D02*
X566Y258D01*
X698Y258D02*
X718Y258D01*
X746Y258D02*
X766Y258D01*
X498Y257D02*
X517Y257D01*
X546Y257D02*
X566Y257D01*
X698Y257D02*
X717Y257D01*
X746Y257D02*
X766Y257D01*
X498Y256D02*
X517Y256D01*
X547Y256D02*
X566Y256D01*
X698Y256D02*
X717Y256D01*
X747Y256D02*
X766Y256D01*
X498Y255D02*
X517Y255D01*
X547Y255D02*
X566Y255D01*
X698Y255D02*
X717Y255D01*
X747Y255D02*
X766Y255D01*
X498Y254D02*
X517Y254D01*
X547Y254D02*
X566Y254D01*
X698Y254D02*
X717Y254D01*
X747Y254D02*
X766Y254D01*
X498Y253D02*
X517Y253D01*
X547Y253D02*
X566Y253D01*
X698Y253D02*
X717Y253D01*
X747Y253D02*
X766Y253D01*
X498Y252D02*
X517Y252D01*
X547Y252D02*
X566Y252D01*
X698Y252D02*
X717Y252D01*
X747Y252D02*
X766Y252D01*
X498Y251D02*
X517Y251D01*
X547Y251D02*
X566Y251D01*
X698Y251D02*
X717Y251D01*
X747Y251D02*
X766Y251D01*
X498Y250D02*
X517Y250D01*
X547Y250D02*
X566Y250D01*
X698Y250D02*
X717Y250D01*
X747Y250D02*
X766Y250D01*
X498Y249D02*
X517Y249D01*
X547Y249D02*
X566Y249D01*
X698Y249D02*
X717Y249D01*
X746Y249D02*
X766Y249D01*
X498Y248D02*
X517Y248D01*
X546Y248D02*
X566Y248D01*
X698Y248D02*
X717Y248D01*
X746Y248D02*
X766Y248D01*
X498Y247D02*
X518Y247D01*
X546Y247D02*
X566Y247D01*
X698Y247D02*
X718Y247D01*
X746Y247D02*
X766Y247D01*
X498Y246D02*
X518Y246D01*
X545Y246D02*
X566Y246D01*
X698Y246D02*
X718Y246D01*
X745Y246D02*
X766Y246D01*
X498Y245D02*
X519Y245D01*
X545Y245D02*
X566Y245D01*
X698Y245D02*
X719Y245D01*
X745Y245D02*
X766Y245D01*
X498Y244D02*
X519Y244D01*
X544Y244D02*
X566Y244D01*
X698Y244D02*
X719Y244D01*
X744Y244D02*
X766Y244D01*
X498Y243D02*
X520Y243D01*
X543Y243D02*
X566Y243D01*
X698Y243D02*
X720Y243D01*
X743Y243D02*
X766Y243D01*
X498Y242D02*
X521Y242D01*
X542Y242D02*
X566Y242D01*
X698Y242D02*
X721Y242D01*
X742Y242D02*
X766Y242D01*
X498Y241D02*
X522Y241D01*
X541Y241D02*
X566Y241D01*
X698Y241D02*
X722Y241D01*
X741Y241D02*
X766Y241D01*
X498Y240D02*
X524Y240D01*
X540Y240D02*
X566Y240D01*
X698Y240D02*
X724Y240D01*
X740Y240D02*
X766Y240D01*
X498Y239D02*
X526Y239D01*
X538Y239D02*
X566Y239D01*
X698Y239D02*
X726Y239D01*
X738Y239D02*
X766Y239D01*
X498Y238D02*
X531Y238D01*
X533Y238D02*
X566Y238D01*
X698Y238D02*
X731Y238D01*
X733Y238D02*
X766Y238D01*
X498Y237D02*
X566Y237D01*
X698Y237D02*
X766Y237D01*
X498Y236D02*
X566Y236D01*
X698Y236D02*
X766Y236D01*
X498Y235D02*
X566Y235D01*
X698Y235D02*
X766Y235D01*
X498Y234D02*
X566Y234D01*
X698Y234D02*
X766Y234D01*
X498Y233D02*
X566Y233D01*
X698Y233D02*
X766Y233D01*
X498Y232D02*
X566Y232D01*
X698Y232D02*
X766Y232D01*
X498Y231D02*
X566Y231D01*
X698Y231D02*
X766Y231D01*
X498Y230D02*
X566Y230D01*
X698Y230D02*
X766Y230D01*
X498Y229D02*
X566Y229D01*
X698Y229D02*
X766Y229D01*
X498Y228D02*
X566Y228D01*
X698Y228D02*
X766Y228D01*
X498Y227D02*
X566Y227D01*
X698Y227D02*
X766Y227D01*
X498Y226D02*
X566Y226D01*
X698Y226D02*
X766Y226D01*
X498Y225D02*
X566Y225D01*
X698Y225D02*
X766Y225D01*
X498Y224D02*
X566Y224D01*
X698Y224D02*
X766Y224D01*
X498Y223D02*
X566Y223D01*
X698Y223D02*
X766Y223D01*
X498Y222D02*
X566Y222D01*
X698Y222D02*
X766Y222D01*
X498Y221D02*
X566Y221D01*
X698Y221D02*
X766Y221D01*
X498Y220D02*
X566Y220D01*
X698Y220D02*
X766Y220D01*
X498Y219D02*
X566Y219D01*
X698Y219D02*
X766Y219D01*
X498Y218D02*
X566Y218D01*
X698Y218D02*
X765Y218D01*
D02*
G04 End of Mask0*
M02*